<svg xmlns="http://www.w3.org/2000/svg" xmlns:xlink="http://www.w3.org/1999/xlink" xmlns:lucid="lucid" width="3120" height="900"><g transform="translate(629.3333333333339 -157.11111111111097)" lucid:page-tab-id="0_0"><path d="M-1000 0h3500v1500h-3500z" fill="#fff"/><path d="M70.67 398.46a6 6 0 0 1 6-6h2388a6 6 0 0 1 6 6v632.65a6 6 0 0 1-6 6h-2388a6 6 0 0 1-6-6z" stroke="#248814" fill="#fff" fill-opacity="0"/><path d="M70.67 392.46h56v56h-56v-56z" stroke="#fff" stroke-opacity="0" fill="#248814"/><path d="M102.42 420.76h-1.18v-1.1c-.1-1.73-1.47-3.08-3.2-3.2-1.9-.13-3.53 1.3-3.66 3.2v1.06H93.2c-.45 0-.8.36-.8.8v6.13c0 .45.35.8.8.8h9.22c.45 0 .8-.35.8-.8v-6.08c0-.45-.35-.8-.8-.8zm-6.4-1.07c.1-1.03 1-1.77 2-1.68.9.1 1.6.77 1.67 1.67v1.06h-3.72zm5.66 7.07H94v-4.4h7.62z" stroke="#fff" stroke-opacity="0" fill="#fff"/><path d="M112.94 418.2c-.1-2.44-1.6-4.47-3.88-5.3-1.58-.46-3.16-.14-4.4.9-.67-1.45-1.46-2.6-2.58-3.75-3.25-3.35-7.95-4.3-12.2-2.4-4.03 1.9-6.4 5.64-6.53 10.06v.72c-3.4.96-5.66 4.06-5.5 7.63v.63c.38 4.3 3.92 7.53 8.2 7.47h26s7.42-.63 7.42-8.1c.04-3.9-2.66-7.2-6.53-7.85zm-.96 14.4H86.06c-3.46.04-6.3-2.54-6.58-5.97v-.52c-.17-3.04 1.9-5.7 4.9-6.3.4-.12.63-.47.6-.88-.05-.42-.05-.75 0-1.16.08-3.8 2.1-6.94 5.53-8.6 1.25-.57 2.42-.82 3.83-.84 2.63.08 4.87 1.04 6.7 2.93 1.25 1.3 2.04 2.6 2.63 4.3.04.15.12.3.25.37.38.28.88.2 1.13-.16.83-1.18 2.25-1.68 3.62-1.3 1.8.72 2.87 2.4 2.83 4.32-.1.4.2.82.62.9 3.58.36 6.2 3.55 5.83 7.1-.3 3.14-2.7 5.53-5.83 5.86z" stroke="#fff" stroke-opacity="0" fill="#fff"/><use xlink:href="#a" transform="matrix(1,0,0,1,141.66666666666606,412.45615402543183) translate(0 14.4)"/><use xlink:href="#b" transform="matrix(1,0,0,1,141.66666666666606,412.45615402543183) translate(55.5 14.4)"/><use xlink:href="#c" transform="matrix(1,0,0,1,141.66666666666606,412.45615402543183) translate(116.4 14.4)"/><path d="M790.67 624.55h120v120h-120v-120z" stroke="#000" stroke-opacity="0" fill="url(#d)"/><path d="M840.58 723.52c10.2 0 19.52-2.18 23.82-5.62l1.86 2.26c-4.86 3.95-14.66 6.4-25.68 6.4-16.44 0-28.9-5.22-28.9-12.2V654.5c0-7.73 15.46-11.93 29.96-11.93 14.58 0 30.05 4.2 30.05 11.93v12h-3v-6.54c-5.2 4.28-16.37 6.55-27.06 6.55-10.6 0-21.8-2.28-26.98-6.56v14.86c0 4.2 11.9 9.16 27.22 9.16 2.6 0 5.18-.17 7.6-.42l.42 2.94c-2.6.25-5.27.42-8.02.42-10.85 0-22.03-2.43-27.22-6.72v15.54c0 4.2 11.9 9.16 27.22 9.16 2.6 0 5.1-.17 7.6-.42l.42 2.94c-2.67.33-5.35.5-8.02.5-10.85 0-22.03-2.52-27.22-6.8v13.27c0 4.37 10.7 9.15 25.92 9.15zm45.53-50.65l6.16 6.47c.25.25.4.67.4 1v32.43c0 .84-.64 1.5-1.53 1.5h-26.98c-.8 0-1.45-.66-1.45-1.5v-38.8c0-.85.64-1.52 1.45-1.52h20.82c.4 0 .8.17 1.14.42zm3.57 38.4v-26.9h-7.53c-.8 0-1.46-.66-1.46-1.5v-7.48h-15v35.86zm-48.03-65.7c-15.88 0-26.98 4.7-26.98 8.9 0 4.3 11.1 9 26.98 9 15.95 0 27.05-4.7 27.05-9 0-4.2-11.1-8.9-27.06-8.9zm39.77 41.83c.9 0 1.63.34 2.1.93 1 1.17.74 3.02.66 3.44 0 2.7 1.62 3.28 1.78 3.36.65.17 1.14.84 1.14 1.5 0 .7-.5 1.27-1.14 1.36-.16.07-1.78.66-1.78 3.68 0 1.7-.8 3.62-2.67 3.62h-2.44v-2.94h2.02c.08-.25.08-.5.08-.68 0-2.5.82-4.1 1.8-5.12-1-.92-1.8-2.52-1.8-5.04.1-.5.1-.92 0-1.17h-2.1v-2.95zm-7.12 0h1.78v2.95h-1.38c-.08.16-.08.4-.08.67 0 2.52-.9 4.1-1.78 5.12.9.93 1.78 2.52 1.78 5.04-.08.5-.08.93-.08 1.18h1.54v2.94h-1.78c-.8 0-1.54-.34-2.02-.93-.98-1.17-.73-3.02-.65-3.44 0-2.7-1.6-3.28-1.86-3.36-.64-.17-1.05-.84-1.05-1.5 0-.7.48-1.27 1.13-1.36.16-.07 1.78-.66 1.78-3.68-.07-1.68.82-3.62 2.68-3.62zm9.4-5.96h6v-.5l-5.36-5.55h-.64z" stroke="#000" stroke-opacity="0" fill="#fff"/><use xlink:href="#e" transform="matrix(1,0,0,1,760.6666666666661,753.5485038253099) translate(1.0999999999999943 14.4)"/><use xlink:href="#f" transform="matrix(1,0,0,1,760.6666666666661,753.5485038253099) translate(72.05 14.4)"/><use xlink:href="#g" transform="matrix(1,0,0,1,760.6666666666661,753.5485038253099) translate(6.674999999999997 36)"/><use xlink:href="#h" transform="matrix(1,0,0,1,760.6666666666661,753.5485038253099) translate(68.525 36)"/><use xlink:href="#i" transform="matrix(1,0,0,1,760.6666666666661,753.5485038253099) translate(102.525 36)"/><use xlink:href="#j" transform="matrix(1,0,0,1,760.6666666666661,753.5485038253099) translate(117.525 36)"/><use xlink:href="#k" transform="matrix(1,0,0,1,760.6666666666661,753.5485038253099) translate(27.049999999999997 57.6)"/><use xlink:href="#l" transform="matrix(1,0,0,1,760.6666666666661,753.5485038253099) translate(106.05 57.6)"/><use xlink:href="#m" transform="matrix(1,0,0,1,760.6666666666661,753.5485038253099) translate(142.95 57.6)"/><use xlink:href="#n" transform="matrix(1,0,0,1,760.6666666666661,753.5485038253099) translate(12.200000000000003 79.20000000000002)"/><use xlink:href="#o" transform="matrix(1,0,0,1,760.6666666666661,753.5485038253099) translate(92.95 79.20000000000002)"/><path d="M1990.67 624.55h120v120h-120v-120z" stroke="#000" stroke-opacity="0" fill="url(#p)"/><path d="M2088.14 705.2c1.02 0 1.9.8 1.9 1.9v16.83c0 1.07-.88 1.9-1.9 1.9h-19.92c-.8 0-1.42-.4-1.73-1.08l-28.2-60.84h-11.72c-.55 0-1.02-.16-1.34-.57-.4-.33-.55-.83-.55-1.32v-16.83c0-1.08.86-1.9 1.88-1.9h24.95c.7 0 1.34.4 1.66 1.07l28 60.85zm-1.8 16.9v-13.2h-6.3c-.72 0-1.35-.4-1.66-1.07l-28.03-60.85h-21.96v13.2h11.1c.78 0 1.4.43 1.72 1.1l28.18 60.83zm-49.3-45.64l10.63 22.04c.24.5.24 1.07 0 1.57l-11.57 24.68c-.3.67-1.02 1.08-1.73 1.08h-21.17c-.63 0-1.26-.33-1.58-.9-.4-.5-.4-1.16-.16-1.83l22.2-46.64c.32-.66.95-1.08 1.66-1.08.78 0 1.4.42 1.73 1.08zm-3.85 45.65l10.7-22.77-8.5-17.75-19.3 40.53z" stroke="#000" stroke-opacity="0" fill="#fff"/><use xlink:href="#q" transform="matrix(1,0,0,1,1960.666666666666,753.5485038253099) translate(24.57499999999999 14.4)"/><use xlink:href="#r" transform="matrix(1,0,0,1,1960.666666666666,753.5485038253099) translate(91.52499999999999 14.4)"/><use xlink:href="#s" transform="matrix(1,0,0,1,1960.666666666666,753.5485038253099) translate(19.575000000000003 36)"/><use xlink:href="#t" transform="matrix(1,0,0,1,1960.666666666666,753.5485038253099) translate(89.525 36)"/><use xlink:href="#u" transform="matrix(1,0,0,1,1960.666666666666,753.5485038253099) translate(145.425 36)"/><use xlink:href="#v" transform="matrix(1,0,0,1,1960.666666666666,753.5485038253099) translate(20.099999999999994 57.6)"/><use xlink:href="#w" transform="matrix(1,0,0,1,1960.666666666666,753.5485038253099) translate(123 57.6)"/><path d="M190.67 617.1h120v120h-120v-120z" stroke="#000" stroke-opacity="0" fill="url(#x)"/><path d="M288.14 697.75c1.02 0 1.9.83 1.9 1.9v16.84c0 1.07-.88 1.9-1.9 1.9h-19.92c-.8 0-1.42-.42-1.73-1.08l-28.2-60.85H226.6c-.55 0-1.03-.16-1.34-.58-.4-.34-.55-.83-.55-1.33v-16.84c0-1.07.86-1.9 1.88-1.9h24.95c.7 0 1.34.4 1.66 1.07l28 60.85zm-1.8 16.93v-13.2h-6.3c-.72 0-1.35-.43-1.66-1.1l-28.03-60.83H228.4v13.2h11.1c.78 0 1.4.42 1.72 1.08l28.18 60.85zm-49.3-45.66l10.64 22.04c.23.5.23 1.08 0 1.57l-11.58 24.7c-.3.65-1.02 1.06-1.73 1.06H213.2c-.63 0-1.26-.34-1.58-.92-.4-.5-.4-1.15-.16-1.8l22.2-46.66c.32-.66.95-1.07 1.66-1.07.78 0 1.4.4 1.73 1.07zm-3.85 45.66l10.7-22.8-8.5-17.74-19.3 40.54z" stroke="#000" stroke-opacity="0" fill="#fff"/><use xlink:href="#y" transform="matrix(1,0,0,1,160.66666666666606,746.111111111111) translate(6.6499999999999915 14.4)"/><use xlink:href="#z" transform="matrix(1,0,0,1,160.66666666666606,746.111111111111) translate(67.6 14.4)"/><use xlink:href="#A" transform="matrix(1,0,0,1,160.66666666666606,746.111111111111) translate(111.45 14.4)"/><use xlink:href="#B" transform="matrix(1,0,0,1,160.66666666666606,746.111111111111) translate(16.57499999999999 36)"/><use xlink:href="#C" transform="matrix(1,0,0,1,160.66666666666606,746.111111111111) translate(98.475 36)"/><path d="M1530.67 624.55h120v120h-120v-120z" stroke="#000" stroke-opacity="0" fill="url(#D)"/><path d="M1628.14 705.2c1.02 0 1.9.8 1.9 1.9v16.83c0 1.07-.88 1.9-1.9 1.9h-19.92c-.8 0-1.42-.4-1.73-1.08l-28.2-60.84h-11.72c-.55 0-1.02-.16-1.34-.57-.4-.33-.55-.83-.55-1.32v-16.83c0-1.08.86-1.9 1.88-1.9h24.95c.7 0 1.34.4 1.66 1.07l28 60.85zm-1.8 16.9v-13.2h-6.3c-.72 0-1.35-.4-1.66-1.07l-28.03-60.85h-21.96v13.2h11.1c.78 0 1.4.43 1.72 1.1l28.18 60.83zm-49.3-45.64l10.63 22.04c.24.5.24 1.07 0 1.57l-11.57 24.68c-.3.67-1.02 1.08-1.73 1.08h-21.17c-.63 0-1.26-.33-1.58-.9-.4-.5-.4-1.16-.16-1.83l22.2-46.64c.32-.66.95-1.08 1.66-1.08.78 0 1.4.42 1.73 1.08zm-3.85 45.65l10.7-22.77-8.5-17.75-19.3 40.53z" stroke="#000" stroke-opacity="0" fill="#fff"/><use xlink:href="#E" transform="matrix(1,0,0,1,1500.666666666666,753.5485038253099) translate(5.125 14.4)"/><use xlink:href="#F" transform="matrix(1,0,0,1,1500.666666666666,753.5485038253099) translate(116.97500000000001 14.4)"/><use xlink:href="#C" transform="matrix(1,0,0,1,1500.666666666666,753.5485038253099) translate(57.525 36)"/><path d="M570.67 177.1h120v120h-120v-120z" stroke="#000" stroke-opacity="0" fill="url(#G)"/><path d="M643.8 223.98v7.52h1.9c.98 0 1.9.82 1.9 1.9v22.45c0 1.08-.92 1.9-1.9 1.9h-30.06c-1 0-1.9-.82-1.9-1.9V233.4c0-1.08.9-1.9 1.9-1.9h1.9v-7.52c0-5.7 6.52-11.22 13.13-11.22 3.05 0 6.27 1.15 8.9 3.3 2.65 2.3 4.22 5.12 4.22 7.92zm0 11.23h-26.26v18.84h26.25v-3.8h-3.72v-3.72h3.7v-3.8h-3.7v-3.7h3.7zm-22.54-3.7h18.82v-7.52c0-1.65-1.08-3.46-2.9-5.03-1.9-1.57-4.37-2.48-6.5-2.48-4.47 0-9.42 3.96-9.42 7.5zm47.55 3.7h3.15v3.8h-3.14c-.32 7.44-2.8 14.46-7.17 20.57l-3.06-2.23c3.96-5.37 6.1-11.72 6.44-18.33h-4.28v-3.8h4.3c-.34-6.6-2.57-12.87-6.45-18.23l3.06-2.15c4.37 6.03 6.77 13.04 7.18 20.4zm-69.1 24.37c-4.37-6.1-6.85-13.13-7.18-20.56h-3.13v-3.8h3.12c.42-7.34 2.8-14.35 7.2-20.38l3.04 2.15c-3.88 5.36-6.1 11.64-6.44 18.24h4.3v3.8h-4.3c.33 6.62 2.48 12.97 6.44 18.34zm10.82-50.36l-2.23-3.05c6.02-4.3 13.04-6.77 20.47-7.1v-3.22h3.8v3.22c7.43.33 14.44 2.8 20.47 7.1l-2.23 3.06c-5.35-3.87-11.63-6.02-18.23-6.43v4.3h-3.8v-4.3c-6.6.4-12.88 2.56-18.25 6.44zm40.3 55.9l2.22 3.05c-6.03 4.38-13.04 6.77-20.47 7.2v3.04h-3.8v-3.06c-7.43-.42-14.45-2.8-20.48-7.2l2.22-3.04c5.37 3.88 11.64 6.1 18.25 6.44v-4.38h3.8v4.38c6.6-.33 12.88-2.56 18.24-6.44zm-36.58-47.06l-2.64 2.64-21.88-21.88 2.64-2.64zm37.64 37.65l19.74 19.72-2.64 2.64-19.74-19.73zm-26.4-13.63c0-2.9 2.3-5.2 5.2-5.2 2.88 0 5.2 2.3 5.2 5.2 0 2.22-1.42 4.04-3.3 4.78v5.3h-3.8v-5.3c-1.9-.74-3.3-2.56-3.3-4.78zM606.2 259l2.64 2.63-11.56 11.56-2.63-2.65zm48.87-43.6l-2.64-2.64 11.56-11.56 2.64 2.64zm-25.84 26.66c0 .83.58 1.4 1.4 1.4.83 0 1.4-.57 1.4-1.4 0-.82-.57-1.4-1.4-1.4-.82 0-1.4.58-1.4 1.4z" stroke="#000" stroke-opacity="0" fill="#fff"/><use xlink:href="#H" transform="matrix(1,0,0,1,540.6666666666661,306.111111111111) translate(36.875 14.4)"/><use xlink:href="#I" transform="matrix(1,0,0,1,540.6666666666661,306.111111111111) translate(82.175 14.4)"/><use xlink:href="#J" transform="matrix(1,0,0,1,540.6666666666661,306.111111111111) translate(54.55 36)"/><path d="M-609.33 543.1a6 6 0 0 1 6-6h448a6 6 0 0 1 6 6v268a6 6 0 0 1-6 6h-448a6 6 0 0 1-6-6z" stroke="#3a414a" fill="#fff"/><path d="M-349.33 585.2h120v120h-120v-120z" stroke="#000" stroke-opacity="0" fill="url(#K)"/><path d="M-262.1 658.4c.6.33.92.9.92 1.57v17c0 .66-.33 1.32-1 1.65l-13.12 7.6c-.25.16-.58.25-.9.25-.34 0-.67-.1-.9-.25l-12.23-7.02-12.22 7.02c-.25.16-.58.25-.9.25-.34 0-.67-.1-.92-.25-.08 0-.08-.08-.08-.08l-13.2-8.67c-.6-.33-.92-.9-.92-1.57v-15.85c0-.66.33-1.32.9-1.65l12.3-7.27v-13.7c0-.66.34-1.24.92-1.65h.08l13.05-7.6c.57-.33 1.32-.33 1.9 0l13.04 7.5c.08 0 .08 0 .16.1.58.33.9.9.9 1.56v13.8l12.23 7.26zm14.05-15.7c0 10.33-7.1 14.13-11.3 15.53l-1.17-3.63c3.96-1.24 8.75-4.38 8.75-11.9 0-9.57-7.92-11.96-11.3-12.54-1-.16-1.66-1.15-1.5-2.14-.33-4.3-2.3-7.35-5.36-8.26-2.48-.74-5.12.25-6.77 2.48-.4.57-1.07.82-1.82.74-.66-.08-1.24-.58-1.48-1.24-1.16-3.38-2.9-6.2-5.04-8.42-2.72-2.64-10.07-8.5-20.47-4.05-5.96 2.56-10.67 9.9-10.67 16.76 0 .75 0 1.57.1 2.32.15.9-.43 1.8-1.33 1.98-3.55.9-9.5 3.7-9.5 12.22 0 .33.08.57.08.82.25 5.45 4.2 10.16 9.75 11.48l-.83 3.63c-7.1-1.65-12.38-7.76-12.7-14.94v-1c0-10.07 6.6-13.95 10.72-15.35-.08-.42-.08-.75-.08-1.17 0-8.42 5.6-17.1 13.04-20.22 8.67-3.7 17.83-1.9 24.52 4.88 1.98 1.98 3.63 4.37 4.87 7.1 2.48-1.9 5.62-2.48 8.67-1.65 4.3 1.32 7.18 5.2 7.93 10.56 6.44 1.64 12.88 6.52 12.88 16zm-43.18 33.2v-12.63l-9.33 5.37v12.7zm13.13 5.37v-12.63l-9.33-5.37v12.63zm13.12-5.37v-12.63l-9.33 5.37v12.63zm-48.8-12.63v11.64l9.42 6.2v-12.47zm11.32 2.14l9.4-5.43-9.4-5.62-9.5 5.62zm26.25 0l9.4-5.43-9.4-5.54-9.42 5.54zM-289.34 632l-9.33 5.45 9.33 5.28 9.33-5.36zm11.22 19.15v-10.48l-9.33 5.36v10.75zm-13.13 5.53V646l-9.33-5.35v10.48z" stroke="#000" stroke-opacity="0" fill="#fff"/><use xlink:href="#H" transform="matrix(1,0,0,1,-379.33333333333394,714.1875303547941) translate(14.949999999999989 14.4)"/><use xlink:href="#L" transform="matrix(1,0,0,1,-379.33333333333394,714.1875303547941) translate(60.249999999999986 14.4)"/><use xlink:href="#A" transform="matrix(1,0,0,1,-379.33333333333394,714.1875303547941) translate(103.14999999999999 14.4)"/><use xlink:href="#M" transform="matrix(1,0,0,1,-379.33333333333394,714.1875303547941) translate(51.55 36)"/><path d="M-529.33 585.2h120v120h-120v-120z" stroke="#000" stroke-opacity="0" fill="url(#N)"/><path d="M-473.05 678.83V652.3h3.72v28.43c0 1.02-.83 1.9-1.9 1.9h-37.48c-1.1 0-1.9-.88-1.9-1.9v-53.06c0-1.02.8-1.9 1.9-1.9h37.47c1.07 0 1.9.88 1.9 1.9v11.4h-3.72v-9.5h-33.85v49.26zm45-35.96c0 10.45-8.6 13.23-13.13 13.23h-22.54v-3.8h22.54c1 0 9.4-.3 9.4-9.43 0-7.67-5.27-10.96-7.83-11.4-1-.22-1.66-1.1-1.58-2.05v-.07c-.08-3-1.5-5.2-4.05-6.06-2.4-.82-5.12-.1-6.44 1.74-.4.5-1.15.8-1.8.73-.67-.14-1.25-.58-1.5-1.24-.9-2.5-2.14-4.1-3.96-5.92-4.3-4.3-8.6-6.7-15.44-4.3-3.05 1.1-6.77 4.9-8.25 8.4l-3.47-1.46c1.9-4.53 6.45-9.06 10.5-10.52 9.24-3.22 14.94.8 19.3 5.18 1.5 1.54 2.74 3 3.73 4.83 2.4-1.54 5.6-1.97 8.58-1.02 3.73 1.25 6.04 4.32 6.54 8.4 4.12 1.47 9.4 6.15 9.4 14.77zm-73.15 3.73v-3.73h46.9v3.73zm0 9.5v-3.8h16.84v3.8zm0-17.03v-3.8h13.13v3.8zm0 26.53v-3.8h9.33v3.8zm50.6-19v-3.73h7.52v3.73zm-35.58 19v-3.8h7.44v3.8z" stroke="#000" stroke-opacity="0" fill="#fff"/><use xlink:href="#H" transform="matrix(1,0,0,1,-559.3333333333339,714.1875303547941) translate(3.5 14.4)"/><use xlink:href="#O" transform="matrix(1,0,0,1,-559.3333333333339,714.1875303547941) translate(48.8 14.4)"/><use xlink:href="#P" transform="matrix(1,0,0,1,-559.3333333333339,714.1875303547941) translate(42.074999999999996 36)"/><path d="M-80.5 677.6h-67.83v-1h67.84zm254.78 0H48.6v-1h125.68z" stroke="#3a414a" stroke-width=".05" fill="#3a414a"/><path d="M-148.32 677.6h-.5v-1h.5z" fill="#3a414a"/><path d="M-148.3 677.64h-.56v-1.05h.56zm-.5-1v.95h.45v-.96z" stroke="#3a414a" stroke-width=".05" fill="#3a414a"/><path d="M189.05 677.1l-14.27 4.65v-9.27z" fill="#3a414a"/><path d="M190.67 677.1l-16.4 5.33V671.8zm-15.4 3.96l12.16-3.95-12.15-3.94z" stroke="#3a414a" stroke-width=".05" fill="#3a414a"/><use xlink:href="#Q" transform="matrix(1,0,0,1,-80.48878452527993,666.4444444444442) translate(0.0049999999999954525 14.222222222222223)"/><use xlink:href="#R" transform="matrix(1,0,0,1,-80.48878452527993,666.4444444444442) translate(29.585246913580242 14.222222222222223)"/><path d="M990.67 685.05h-79.5v-1h79.5zm203.6 0h-63.6v-1h63.6z" stroke="#3a414a" stroke-width=".05" fill="#3a414a"/><path d="M911.18 685.05h-.5v-1h.5z" fill="#3a414a"/><path d="M911.2 685.07h-.56v-1.05h.56zm-.5-1v.95h.45v-.95z" stroke="#3a414a" stroke-width=".05" fill="#3a414a"/><path d="M1209.05 684.55l-14.27 4.63v-9.27z" fill="#3a414a"/><path d="M1210.67 684.55l-16.4 5.32v-10.64zm-15.4 3.95l12.16-3.95-12.15-3.95z" stroke="#3a414a" stroke-width=".05" fill="#3a414a"/><use xlink:href="#S" transform="matrix(1,0,0,1,990.6666666666661,673.8818371586433) translate(0.0049999999999954525 14.222222222222223)"/><use xlink:href="#T" transform="matrix(1,0,0,1,990.6666666666661,673.8818371586433) translate(65.14080246913579 14.222222222222223)"/><path d="M316.15 648.84h-4.98v-1h4.98zm14.94 0h-9.97v-1h9.96zm14.92 0h-9.95v-1H346zm14.94 0H351v-1h9.96zm14.94 0h-9.96v-1h9.96zm14.94 0h-9.96v-1h9.96zm14.94 0h-9.96v-1h9.96zm14.94 0h-9.96v-1h9.96zm14.94 0h-9.96v-1h9.96zm14.94 0h-9.96v-1h9.96zm14.94 0h-9.96v-1h9.96zm14.94 0h-9.96v-1h9.96zm149.4 0h-9.97v-1h9.97zm14.93 0h-9.95v-1h9.96zm14.95 0h-9.96v-1h9.95zm14.94 0h-9.97v-1h9.96zm14.93 0h-9.96v-1h9.96zm14.94 0h-9.96v-1h9.97zm14.94 0h-9.95v-1h9.96zm14.95 0h-9.97v-1h9.97zm14.93 0h-9.96v-1h9.96zm14.94 0h-9.96v-1h9.96zm9.96 0h-4.98v-1h4.98z" stroke="#3a414a" stroke-width=".05" fill="#3a414a"/><path d="M311.18 648.84h-.5v-1h.5z" fill="#3a414a"/><path d="M311.2 648.87h-.56v-1.05h.56zm-.5-1v.95h.45v-.95z" stroke="#3a414a" stroke-width=".05" fill="#3a414a"/><path d="M789.05 648.34l-14.27 4.64v-9.27z" fill="#3a414a"/><path d="M790.67 648.34l-16.4 5.33v-10.65zm-15.4 3.95l12.16-3.96-12.15-3.94z" stroke="#3a414a" stroke-width=".05" fill="#3a414a"/><use xlink:href="#U" transform="matrix(1,0,0,1,483.1358024691352,627.0106313858389) translate(6.967962962962943 14.222222222222223)"/><use xlink:href="#V" transform="matrix(1,0,0,1,483.1358024691352,627.0106313858389) translate(70.07907407407407 14.222222222222223)"/><use xlink:href="#W" transform="matrix(1,0,0,1,483.1358024691352,627.0106313858389) translate(0.0049999999999954525 35.55555555555556)"/><use xlink:href="#X" transform="matrix(1,0,0,1,483.1358024691352,627.0106313858389) translate(4.943271604938268 35.55555555555556)"/><use xlink:href="#Y" transform="matrix(1,0,0,1,483.1358024691352,627.0106313858389) translate(74.8691975308642 35.55555555555556)"/><path d="M559.57 710.34l7.7 1.85 7.32 3.02 6.75 4.14 6.03 5.15 5.14 6.04 4.14 6.75 3.04 7.32 1.85 7.7.62 7.88v106.9l.6 7.75 1.82 7.56 2.96 7.18 4.06 6.63 5.05 5.9 5.9 5.06 6.63 4.06 7.17 2.97 7.55 1.8 7.77.6h50.4v1h-50.45l-7.88-.6-7.7-1.86-7.33-3.03-6.76-4.13-6.02-5.15-5.15-6.03-4.13-6.76-3.03-7.32-1.85-7.7-.63-7.9V760.25l-.6-7.76-1.83-7.55-2.97-7.18-4.06-6.62-5.03-5.9-5.9-5.05-6.63-4.06-7.18-2.97-7.55-1.82-7.75-.6H311.17v-1H551.7zm873.3 156.8l-.63 7.87-1.85 7.72-3.04 7.32-4.14 6.75-5.15 6.02-6.03 5.15-6.75 4.14-7.34 3.04-7.7 1.85-7.88.6H1066.6v-1h315.74l7.76-.6 7.56-1.8 7.17-3 6.62-4.04 5.9-5.05 5.05-5.9 4.06-6.62 2.97-7.17 1.82-7.55.6-7.76V700.92h1z" stroke="#3a414a" stroke-width=".05" fill="#3a414a"/><path d="M311.18 710.72h-.5v-1h.5z" fill="#3a414a"/><path d="M311.2 710.75h-.56v-1.05h.56zm-.5-1v.95h.45v-.95z" stroke="#3a414a" stroke-width=".05" fill="#3a414a"/><path d="M1437 700.43h-9.28l4.64-14.26z" fill="#3a414a"/><path d="M1437.68 700.93h-10.64l5.32-16.38zm-9.27-1h7.9l-3.94-12.14z" stroke="#3a414a" stroke-width=".05" fill="#3a414a"/><use xlink:href="#Z" transform="matrix(1,0,0,1,702.102563180112,874.4444444444443) translate(128.02969135802468 14.222222222222223)"/><use xlink:href="#aa" transform="matrix(1,0,0,1,702.102563180112,874.4444444444443) translate(188.17783950617283 14.222222222222223)"/><use xlink:href="#ab" transform="matrix(1,0,0,1,702.102563180112,874.4444444444443) translate(113.28895061728394 35.55555555555556)"/><use xlink:href="#ac" transform="matrix(1,0,0,1,702.102563180112,874.4444444444443) translate(178.37537037037038 35.55555555555556)"/><use xlink:href="#ad" transform="matrix(1,0,0,1,702.102563180112,874.4444444444443) translate(0.0049999999999954525 56.88888888888889)"/><use xlink:href="#ae" transform="matrix(1,0,0,1,702.102563180112,874.4444444444443) translate(26.572901234567897 56.88888888888889)"/><use xlink:href="#af" transform="matrix(1,0,0,1,702.102563180112,874.4444444444443) translate(93.04203703703703 56.88888888888889)"/><use xlink:href="#ag" transform="matrix(1,0,0,1,702.102563180112,874.4444444444443) translate(174.8691975308642 56.88888888888889)"/><use xlink:href="#ah" transform="matrix(1,0,0,1,702.102563180112,874.4444444444443) translate(192.5975925925926 56.88888888888889)"/><use xlink:href="#ai" transform="matrix(1,0,0,1,702.102563180112,874.4444444444443) translate(281.7333950617284 56.88888888888889)"/><use xlink:href="#aj" transform="matrix(1,0,0,1,702.102563180112,874.4444444444443) translate(92.59759259259258 78.22222222222223)"/><use xlink:href="#ak" transform="matrix(1,0,0,1,702.102563180112,874.4444444444443) translate(121.14080246913579 78.22222222222223)"/><use xlink:href="#al" transform="matrix(1,0,0,1,702.102563180112,874.4444444444443) translate(152.64697530864197 78.22222222222223)"/><use xlink:href="#am" transform="matrix(1,0,0,1,702.102563180112,874.4444444444443) translate(203.9062345679012 78.22222222222223)"/><path d="M1850.67 185.1h120v120h-120v-120z" stroke="#000" stroke-opacity="0" fill="url(#an)"/><path d="M1931.8 268.22c5.07 0 9.1 4.04 9.1 9.06 0 4.95-4.03 9-9.1 9-5 0-9.13-4.05-9.13-9 0-2.63 1.2-5.02 3-6.67l-5.25-8.73-.08.08h-17.5c-.65 0-1.3-.4-1.62-1l-8.7-15c-.4-.57-.4-1.23 0-1.8l8.54-14.76-4.84-8c-.88.32-1.85.48-2.9.48-5 0-9.1-4.03-9.1-8.98 0-5.03 4.1-9.07 9.1-9.07s9.1 4.04 9.1 9.07c0 2.56-1.12 4.95-2.97 6.6l5.24 8.65h15.64c.64 0 1.3.4 1.6 1l8.72 15c.32.57.32 1.23 0 1.8l-7.58 13.03 5.8 9.73c.97-.32 1.94-.48 2.9-.48zm-12.6-10.06l7.67-13.1-7.66-13.12h-15.23l-7.66 13.1 7.67 13.12zm-29.83 10.55l4.36 6.36h16.04v3.7h-17c-.66 0-1.22-.32-1.63-.8l-5.24-7.6c-.64.16-1.3.25-2 .25-5 0-9.13-4.03-9.13-9.06 0-2.3.9-4.37 2.34-5.94l-5.55-9.64c-.32-.58-.32-1.24 0-1.82l8.95-15.33 3.22 1.82-8.38 14.43 4.84 8.24c1.13-.5 2.42-.75 3.7-.75 5 0 9.12 4.04 9.12 9 0 2.96-1.45 5.5-3.63 7.16zm56.93-33.87l5.4 9.3c.33.6.33 1.25 0 1.83l-7.74 13.35-3.3-1.88 7.25-12.37-5-8.5c-.7.17-1.52.34-2.32.34-5 0-9.12-4.05-9.12-9.08 0-2.4.97-4.6 2.6-6.26l-4.53-6.52h-16.05v-3.7h17.02c.64 0 1.2.32 1.6.82l5.1 7.34c1.04-.42 2.17-.66 3.38-.66 5 0 9.1 4.03 9.1 8.98 0 2.9-1.36 5.36-3.38 7zm-62.4 31.98c2.9 0 5.3-2.3 5.3-5.26 0-2.9-2.4-5.28-5.3-5.28-2.92 0-5.34 2.4-5.34 5.28 0 2.97 2.42 5.27 5.33 5.27zm9.42-48.62c3 0 5.32-2.4 5.32-5.28 0-2.97-2.34-5.36-5.32-5.36-2.9 0-5.32 2.4-5.32 5.36 0 2.88 2.42 5.28 5.32 5.28zm47.26 14.92c2.9 0 5.32-2.3 5.32-5.28 0-2.88-2.42-5.28-5.32-5.28-2.9 0-5.33 2.4-5.33 5.28 0 2.97 2.42 5.28 5.33 5.28zm-8.8 49.46c3 0 5.33-2.4 5.33-5.27 0-2.98-2.33-5.37-5.3-5.37-2.92 0-5.34 2.4-5.34 5.36 0 2.87 2.42 5.26 5.33 5.26z" stroke="#000" stroke-opacity="0" fill="#fff"/><use xlink:href="#e" transform="matrix(1,0,0,1,1820.666666666666,314.111111111111) translate(5.574999999999989 14.4)"/><use xlink:href="#ao" transform="matrix(1,0,0,1,1820.666666666666,314.111111111111) translate(76.52499999999999 14.4)"/><path d="M510.67 487.1c0 33.13-26.88 60-60 60-33.12 0-60-26.87-60-60 0-33.1 26.88-60 60-60 33.12 0 60 26.9 60 60zm-5.52 0c0-30.1-24.36-54.47-54.48-54.47-30.12 0-54.48 24.36-54.48 54.48 0 30.13 24.35 54.5 54.47 54.5 30.12 0 54.48-24.37 54.48-54.5zM482 458.08v36.48c0 12.36-6.5 35.88-31.33 35.88-12.96 0-22.44-6.72-27.6-19.32-2.76-6.7-3.48-13.3-3.72-16.67l5.52-.36c.12 2.4.72 8.76 3.24 15 4.33 10.56 11.9 15.84 22.57 15.84 25.56 0 25.92-29.03 25.92-30.35v-34.68l-25.93-10.32-25.92 10.32v20.04h-5.4v-21.83c0-1.08.6-2.16 1.68-2.52l28.68-11.52c.6-.24 1.33-.24 1.93 0l28.68 11.52c1.1.36 1.7 1.44 1.7 2.52zm-53.17 36.24h5.52v.97c.36 2.04 4.32 18.72 16.32 18.72s15.96-16.7 16.32-18.73V468.5l-16.33-6.6-16.32 6.6v11.4h-5.52v-13.2c0-1.2.72-2.15 1.68-2.63l19.2-7.68c.6-.25 1.33-.25 1.93 0l19.2 7.67c.96.48 1.68 1.44 1.68 2.64v28.8c0 .13 0 .37-.1.5-.13.95-4.33 23.4-21.73 23.4s-21.6-22.45-21.84-23.4v-.5zm12.72 2.77l7.32-7.2H402.9v-5.52h45.97l-7.32-7.2 3.84-3.96 12 12c1.07 1.07 1.07 2.75 0 3.83l-12 12z" stroke="#000" stroke-opacity="0" fill="#4d27aa"/><use xlink:href="#ap" transform="matrix(1,0,0,1,360.66666666666606,556.111111111111) translate(0.5999999999999943 14.4)"/><use xlink:href="#aq" transform="matrix(1,0,0,1,360.66666666666606,556.111111111111) translate(66.55 14.4)"/><use xlink:href="#ar" transform="matrix(1,0,0,1,360.66666666666606,556.111111111111) translate(142.45000000000002 14.4)"/><use xlink:href="#as" transform="matrix(1,0,0,1,360.66666666666606,556.111111111111) translate(54.525 36)"/><path d="M1330.67 684.55c0 33.12-26.88 60-60 60-33.12 0-60-26.88-60-60 0-33.12 26.88-60 60-60 33.12 0 60 26.88 60 60zm-5.52 0c0-30.12-24.36-54.48-54.48-54.48-30.12 0-54.48 24.36-54.48 54.48 0 30.12 24.35 54.48 54.47 54.48 30.12 0 54.48-24.36 54.48-54.48zM1302 655.5V692c0 12.35-6.5 35.87-31.33 35.87-12.96 0-22.44-6.72-27.6-19.32-2.76-6.72-3.48-13.32-3.72-16.68l5.52-.36c.12 2.4.72 8.77 3.24 15 4.33 10.57 11.9 15.85 22.57 15.85 25.56 0 25.92-29.04 25.92-30.36v-34.7l-25.93-10.3-25.92 10.3v20.05h-5.4V655.5c0-1.07.6-2.15 1.68-2.5l28.68-11.53c.6-.24 1.33-.24 1.93 0L1300.3 653c1.1.35 1.7 1.43 1.7 2.5zm-53.17 36.25h5.52v.96c.36 2.05 4.32 18.73 16.32 18.73s15.96-16.68 16.32-18.72v-26.75l-16.33-6.6-16.32 6.6v11.4h-5.52v-13.2c0-1.2.72-2.16 1.68-2.64l19.2-7.67c.6-.24 1.33-.24 1.93 0l19.2 7.68c.96.5 1.68 1.45 1.68 2.65v28.8c0 .12 0 .36-.1.48-.13.96-4.33 23.4-21.73 23.4s-21.6-22.44-21.84-23.4v-.48zm12.72 2.76l7.32-7.2h-45.96v-5.5h45.97l-7.32-7.2 3.84-3.97 12 12c1.07 1.08 1.07 2.76 0 3.84l-12 12z" stroke="#000" stroke-opacity="0" fill="#4d27aa"/><g><use xlink:href="#at" transform="matrix(1,0,0,1,1180.666666666666,753.5485038253099) translate(4.099999999999994 14.4)"/><use xlink:href="#au" transform="matrix(1,0,0,1,1180.666666666666,753.5485038253099) translate(74.05 14.4)"/><use xlink:href="#ar" transform="matrix(1,0,0,1,1180.666666666666,753.5485038253099) translate(138.95000000000002 14.4)"/><use xlink:href="#as" transform="matrix(1,0,0,1,1180.666666666666,753.5485038253099) translate(54.525 36)"/></g><path d="M1850.67 487.1c0 33.13-26.88 60-60 60-33.12 0-60-26.87-60-60 0-33.1 26.88-60 60-60 33.12 0 60 26.9 60 60zm-5.52 0c0-30.1-24.36-54.47-54.48-54.47-30.12 0-54.48 24.36-54.48 54.48 0 30.13 24.35 54.5 54.47 54.5 30.12 0 54.48-24.37 54.48-54.5zM1822 458.08v36.48c0 12.36-6.5 35.88-31.33 35.88-12.96 0-22.44-6.72-27.6-19.32-2.76-6.7-3.48-13.3-3.72-16.67l5.52-.36c.12 2.4.72 8.76 3.24 15 4.33 10.56 11.9 15.84 22.57 15.84 25.56 0 25.92-29.03 25.92-30.35v-34.68l-25.93-10.32-25.92 10.32v20.04h-5.4v-21.83c0-1.08.6-2.16 1.68-2.52l28.68-11.52c.6-.24 1.33-.24 1.93 0l28.68 11.52c1.1.36 1.7 1.44 1.7 2.52zm-53.17 36.24h5.52v.97c.36 2.04 4.32 18.72 16.32 18.72s15.96-16.7 16.32-18.73V468.5l-16.33-6.6-16.32 6.6v11.4h-5.52v-13.2c0-1.2.72-2.15 1.68-2.63l19.2-7.68c.6-.25 1.33-.25 1.93 0l19.2 7.67c.96.48 1.68 1.44 1.68 2.64v28.8c0 .13 0 .37-.1.5-.13.95-4.33 23.4-21.73 23.4s-21.6-22.45-21.84-23.4v-.5zm12.72 2.77l7.32-7.2h-45.96v-5.52h45.97l-7.32-7.2 3.84-3.96 12 12c1.07 1.07 1.07 2.75 0 3.83l-12 12z" stroke="#000" stroke-opacity="0" fill="#4d27aa"/><g><use xlink:href="#av" transform="matrix(1,0,0,1,1700.666666666666,556.111111111111) translate(20.07499999999999 14.4)"/><use xlink:href="#ar" transform="matrix(1,0,0,1,1700.666666666666,556.111111111111) translate(122.975 14.4)"/><use xlink:href="#aw" transform="matrix(1,0,0,1,1700.666666666666,556.111111111111) translate(50.025 36)"/></g><path d="M1331.17 684.55h183.1" stroke="#3a414a" fill="none"/><path d="M1331.18 685.05h-.53l.02-.5-.02-.5h.53z" stroke="#3a414a" stroke-width=".05" fill="#3a414a"/><path d="M1529.05 684.55l-14.27 4.63v-9.27z" stroke="#3a414a" fill="#3a414a"/><path d="M251.17 616.6h-1v-62.9h1zm124.16-140.04H300.7l-7.78.6-7.55 1.82-7.18 2.97-6.63 4.06-5.9 5.06-5.05 5.9-4.06 6.63-2.97 7.16-1.82 7.56-.6 7.76v6.3h-1v-6.34l.6-7.88 1.86-7.7 3.03-7.33 4.14-6.76 5.16-6.02 6.02-5.15 6.76-4.14 7.32-3.03 7.7-1.85 7.9-.62h74.67z" stroke="#3a414a" stroke-width=".05" fill="#3a414a"/><path d="M251.17 617.1h-1v-.5h1z" fill="#3a414a"/><path d="M251.2 617.14h-1.06v-.57h1.05zm-1-.52v.47h.94v-.48z" stroke="#3a414a" stroke-width=".05" fill="#3a414a"/><path d="M390.1 476.06l-14.27 4.63v-9.28z" fill="#3a414a"/><path d="M391.72 476.06l-16.4 5.32v-10.64zm-15.4 3.95l12.16-3.94-12.15-3.95z" stroke="#3a414a" stroke-width=".05" fill="#3a414a"/><g><use xlink:href="#ax" transform="matrix(1,0,0,1,182.17283950617224,532.3765472282935) translate(0.0049999999999954525 14.222222222222223)"/><use xlink:href="#ay" transform="matrix(1,0,0,1,182.17283950617224,532.3765472282935) translate(52.202530864197534 14.222222222222223)"/><use xlink:href="#az" transform="matrix(1,0,0,1,182.17283950617224,532.3765472282935) translate(82.72104938271606 14.222222222222223)"/></g><path d="M450.67 426.6V287.1a50 50 0 0 1 50-50h53.6" stroke="#3a414a" fill="none"/><path d="M451.17 427.13l-.5-.02-.5.03v-.53h1z" stroke="#3a414a" stroke-width=".05" fill="#3a414a"/><path d="M569.05 237.1l-14.27 4.65v-9.27z" stroke="#3a414a" fill="#3a414a"/><path d="M1591.17 624.05h-1v-57.03h1zm123.1-136.44h-73.58l-7.78.62-7.55 1.8-7.17 3-6.63 4.05-5.9 5.04-5.05 5.92-4.06 6.62-2.97 7.18-1.82 7.55-.6 7.76v8.56h-1v-8.6l.6-7.9 1.86-7.7 3.03-7.32 4.14-6.75 5.16-6.03 6.02-5.14 6.76-4.15 7.32-3.02 7.7-1.85 7.9-.62h73.62z" stroke="#3a414a" stroke-width=".05" fill="#3a414a"/><path d="M1591.17 624.55h-1v-.5h1z" fill="#3a414a"/><path d="M1591.2 624.57h-1.06V624h1.05zm-1-.5v.45h.94v-.46z" stroke="#3a414a" stroke-width=".05" fill="#3a414a"/><path d="M1729.05 487.1l-14.27 4.65v-9.27z" fill="#3a414a"/><path d="M1730.67 487.1l-16.4 5.33V481.8zm-15.4 3.96l12.16-3.95-12.15-3.94z" stroke="#3a414a" stroke-width=".05" fill="#3a414a"/><g><use xlink:href="#aA" transform="matrix(1,0,0,1,1483.7777777777771,545.6870163627599) translate(0.0049999999999954525 14.222222222222223)"/><use xlink:href="#aB" transform="matrix(1,0,0,1,1483.7777777777771,545.6870163627599) translate(75.90623456790124 14.222222222222223)"/><use xlink:href="#aC" transform="matrix(1,0,0,1,1483.7777777777771,545.6870163627599) translate(129.14080246913582 14.222222222222223)"/><use xlink:href="#aD" transform="matrix(1,0,0,1,1483.7777777777771,545.6870163627599) translate(150.77043209876544 14.222222222222223)"/><use xlink:href="#aE" transform="matrix(1,0,0,1,1483.7777777777771,545.6870163627599) translate(182.27660493827162 14.222222222222223)"/></g><path d="M1790.67 426.6V288.74a43.62 43.62 0 0 1 43.6-43.62" stroke="#3a414a" fill="none"/><path d="M1791.17 427.13l-.5-.02-.5.03v-.53h1z" stroke="#3a414a" stroke-width=".05" fill="#3a414a"/><path d="M1849.05 245.1l-14.27 4.65v-9.27z" stroke="#3a414a" fill="#3a414a"/><path d="M1972.45 458H1859.2v-1h113.25zm284.83-212.9l6.1 1.47 5.8 2.4 5.36 3.28 4.77 4.08 4.1 4.77 3.27 5.35 2.4 5.8 1.47 6.1.5 6.24v122.93l-.63 7.88-1.84 7.72-3.04 7.32-4.14 6.75-5.14 6.02-6.03 5.15-6.75 4.14-7.32 3.04-7.7 1.85-7.88.6h-61.13v-1h61.1l7.75-.6 7.55-1.8 7.18-3 6.62-4.05 5.9-5.04 5.05-5.9 4.06-6.62 2.97-7.17 1.82-7.55.6-7.76V284.62l-.47-6.12-1.43-5.94-2.34-5.65-3.2-5.2-3.98-4.66-4.65-3.98-5.22-3.2-5.65-2.34-5.95-1.43-6.14-.5.07-1z" stroke="#3a414a" stroke-width=".05" fill="#3a414a"/><path d="M2251.04 245.6h-.72l.32-.75-.1-.24h.5z" fill="#3a414a"/><path d="M2251.07 245.64h-.8l.34-.8-.1-.25h.57zm-.5-1l.1.2-.3.75h.64v-.96z" stroke="#3a414a" stroke-width=".05" fill="#3a414a"/><path d="M1858.7 462.15l-14.28-4.64 14.27-4.63z" fill="#3a414a"/><path d="M1859.2 462.83l-16.4-5.32 16.4-5.3zm-13.16-5.32l12.15 3.96v-7.9z" stroke="#3a414a" stroke-width=".05" fill="#3a414a"/><g><use xlink:href="#aF" transform="matrix(1,0,0,1,1972.4531236489013,446.843588337216) translate(0.0049999999999954525 14.222222222222223)"/><use xlink:href="#aB" transform="matrix(1,0,0,1,1972.4531236489013,446.843588337216) translate(68.99265432098764 14.222222222222223)"/><use xlink:href="#aC" transform="matrix(1,0,0,1,1972.4531236489013,446.843588337216) translate(122.22722222222222 14.222222222222223)"/><use xlink:href="#aG" transform="matrix(1,0,0,1,1972.4531236489013,446.843588337216) translate(143.85685185185184 14.222222222222223)"/></g><path d="M1839.55 522.5h25.3a50 50 0 0 1 50 50v62.05a50 50 0 0 0 50 50h9.43" stroke="#3a414a" fill="none"/><path d="M1839.57 523h-.88l.7-1h.17z" stroke="#3a414a" stroke-width=".05" fill="#3a414a"/><path d="M1989.05 684.55l-14.27 4.63v-9.27z" stroke="#3a414a" fill="#3a414a"/><path d="M2204.23 257.82l-6.24 10.92c-.5.84-1.45 1.36-2.4 1.36h-24.25c-.96 0-1.8-.52-2.28-1.36l-12.12-21.1c-.48-.85-.48-1.9 0-2.74l12.12-21.2c.48-.85 1.32-1.37 2.28-1.37h24.24c.95 0 1.9.52 2.4 1.36l4.07 7.24-4.68 2.73-3.37-5.78h-21l-10.56 18.37 10.56 18.37h21l5.52-9.55zm-22.32-10.2v-5.55h59.4l-11.5-11.66 3.83-3.87 16.2 16.38c1.08 1.06 1.08 2.84 0 3.9l-16.2 16.37-3.84-3.88 11.5-11.67zm-34.07-.72l.72 5.46-17.16 2.2-.73-5.46zm79.32-31.4l-13.8 10.4-3.36-4.4 13.8-10.4zm-75.36 13.44l-2.17 5.04-15.96-6.6 2.16-5.16zm-12.13 45.78l13.8-10.4 3.24 4.42-13.8 10.4zm66.72-77.07l-6.73 15.96-5.04-2.2 6.72-15.85zm-46.1 94.92l6.73-15.96 5.04 2.22-6.72 15.85zm3.85-77.28l-4.32 3.35L2149.4 205l4.3-3.36zm38.52 59.63l4.32-3.36 10.43 13.65-4.32 3.36zm-17.64 5.57l5.52-.63 2.04 17-5.4.74zm-3.36-70.77l-5.4.63-2.16-17 5.4-.75z" stroke="#000" stroke-opacity="0" fill="#b0084d"/><path d="M2218.87 245c0 19.94-16.05 36.13-35.82 36.13-19.78 0-35.82-16.2-35.82-36.12 0-19.93 16.04-36.1 35.82-36.1 19.77 0 35.82 16.17 35.82 36.1z" stroke="#000" stroke-opacity="0" fill-opacity="0"/><g><use xlink:href="#av" transform="matrix(1,0,0,1,2100.666666666666,306.611111111111) translate(20.099999999999994 14.4)"/><use xlink:href="#aH" transform="matrix(1,0,0,1,2100.666666666666,306.611111111111) translate(123 14.4)"/></g><path d="M1971.17 245.1h159.67" stroke="#3a414a" fill="none"/><path d="M1971.18 245.6h-.5v-1h.5z" stroke="#3a414a" stroke-width=".05" fill="#3a414a"/><path d="M2145.6 245.1l-14.26 4.65v-9.27z" stroke="#3a414a" fill="#3a414a"/><path d="M2111.17 684.55h122.6" stroke="#3a414a" fill="none"/><path d="M2111.18 685.05h-.5v-1h.5z" stroke="#3a414a" stroke-width=".05" fill="#3a414a"/><path d="M2248.55 684.55l-14.27 4.63v-9.27z" stroke="#3a414a" fill="#3a414a"/><path d="M2250.67 630.55a6 6 0 0 1 6-6h148a6 6 0 0 1 6 6v108a6 6 0 0 1-6 6h-148a6 6 0 0 1-6-6z" stroke="#3a414a" fill="#fff"/><g><use xlink:href="#aI" transform="matrix(1,0,0,1,2255.666666666666,629.5485038253099) translate(12.777777777777779 45.27777777777778)"/><use xlink:href="#aJ" transform="matrix(1,0,0,1,2255.666666666666,629.5485038253099) translate(23.179012345679013 71.94444444444446)"/></g><path d="M691.17 237.1a39.5 39.5 0 0 1 39.5 39.5v128.15a50 50 0 0 1-50 50h-163.1" stroke="#3a414a" fill="none"/><path d="M691.18 237.6h-.5v-1h.5z" stroke="#3a414a" stroke-width=".05" fill="#3a414a"/><path d="M502.8 454.75l14.28-4.63v9.27z" stroke="#3a414a" fill="#3a414a"/><path d="M1318.57 515.68l7.7 1.85 7.32 3.04 6.75 4.13 6.03 5.15 5.14 6.03 4.14 6.75 3.04 7.33 1.85 7.7.62 7.88v34.4l.6 7.78 1.82 7.55 2.96 7.17 4.06 6.63 5.05 5.9 5.9 5.05 6.63 4.06 7.17 2.97 7.55 1.8 7.77.62h119.47v1h-119.52l-7.88-.62-7.7-1.85-7.33-3.03-6.76-4.14-6.02-5.15-5.15-6.02-4.13-6.76-3.03-7.32-1.85-7.7-.63-7.9v-34.4l-.6-7.76-1.83-7.55-2.97-7.18-4.06-6.63-5.03-5.9-5.9-5.05-6.63-4.06-7.18-2.97-7.55-1.83-7.75-.6h-115v-1h115.04zm-798.7.38v-1H972.9v1z" stroke="#3a414a" stroke-width=".05" fill="#3a414a"/><path d="M519.37 520.2l-14.27-4.64 14.27-4.63z" fill="#3a414a"/><path d="M519.87 520.9l-16.38-5.34 16.37-5.32zm-13.15-5.34l12.15 3.95v-7.88z" stroke="#3a414a" stroke-width=".05" fill="#3a414a"/><path d="M1530.67 650.47h-.52v-1h.52z" fill="#3a414a"/><path d="M1530.7 650.5h-.57v-1.05h.56zm-.52-1v.95h.46v-.95z" stroke="#3a414a" stroke-width=".05" fill="#3a414a"/><g><use xlink:href="#aK" transform="matrix(1,0,0,1,972.8984367048765,504.8952512784044) translate(0.0049999999999954525 14.222222222222223)"/><use xlink:href="#aL" transform="matrix(1,0,0,1,972.8984367048765,504.8952512784044) translate(135.1654938271605 14.222222222222223)"/><use xlink:href="#aM" transform="matrix(1,0,0,1,972.8984367048765,504.8952512784044) translate(163.70870370370372 14.222222222222223)"/></g><defs><path fill="#248814" d="M137 0h-34L2-248h35l83 218 83-218h36" id="aN"/><path fill="#248814" d="M24-231v-30h32v30H24zM24 0v-190h32V0H24" id="aO"/><path fill="#248814" d="M114-163C36-179 61-72 57 0H25l-1-190h30c1 12-1 29 2 39 6-27 23-49 58-41v29" id="aP"/><path fill="#248814" d="M59-47c-2 24 18 29 38 22v24C64 9 27 4 27-40v-127H5v-23h24l9-43h21v43h35v23H59v120" id="aQ"/><path fill="#248814" d="M84 4C-5 8 30-112 23-190h32v120c0 31 7 50 39 49 72-2 45-101 50-169h31l1 190h-30c-1-10 1-25-2-33-11 22-28 36-60 37" id="aR"/><path fill="#248814" d="M141-36C126-15 110 5 73 4 37 3 15-17 15-53c-1-64 63-63 125-63 3-35-9-54-41-54-24 1-41 7-42 31l-33-3c5-37 33-52 76-52 45 0 72 20 72 64v82c-1 20 7 32 28 27v20c-31 9-61-2-59-35zM48-53c0 20 12 33 32 33 41-3 63-29 60-74-43 2-92-5-92 41" id="aS"/><path fill="#248814" d="M24 0v-261h32V0H24" id="aT"/><g id="a"><use transform="matrix(0.05,0,0,0.05,0,0)" xlink:href="#aN"/><use transform="matrix(0.05,0,0,0.05,11.65,0)" xlink:href="#aO"/><use transform="matrix(0.05,0,0,0.05,15.600000000000001,0)" xlink:href="#aP"/><use transform="matrix(0.05,0,0,0.05,21.55,0)" xlink:href="#aQ"/><use transform="matrix(0.05,0,0,0.05,26.55,0)" xlink:href="#aR"/><use transform="matrix(0.05,0,0,0.05,36.55,0)" xlink:href="#aS"/><use transform="matrix(0.05,0,0,0.05,46.55,0)" xlink:href="#aT"/></g><path fill="#248814" d="M30-248c87 1 191-15 191 75 0 78-77 80-158 76V0H30v-248zm33 125c57 0 124 11 124-50 0-59-68-47-124-48v98" id="aU"/><path fill="#248814" d="M108 0H70L1-190h34L89-25l56-165h34" id="aV"/><path fill="#248814" d="M100-194c63 0 86 42 84 106H49c0 40 14 67 53 68 26 1 43-12 49-29l28 8c-11 28-37 45-77 45C44 4 14-33 15-96c1-61 26-98 85-98zm52 81c6-60-76-77-97-28-3 7-6 17-6 28h103" id="aW"/><g id="b"><use transform="matrix(0.05,0,0,0.05,0,0)" xlink:href="#aU"/><use transform="matrix(0.05,0,0,0.05,12,0)" xlink:href="#aP"/><use transform="matrix(0.05,0,0,0.05,17.95,0)" xlink:href="#aO"/><use transform="matrix(0.05,0,0,0.05,21.9,0)" xlink:href="#aV"/><use transform="matrix(0.05,0,0,0.05,30.899999999999995,0)" xlink:href="#aS"/><use transform="matrix(0.05,0,0,0.05,40.9,0)" xlink:href="#aQ"/><use transform="matrix(0.05,0,0,0.05,45.9,0)" xlink:href="#aW"/></g><path fill="#248814" d="M212-179c-10-28-35-45-73-45-59 0-87 40-87 99 0 60 29 101 89 101 43 0 62-24 78-52l27 14C228-24 195 4 139 4 59 4 22-46 18-125c-6-104 99-153 187-111 19 9 31 26 39 46" id="aX"/><path fill="#248814" d="M100-194c62-1 85 37 85 99 1 63-27 99-86 99S16-35 15-95c0-66 28-99 85-99zM99-20c44 1 53-31 53-75 0-43-8-75-51-75s-53 32-53 75 10 74 51 75" id="aY"/><path fill="#248814" d="M85-194c31 0 48 13 60 33l-1-100h32l1 261h-30c-2-10 0-23-3-31C134-8 116 4 85 4 32 4 16-35 15-94c0-66 23-100 70-100zm9 24c-40 0-46 34-46 75 0 40 6 74 45 74 42 0 51-32 51-76 0-42-9-74-50-73" id="aZ"/><g id="c"><use transform="matrix(0.05,0,0,0.05,0,0)" xlink:href="#aX"/><use transform="matrix(0.05,0,0,0.05,12.950000000000001,0)" xlink:href="#aT"/><use transform="matrix(0.05,0,0,0.05,16.900000000000002,0)" xlink:href="#aY"/><use transform="matrix(0.05,0,0,0.05,26.900000000000002,0)" xlink:href="#aR"/><use transform="matrix(0.05,0,0,0.05,36.900000000000006,0)" xlink:href="#aZ"/></g><linearGradient gradientUnits="userSpaceOnUse" id="d" x1="790.67" y1="744.55" x2="910.67" y2="624.55"><stop offset="0%" stop-color="#2e27ad"/><stop offset="100%" stop-color="#527fff"/></linearGradient><path d="M205 0l-28-72H64L36 0H1l101-248h38L239 0h-34zm-38-99l-47-123c-12 45-31 82-46 123h93" id="ba"/><path d="M210-169c-67 3-38 105-44 169h-31v-121c0-29-5-50-35-48C34-165 62-65 56 0H25l-1-190h30c1 10-1 24 2 32 10-44 99-50 107 0 11-21 27-35 58-36 85-2 47 119 55 194h-31v-121c0-29-5-49-35-48" id="bb"/><path d="M141-36C126-15 110 5 73 4 37 3 15-17 15-53c-1-64 63-63 125-63 3-35-9-54-41-54-24 1-41 7-42 31l-33-3c5-37 33-52 76-52 45 0 72 20 72 64v82c-1 20 7 32 28 27v20c-31 9-61-2-59-35zM48-53c0 20 12 33 32 33 41-3 63-29 60-74-43 2-92-5-92 41" id="bc"/><path d="M9 0v-24l116-142H16v-24h144v24L44-24h123V0H9" id="bd"/><path d="M100-194c62-1 85 37 85 99 1 63-27 99-86 99S16-35 15-95c0-66 28-99 85-99zM99-20c44 1 53-31 53-75 0-43-8-75-51-75s-53 32-53 75 10 74 51 75" id="be"/><path d="M117-194c89-4 53 116 60 194h-32v-121c0-31-8-49-39-48C34-167 62-67 57 0H25l-1-190h30c1 10-1 24 2 32 11-22 29-35 61-36" id="bf"/><g id="e"><use transform="matrix(0.05,0,0,0.05,0,0)" xlink:href="#ba"/><use transform="matrix(0.05,0,0,0.05,12,0)" xlink:href="#bb"/><use transform="matrix(0.05,0,0,0.05,26.950000000000003,0)" xlink:href="#bc"/><use transform="matrix(0.05,0,0,0.05,36.95,0)" xlink:href="#bd"/><use transform="matrix(0.05,0,0,0.05,45.95,0)" xlink:href="#be"/><use transform="matrix(0.05,0,0,0.05,55.95,0)" xlink:href="#bf"/></g><path d="M30-248c118-7 216 8 213 122C240-48 200 0 122 0H30v-248zM63-27c89 8 146-16 146-99s-60-101-146-95v194" id="bg"/><path d="M96-169c-40 0-48 33-48 73s9 75 48 75c24 0 41-14 43-38l32 2c-6 37-31 61-74 61-59 0-76-41-82-99-10-93 101-131 147-64 4 7 5 14 7 22l-32 3c-4-21-16-35-41-35" id="bh"/><path d="M84 4C-5 8 30-112 23-190h32v120c0 31 7 50 39 49 72-2 45-101 50-169h31l1 190h-30c-1-10 1-25-2-33-11 22-28 36-60 37" id="bi"/><path d="M100-194c63 0 86 42 84 106H49c0 40 14 67 53 68 26 1 43-12 49-29l28 8c-11 28-37 45-77 45C44 4 14-33 15-96c1-61 26-98 85-98zm52 81c6-60-76-77-97-28-3 7-6 17-6 28h103" id="bj"/><path d="M59-47c-2 24 18 29 38 22v24C64 9 27 4 27-40v-127H5v-23h24l9-43h21v43h35v23H59v120" id="bk"/><path d="M160-131c35 5 61 23 61 61C221 17 115-2 30 0v-248c76 3 177-17 177 60 0 33-19 50-47 57zm-97-11c50-1 110 9 110-42 0-47-63-36-110-37v79zm0 115c55-2 124 14 124-45 0-56-70-42-124-44v89" id="bl"/><g id="f"><use transform="matrix(0.05,0,0,0.05,0,0)" xlink:href="#bg"/><use transform="matrix(0.05,0,0,0.05,12.950000000000001,0)" xlink:href="#be"/><use transform="matrix(0.05,0,0,0.05,22.950000000000003,0)" xlink:href="#bh"/><use transform="matrix(0.05,0,0,0.05,31.950000000000003,0)" xlink:href="#bi"/><use transform="matrix(0.05,0,0,0.05,41.95,0)" xlink:href="#bb"/><use transform="matrix(0.05,0,0,0.05,56.900000000000006,0)" xlink:href="#bj"/><use transform="matrix(0.05,0,0,0.05,66.9,0)" xlink:href="#bf"/><use transform="matrix(0.05,0,0,0.05,76.9,0)" xlink:href="#bk"/><use transform="matrix(0.05,0,0,0.05,81.9,0)" xlink:href="#bg"/><use transform="matrix(0.05,0,0,0.05,94.85000000000001,0)" xlink:href="#bl"/></g><path d="M212-179c-10-28-35-45-73-45-59 0-87 40-87 99 0 60 29 101 89 101 43 0 62-24 78-52l27 14C228-24 195 4 139 4 59 4 22-46 18-125c-6-104 99-153 187-111 19 9 31 26 39 46" id="bm"/><path d="M24 0v-261h32V0H24" id="bn"/><path d="M135-143c-3-34-86-38-87 0 15 53 115 12 119 90S17 21 10-45l28-5c4 36 97 45 98 0-10-56-113-15-118-90-4-57 82-63 122-42 12 7 21 19 24 35" id="bo"/><path d="M114-163C36-179 61-72 57 0H25l-1-190h30c1 12-1 29 2 39 6-27 23-49 58-41v29" id="bp"/><g id="g"><use transform="matrix(0.05,0,0,0.05,0,0)" xlink:href="#bm"/><use transform="matrix(0.05,0,0,0.05,12.950000000000001,0)" xlink:href="#bn"/><use transform="matrix(0.05,0,0,0.05,16.900000000000002,0)" xlink:href="#bi"/><use transform="matrix(0.05,0,0,0.05,26.900000000000002,0)" xlink:href="#bo"/><use transform="matrix(0.05,0,0,0.05,35.900000000000006,0)" xlink:href="#bk"/><use transform="matrix(0.05,0,0,0.05,40.900000000000006,0)" xlink:href="#bj"/><use transform="matrix(0.05,0,0,0.05,50.900000000000006,0)" xlink:href="#bp"/></g><path d="M106-169C34-169 62-67 57 0H25v-261h32l-1 103c12-21 28-36 61-36 89 0 53 116 60 194h-32v-121c2-32-8-49-39-48" id="bq"/><g id="h"><use transform="matrix(0.05,0,0,0.05,0,0)" xlink:href="#bq"/><use transform="matrix(0.05,0,0,0.05,10,0)" xlink:href="#bc"/><use transform="matrix(0.05,0,0,0.05,20,0)" xlink:href="#bo"/></g><use transform="matrix(0.05,0,0,0.05,0,0)" xlink:href="#bc" id="i"/><path d="M47-170H22l-4-78h33" id="br"/><path d="M85-194c31 0 48 13 60 33l-1-100h32l1 261h-30c-2-10 0-23-3-31C134-8 116 4 85 4 32 4 16-35 15-94c0-66 23-100 70-100zm9 24c-40 0-46 34-46 75 0 40 6 74 45 74 42 0 51-32 51-76 0-42-9-74-50-73" id="bs"/><path d="M115-194c53 0 69 39 70 98 0 66-23 100-70 100C84 3 66-7 56-30L54 0H23l1-261h32v101c10-23 28-34 59-34zm-8 174c40 0 45-34 45-75 0-40-5-75-45-74-42 0-51 32-51 76 0 43 10 73 51 73" id="bt"/><g id="j"><use transform="matrix(0.05,0,0,0.05,0,0)" xlink:href="#br"/><use transform="matrix(0.05,0,0,0.05,3.4000000000000004,0)" xlink:href="#bs"/><use transform="matrix(0.05,0,0,0.05,13.4,0)" xlink:href="#be"/><use transform="matrix(0.05,0,0,0.05,23.4,0)" xlink:href="#bh"/><use transform="matrix(0.05,0,0,0.05,32.4,0)" xlink:href="#bs"/><use transform="matrix(0.05,0,0,0.05,42.4,0)" xlink:href="#bt"/><use transform="matrix(0.05,0,0,0.05,52.400000000000006,0)" xlink:href="#br"/></g><g id="k"><use transform="matrix(0.05,0,0,0.05,0,0)" xlink:href="#bs"/><use transform="matrix(0.05,0,0,0.05,10,0)" xlink:href="#bc"/><use transform="matrix(0.05,0,0,0.05,20,0)" xlink:href="#bk"/><use transform="matrix(0.05,0,0,0.05,25,0)" xlink:href="#bc"/><use transform="matrix(0.05,0,0,0.05,35,0)" xlink:href="#bt"/><use transform="matrix(0.05,0,0,0.05,45,0)" xlink:href="#bc"/><use transform="matrix(0.05,0,0,0.05,55,0)" xlink:href="#bo"/><use transform="matrix(0.05,0,0,0.05,64,0)" xlink:href="#bj"/></g><path d="M206 0h-36l-40-164L89 0H53L-1-190h32L70-26l43-164h34l41 164 42-164h31" id="bu"/><path d="M24-231v-30h32v30H24zM24 0v-190h32V0H24" id="bv"/><g id="l"><use transform="matrix(0.05,0,0,0.05,0,0)" xlink:href="#bu"/><use transform="matrix(0.05,0,0,0.05,12.950000000000001,0)" xlink:href="#bv"/><use transform="matrix(0.05,0,0,0.05,16.900000000000002,0)" xlink:href="#bk"/><use transform="matrix(0.05,0,0,0.05,21.900000000000002,0)" xlink:href="#bq"/></g><use transform="matrix(0.05,0,0,0.05,0,0)" xlink:href="#bc" id="m"/><path d="M115-194c55 1 70 41 70 98S169 2 115 4C84 4 66-9 55-30l1 105H24l-1-265h31l2 30c10-21 28-34 59-34zm-8 174c40 0 45-34 45-75s-6-73-45-74c-42 0-51 32-51 76 0 43 10 73 51 73" id="bw"/><g id="n"><use transform="matrix(0.05,0,0,0.05,0,0)" xlink:href="#br"/><use transform="matrix(0.05,0,0,0.05,3.4000000000000004,0)" xlink:href="#bw"/><use transform="matrix(0.05,0,0,0.05,13.4,0)" xlink:href="#bp"/><use transform="matrix(0.05,0,0,0.05,19.35,0)" xlink:href="#be"/><use transform="matrix(0.05,0,0,0.05,29.35,0)" xlink:href="#bs"/><use transform="matrix(0.05,0,0,0.05,39.35,0)" xlink:href="#bi"/><use transform="matrix(0.05,0,0,0.05,49.35,0)" xlink:href="#bh"/><use transform="matrix(0.05,0,0,0.05,58.35,0)" xlink:href="#bk"/><use transform="matrix(0.05,0,0,0.05,63.35,0)" xlink:href="#bo"/><use transform="matrix(0.05,0,0,0.05,72.35,0)" xlink:href="#br"/></g><g id="o"><use transform="matrix(0.05,0,0,0.05,0,0)" xlink:href="#bh"/><use transform="matrix(0.05,0,0,0.05,9,0)" xlink:href="#be"/><use transform="matrix(0.05,0,0,0.05,19,0)" xlink:href="#bn"/><use transform="matrix(0.05,0,0,0.05,22.95,0)" xlink:href="#bn"/><use transform="matrix(0.05,0,0,0.05,26.899999999999995,0)" xlink:href="#bj"/><use transform="matrix(0.05,0,0,0.05,36.9,0)" xlink:href="#bh"/><use transform="matrix(0.05,0,0,0.05,45.9,0)" xlink:href="#bk"/><use transform="matrix(0.05,0,0,0.05,50.9,0)" xlink:href="#bv"/><use transform="matrix(0.05,0,0,0.05,54.85,0)" xlink:href="#be"/><use transform="matrix(0.05,0,0,0.05,64.85,0)" xlink:href="#bf"/></g><linearGradient gradientUnits="userSpaceOnUse" id="p" x1="1990.67" y1="744.55" x2="2110.67" y2="624.55"><stop offset="0%" stop-color="#c8511b"/><stop offset="100%" stop-color="#f90"/></linearGradient><path d="M30-248c87 1 191-15 191 75 0 78-77 80-158 76V0H30v-248zm33 125c57 0 124 11 124-50 0-59-68-47-124-48v98" id="bx"/><g id="q"><use transform="matrix(0.05,0,0,0.05,0,0)" xlink:href="#bx"/><use transform="matrix(0.05,0,0,0.05,12,0)" xlink:href="#bp"/><use transform="matrix(0.05,0,0,0.05,17.95,0)" xlink:href="#be"/><use transform="matrix(0.05,0,0,0.05,27.950000000000003,0)" xlink:href="#bs"/><use transform="matrix(0.05,0,0,0.05,37.95,0)" xlink:href="#bi"/><use transform="matrix(0.05,0,0,0.05,47.95,0)" xlink:href="#bh"/><use transform="matrix(0.05,0,0,0.05,56.95,0)" xlink:href="#bk"/></g><g id="r"><use transform="matrix(0.05,0,0,0.05,0,0)" xlink:href="#bm"/><use transform="matrix(0.05,0,0,0.05,12.950000000000001,0)" xlink:href="#bp"/><use transform="matrix(0.05,0,0,0.05,18.900000000000002,0)" xlink:href="#bj"/><use transform="matrix(0.05,0,0,0.05,28.900000000000002,0)" xlink:href="#bc"/><use transform="matrix(0.05,0,0,0.05,38.900000000000006,0)" xlink:href="#bk"/><use transform="matrix(0.05,0,0,0.05,43.900000000000006,0)" xlink:href="#bj"/><use transform="matrix(0.05,0,0,0.05,53.900000000000006,0)" xlink:href="#bs"/></g><path d="M30 0v-248h33v221h125V0H30" id="by"/><g id="s"><use transform="matrix(0.05,0,0,0.05,0,0)" xlink:href="#by"/><use transform="matrix(0.05,0,0,0.05,10,0)" xlink:href="#bc"/><use transform="matrix(0.05,0,0,0.05,20,0)" xlink:href="#bb"/><use transform="matrix(0.05,0,0,0.05,34.95,0)" xlink:href="#bt"/><use transform="matrix(0.05,0,0,0.05,44.95,0)" xlink:href="#bs"/><use transform="matrix(0.05,0,0,0.05,54.95,0)" xlink:href="#bc"/></g><g id="t"><use transform="matrix(0.05,0,0,0.05,0,0)" xlink:href="#bn"/><use transform="matrix(0.05,0,0,0.05,3.95,0)" xlink:href="#bv"/><use transform="matrix(0.05,0,0,0.05,7.9,0)" xlink:href="#bo"/><use transform="matrix(0.05,0,0,0.05,16.9,0)" xlink:href="#bk"/><use transform="matrix(0.05,0,0,0.05,21.9,0)" xlink:href="#bj"/><use transform="matrix(0.05,0,0,0.05,31.899999999999995,0)" xlink:href="#bf"/><use transform="matrix(0.05,0,0,0.05,41.9,0)" xlink:href="#bo"/></g><g id="u"><use transform="matrix(0.05,0,0,0.05,0,0)" xlink:href="#bk"/><use transform="matrix(0.05,0,0,0.05,5,0)" xlink:href="#be"/></g><path d="M30 0v-248h187v28H63v79h144v27H63v87h162V0H30" id="bz"/><path d="M108 0H70L1-190h34L89-25l56-165h34" id="bA"/><path d="M177-190C167-65 218 103 67 71c-23-6-38-20-44-43l32-5c15 47 100 32 89-28v-30C133-14 115 1 83 1 29 1 15-40 15-95c0-56 16-97 71-98 29-1 48 16 59 35 1-10 0-23 2-32h30zM94-22c36 0 50-32 50-73 0-42-14-75-50-75-39 0-46 34-46 75s6 73 46 73" id="bB"/><g id="v"><use transform="matrix(0.05,0,0,0.05,0,0)" xlink:href="#bz"/><use transform="matrix(0.05,0,0,0.05,12,0)" xlink:href="#bA"/><use transform="matrix(0.05,0,0,0.05,21,0)" xlink:href="#bj"/><use transform="matrix(0.05,0,0,0.05,31,0)" xlink:href="#bf"/><use transform="matrix(0.05,0,0,0.05,41,0)" xlink:href="#bk"/><use transform="matrix(0.05,0,0,0.05,46,0)" xlink:href="#bl"/><use transform="matrix(0.05,0,0,0.05,58,0)" xlink:href="#bp"/><use transform="matrix(0.05,0,0,0.05,63.95,0)" xlink:href="#bv"/><use transform="matrix(0.05,0,0,0.05,67.9,0)" xlink:href="#bs"/><use transform="matrix(0.05,0,0,0.05,77.9,0)" xlink:href="#bB"/><use transform="matrix(0.05,0,0,0.05,87.9,0)" xlink:href="#bj"/></g><path d="M233-177c-1 41-23 64-60 70L243 0h-38l-65-103H63V0H30v-248c88 3 205-21 203 71zM63-129c60-2 137 13 137-47 0-61-80-42-137-45v92" id="bC"/><g id="w"><use transform="matrix(0.05,0,0,0.05,0,0)" xlink:href="#bC"/><use transform="matrix(0.05,0,0,0.05,12.950000000000001,0)" xlink:href="#bi"/><use transform="matrix(0.05,0,0,0.05,22.950000000000003,0)" xlink:href="#bn"/><use transform="matrix(0.05,0,0,0.05,26.900000000000002,0)" xlink:href="#bj"/></g><linearGradient gradientUnits="userSpaceOnUse" id="x" x1="190.67" y1="737.11" x2="310.67" y2="617.11"><stop offset="0%" stop-color="#c8511b"/><stop offset="100%" stop-color="#f90"/></linearGradient><g id="y"><use transform="matrix(0.05,0,0,0.05,0,0)" xlink:href="#bz"/><use transform="matrix(0.05,0,0,0.05,12,0)" xlink:href="#bf"/><use transform="matrix(0.05,0,0,0.05,22,0)" xlink:href="#bc"/><use transform="matrix(0.05,0,0,0.05,32,0)" xlink:href="#bt"/><use transform="matrix(0.05,0,0,0.05,42,0)" xlink:href="#bn"/><use transform="matrix(0.05,0,0,0.05,45.95,0)" xlink:href="#bj"/></g><g id="z"><use transform="matrix(0.05,0,0,0.05,0,0)" xlink:href="#bm"/><use transform="matrix(0.05,0,0,0.05,12.950000000000001,0)" xlink:href="#bg"/><use transform="matrix(0.05,0,0,0.05,25.900000000000002,0)" xlink:href="#bm"/></g><g id="A"><use transform="matrix(0.05,0,0,0.05,0,0)" xlink:href="#bm"/><use transform="matrix(0.05,0,0,0.05,12.950000000000001,0)" xlink:href="#bi"/><use transform="matrix(0.05,0,0,0.05,22.950000000000003,0)" xlink:href="#bo"/><use transform="matrix(0.05,0,0,0.05,31.950000000000003,0)" xlink:href="#bk"/><use transform="matrix(0.05,0,0,0.05,36.95,0)" xlink:href="#be"/><use transform="matrix(0.05,0,0,0.05,46.95,0)" xlink:href="#bb"/></g><g id="B"><use transform="matrix(0.05,0,0,0.05,0,0)" xlink:href="#bC"/><use transform="matrix(0.05,0,0,0.05,12.950000000000001,0)" xlink:href="#bj"/><use transform="matrix(0.05,0,0,0.05,22.950000000000003,0)" xlink:href="#bo"/><use transform="matrix(0.05,0,0,0.05,31.950000000000003,0)" xlink:href="#be"/><use transform="matrix(0.05,0,0,0.05,41.95,0)" xlink:href="#bi"/><use transform="matrix(0.05,0,0,0.05,51.95,0)" xlink:href="#bp"/><use transform="matrix(0.05,0,0,0.05,57.900000000000006,0)" xlink:href="#bh"/><use transform="matrix(0.05,0,0,0.05,66.9,0)" xlink:href="#bj"/></g><g id="C"><use transform="matrix(0.05,0,0,0.05,0,0)" xlink:href="#by"/><use transform="matrix(0.05,0,0,0.05,10,0)" xlink:href="#bc"/><use transform="matrix(0.05,0,0,0.05,20,0)" xlink:href="#bb"/><use transform="matrix(0.05,0,0,0.05,34.95,0)" xlink:href="#bt"/><use transform="matrix(0.05,0,0,0.05,44.95,0)" xlink:href="#bs"/><use transform="matrix(0.05,0,0,0.05,54.95,0)" xlink:href="#bc"/></g><linearGradient gradientUnits="userSpaceOnUse" id="D" x1="1530.67" y1="744.55" x2="1650.67" y2="624.55"><stop offset="0%" stop-color="#c8511b"/><stop offset="100%" stop-color="#f90"/></linearGradient><g id="E"><use transform="matrix(0.05,0,0,0.05,0,0)" xlink:href="#bg"/><use transform="matrix(0.05,0,0,0.05,12.950000000000001,0)" xlink:href="#be"/><use transform="matrix(0.05,0,0,0.05,22.950000000000003,0)" xlink:href="#bh"/><use transform="matrix(0.05,0,0,0.05,31.950000000000003,0)" xlink:href="#bi"/><use transform="matrix(0.05,0,0,0.05,41.95,0)" xlink:href="#bb"/><use transform="matrix(0.05,0,0,0.05,56.900000000000006,0)" xlink:href="#bj"/><use transform="matrix(0.05,0,0,0.05,66.9,0)" xlink:href="#bf"/><use transform="matrix(0.05,0,0,0.05,76.9,0)" xlink:href="#bk"/><use transform="matrix(0.05,0,0,0.05,81.9,0)" xlink:href="#bg"/><use transform="matrix(0.05,0,0,0.05,94.85000000000001,0)" xlink:href="#bl"/></g><path d="M185-189c-5-48-123-54-124 2 14 75 158 14 163 119 3 78-121 87-175 55-17-10-28-26-33-46l33-7c5 56 141 63 141-1 0-78-155-14-162-118-5-82 145-84 179-34 5 7 8 16 11 25" id="bD"/><g id="F"><use transform="matrix(0.05,0,0,0.05,0,0)" xlink:href="#bD"/><use transform="matrix(0.05,0,0,0.05,12,0)" xlink:href="#bk"/><use transform="matrix(0.05,0,0,0.05,17,0)" xlink:href="#bp"/><use transform="matrix(0.05,0,0,0.05,22.95,0)" xlink:href="#bj"/><use transform="matrix(0.05,0,0,0.05,32.95,0)" xlink:href="#bc"/><use transform="matrix(0.05,0,0,0.05,42.95,0)" xlink:href="#bb"/></g><linearGradient gradientUnits="userSpaceOnUse" id="G" x1="570.67" y1="297.11" x2="690.67" y2="177.11"><stop offset="0%" stop-color="#bd0816"/><stop offset="100%" stop-color="#ff5252"/></linearGradient><path d="M266 0h-40l-56-210L115 0H75L2-248h35L96-30l15-64 43-154h32l59 218 59-218h35" id="bE"/><g id="H"><use transform="matrix(0.05,0,0,0.05,0,0)" xlink:href="#ba"/><use transform="matrix(0.05,0,0,0.05,11.35,0)" xlink:href="#bE"/><use transform="matrix(0.05,0,0,0.05,28.299999999999997,0)" xlink:href="#bD"/></g><g id="I"><use transform="matrix(0.05,0,0,0.05,0,0)" xlink:href="#bD"/><use transform="matrix(0.05,0,0,0.05,12,0)" xlink:href="#bj"/><use transform="matrix(0.05,0,0,0.05,22,0)" xlink:href="#bh"/><use transform="matrix(0.05,0,0,0.05,31,0)" xlink:href="#bp"/><use transform="matrix(0.05,0,0,0.05,36.95,0)" xlink:href="#bj"/><use transform="matrix(0.05,0,0,0.05,46.95,0)" xlink:href="#bk"/><use transform="matrix(0.05,0,0,0.05,51.95,0)" xlink:href="#bo"/></g><path d="M240 0l2-218c-23 76-54 145-80 218h-23L58-218 59 0H30v-248h44l77 211c21-75 51-140 76-211h43V0h-30" id="bF"/><g id="J"><use transform="matrix(0.05,0,0,0.05,0,0)" xlink:href="#bF"/><use transform="matrix(0.05,0,0,0.05,14.950000000000001,0)" xlink:href="#bc"/><use transform="matrix(0.05,0,0,0.05,24.950000000000003,0)" xlink:href="#bf"/><use transform="matrix(0.05,0,0,0.05,34.95,0)" xlink:href="#bc"/><use transform="matrix(0.05,0,0,0.05,44.95,0)" xlink:href="#bB"/><use transform="matrix(0.05,0,0,0.05,54.95,0)" xlink:href="#bj"/><use transform="matrix(0.05,0,0,0.05,64.95,0)" xlink:href="#bp"/></g><linearGradient gradientUnits="userSpaceOnUse" id="K" x1="-349.33" y1="705.19" x2="-229.33" y2="585.19"><stop offset="0%" stop-color="#2e27ad"/><stop offset="100%" stop-color="#527fff"/></linearGradient><path d="M194 0L95-120 63-95V0H30v-248h33v124l119-124h40L117-140 236 0h-42" id="bG"/><g id="L"><use transform="matrix(0.05,0,0,0.05,0,0)" xlink:href="#bm"/><use transform="matrix(0.05,0,0,0.05,12.950000000000001,0)" xlink:href="#bg"/><use transform="matrix(0.05,0,0,0.05,25.900000000000002,0)" xlink:href="#bG"/></g><g id="M"><use transform="matrix(0.05,0,0,0.05,0,0)" xlink:href="#bC"/><use transform="matrix(0.05,0,0,0.05,12.950000000000001,0)" xlink:href="#bj"/><use transform="matrix(0.05,0,0,0.05,22.950000000000003,0)" xlink:href="#bo"/><use transform="matrix(0.05,0,0,0.05,31.950000000000003,0)" xlink:href="#be"/><use transform="matrix(0.05,0,0,0.05,41.95,0)" xlink:href="#bi"/><use transform="matrix(0.05,0,0,0.05,51.95,0)" xlink:href="#bp"/><use transform="matrix(0.05,0,0,0.05,57.900000000000006,0)" xlink:href="#bh"/><use transform="matrix(0.05,0,0,0.05,66.9,0)" xlink:href="#bj"/></g><linearGradient gradientUnits="userSpaceOnUse" id="N" x1="-529.33" y1="705.19" x2="-409.33" y2="585.19"><stop offset="0%" stop-color="#b0084d"/><stop offset="100%" stop-color="#ff4f8b"/></linearGradient><path d="M63-220v92h138v28H63V0H30v-248h175v28H63" id="bH"/><g id="O"><use transform="matrix(0.05,0,0,0.05,0,0)" xlink:href="#bm"/><use transform="matrix(0.05,0,0,0.05,12.950000000000001,0)" xlink:href="#bn"/><use transform="matrix(0.05,0,0,0.05,16.900000000000002,0)" xlink:href="#be"/><use transform="matrix(0.05,0,0,0.05,26.900000000000002,0)" xlink:href="#bi"/><use transform="matrix(0.05,0,0,0.05,36.900000000000006,0)" xlink:href="#bs"/><use transform="matrix(0.05,0,0,0.05,46.900000000000006,0)" xlink:href="#bH"/><use transform="matrix(0.05,0,0,0.05,57.85,0)" xlink:href="#be"/><use transform="matrix(0.05,0,0,0.05,67.85000000000001,0)" xlink:href="#bp"/><use transform="matrix(0.05,0,0,0.05,73.80000000000001,0)" xlink:href="#bb"/><use transform="matrix(0.05,0,0,0.05,88.75000000000001,0)" xlink:href="#bc"/><use transform="matrix(0.05,0,0,0.05,98.75000000000001,0)" xlink:href="#bk"/><use transform="matrix(0.05,0,0,0.05,103.75,0)" xlink:href="#bv"/><use transform="matrix(0.05,0,0,0.05,107.7,0)" xlink:href="#be"/><use transform="matrix(0.05,0,0,0.05,117.7,0)" xlink:href="#bf"/></g><path d="M179-190L93 31C79 59 56 82 12 73V49c39 6 53-20 64-50L1-190h34L92-34l54-156h33" id="bI"/><g id="P"><use transform="matrix(0.05,0,0,0.05,0,0)" xlink:href="#bg"/><use transform="matrix(0.05,0,0,0.05,12.950000000000001,0)" xlink:href="#bj"/><use transform="matrix(0.05,0,0,0.05,22.950000000000003,0)" xlink:href="#bw"/><use transform="matrix(0.05,0,0,0.05,32.95,0)" xlink:href="#bn"/><use transform="matrix(0.05,0,0,0.05,36.900000000000006,0)" xlink:href="#be"/><use transform="matrix(0.05,0,0,0.05,46.900000000000006,0)" xlink:href="#bI"/><use transform="matrix(0.05,0,0,0.05,55.900000000000006,0)" xlink:href="#bb"/><use transform="matrix(0.05,0,0,0.05,70.85000000000001,0)" xlink:href="#bj"/><use transform="matrix(0.05,0,0,0.05,80.85000000000001,0)" xlink:href="#bf"/><use transform="matrix(0.05,0,0,0.05,90.85000000000001,0)" xlink:href="#bk"/></g><path fill="#333" d="M140-251c80 0 125 45 125 126S219 4 139 4C58 4 15-44 15-125s44-126 125-126zm-1 214c52 0 73-35 73-88 0-50-21-86-72-86-52 0-73 35-73 86s22 88 72 88" id="bJ"/><path fill="#333" d="M135-194c87-1 58 113 63 194h-50c-7-57 23-157-34-157-59 0-34 97-39 157H25l-1-190h47c2 12-1 28 3 38 12-26 28-41 61-42" id="bK"/><g id="Q"><use transform="matrix(0.04938271604938272,0,0,0.04938271604938272,0,0)" xlink:href="#bJ"/><use transform="matrix(0.04938271604938272,0,0,0.04938271604938272,13.827160493827162,0)" xlink:href="#bK"/></g><path fill="#333" d="M88-194c31-1 46 15 58 34l-1-101h50l1 261h-48c-2-10 0-23-3-31C134-8 116 4 84 4 32 4 16-41 15-95c0-56 19-97 73-99zm17 164c33 0 40-30 41-66 1-37-9-64-41-64s-38 30-39 65c0 43 13 65 39 65" id="bL"/><path fill="#333" d="M185-48c-13 30-37 53-82 52C43 2 14-33 14-96s30-98 90-98c62 0 83 45 84 108H66c0 31 8 55 39 56 18 0 30-7 34-22zm-45-69c5-46-57-63-70-21-2 6-4 13-4 21h74" id="bM"/><path fill="#333" d="M135-194c53 0 70 44 70 98 0 56-19 98-73 100-31 1-45-17-59-34 3 33 2 69 2 105H25l-1-265h48c2 10 0 23 3 31 11-24 29-35 60-35zM114-30c33 0 39-31 40-66 0-38-9-64-40-64-56 0-55 130 0 130" id="bN"/><path fill="#333" d="M25 0v-261h50V0H25" id="bO"/><path fill="#333" d="M110-194c64 0 96 36 96 99 0 64-35 99-97 99-61 0-95-36-95-99 0-62 34-99 96-99zm-1 164c35 0 45-28 45-65 0-40-10-65-43-65-34 0-45 26-45 65 0 36 10 65 43 65" id="bP"/><path fill="#333" d="M123 10C108 53 80 86 19 72V37c35 8 53-11 59-39L3-190h52l48 148c12-52 28-100 44-148h51" id="bQ"/><path fill="#333" d="M220-157c-53 9-28 100-34 157h-49v-107c1-27-5-49-29-50C55-147 81-57 75 0H25l-1-190h47c2 12-1 28 3 38 10-53 101-56 108 0 13-22 24-43 59-42 82 1 51 116 57 194h-49v-107c-1-25-5-48-29-50" id="bR"/><path fill="#333" d="M115-3C79 11 28 4 28-45v-112H4v-33h27l15-45h31v45h36v33H77v99c-1 23 16 31 38 25v30" id="bS"/><g id="R"><use transform="matrix(0.04938271604938272,0,0,0.04938271604938272,0,0)" xlink:href="#bL"/><use transform="matrix(0.04938271604938272,0,0,0.04938271604938272,10.814814814814815,0)" xlink:href="#bM"/><use transform="matrix(0.04938271604938272,0,0,0.04938271604938272,20.69135802469136,0)" xlink:href="#bN"/><use transform="matrix(0.04938271604938272,0,0,0.04938271604938272,31.506172839506174,0)" xlink:href="#bO"/><use transform="matrix(0.04938271604938272,0,0,0.04938271604938272,36.44444444444445,0)" xlink:href="#bP"/><use transform="matrix(0.04938271604938272,0,0,0.04938271604938272,47.25925925925927,0)" xlink:href="#bQ"/><use transform="matrix(0.04938271604938272,0,0,0.04938271604938272,57.135802469135804,0)" xlink:href="#bR"/><use transform="matrix(0.04938271604938272,0,0,0.04938271604938272,72.93827160493828,0)" xlink:href="#bM"/><use transform="matrix(0.04938271604938272,0,0,0.04938271604938272,82.81481481481482,0)" xlink:href="#bK"/><use transform="matrix(0.04938271604938272,0,0,0.04938271604938272,93.62962962962963,0)" xlink:href="#bS"/></g><path fill="#333" d="M169-182c-1-43-94-46-97-3 18 66 151 10 154 114 3 95-165 93-204 36-6-8-10-19-12-30l50-8c3 46 112 56 116 5-17-69-150-10-154-114-4-87 153-88 188-35 5 8 8 18 10 28" id="bT"/><path fill="#333" d="M135-150c-39-12-60 13-60 57V0H25l-1-190h47c2 13-1 29 3 40 6-28 27-53 61-41v41" id="bU"/><path fill="#333" d="M133-34C117-15 103 5 69 4 32 3 11-16 11-54c-1-60 55-63 116-61 1-26-3-47-28-47-18 1-26 9-28 27l-52-2c7-38 36-58 82-57s74 22 75 68l1 82c-1 14 12 18 25 15v27c-30 8-71 5-69-32zm-48 3c29 0 43-24 42-57-32 0-66-3-65 30 0 17 8 27 23 27" id="bV"/><g id="S"><use transform="matrix(0.04938271604938272,0,0,0.04938271604938272,0,0)" xlink:href="#bT"/><use transform="matrix(0.04938271604938272,0,0,0.04938271604938272,11.851851851851853,0)" xlink:href="#bS"/><use transform="matrix(0.04938271604938272,0,0,0.04938271604938272,17.728395061728396,0)" xlink:href="#bU"/><use transform="matrix(0.04938271604938272,0,0,0.04938271604938272,24.641975308641975,0)" xlink:href="#bM"/><use transform="matrix(0.04938271604938272,0,0,0.04938271604938272,34.51851851851852,0)" xlink:href="#bV"/><use transform="matrix(0.04938271604938272,0,0,0.04938271604938272,44.39506172839506,0)" xlink:href="#bR"/></g><path fill="#333" d="M67-125c0 53 21 87 73 88 37 1 54-22 65-47l45 17C233-25 199 4 140 4 58 4 20-42 15-125 8-235 124-281 211-232c18 10 29 29 36 50l-46 12c-8-25-30-41-62-41-52 0-71 34-72 86" id="bW"/><path fill="#333" d="M114-157C55-157 80-60 75 0H25v-261h50l-1 109c12-26 28-41 61-42 86-1 58 113 63 194h-50c-7-57 23-157-34-157" id="bX"/><path fill="#333" d="M195-6C206 82 75 100 31 46c-4-6-6-13-8-21l49-6c3 16 16 24 34 25 40 0 42-37 40-79-11 22-30 35-61 35-53 0-70-43-70-97 0-56 18-96 73-97 30 0 46 14 59 34l2-30h47zm-90-29c32 0 41-27 41-63 0-35-9-62-40-62-32 0-39 29-40 63 0 36 9 62 39 62" id="bY"/><path fill="#333" d="M137-138c1-29-70-34-71-4 15 46 118 7 119 86 1 83-164 76-172 9l43-7c4 19 20 25 44 25 33 8 57-30 24-41C81-84 22-81 20-136c-2-80 154-74 161-7" id="bZ"/><g id="T"><use transform="matrix(0.04938271604938272,0,0,0.04938271604938272,0,0)" xlink:href="#bW"/><use transform="matrix(0.04938271604938272,0,0,0.04938271604938272,12.790123456790125,0)" xlink:href="#bX"/><use transform="matrix(0.04938271604938272,0,0,0.04938271604938272,23.60493827160494,0)" xlink:href="#bV"/><use transform="matrix(0.04938271604938272,0,0,0.04938271604938272,33.48148148148148,0)" xlink:href="#bK"/><use transform="matrix(0.04938271604938272,0,0,0.04938271604938272,44.2962962962963,0)" xlink:href="#bY"/><use transform="matrix(0.04938271604938272,0,0,0.04938271604938272,55.111111111111114,0)" xlink:href="#bM"/><use transform="matrix(0.04938271604938272,0,0,0.04938271604938272,64.98765432098766,0)" xlink:href="#bZ"/></g><path fill="#333" d="M24 0v-248h195v40H76v63h132v40H76v65h150V0H24" id="ca"/><path fill="#333" d="M135-194c52 0 70 43 70 98 0 56-19 99-73 100-30 1-46-15-58-35L72 0H24l1-261h50v104c11-23 29-37 60-37zM114-30c31 0 40-27 40-66 0-37-7-63-39-63s-41 28-41 65c0 36 8 64 40 64" id="cb"/><g id="U"><use transform="matrix(0.04938271604938272,0,0,0.04938271604938272,0,0)" xlink:href="#ca"/><use transform="matrix(0.04938271604938272,0,0,0.04938271604938272,11.851851851851853,0)" xlink:href="#bK"/><use transform="matrix(0.04938271604938272,0,0,0.04938271604938272,22.666666666666668,0)" xlink:href="#bV"/><use transform="matrix(0.04938271604938272,0,0,0.04938271604938272,32.543209876543216,0)" xlink:href="#cb"/><use transform="matrix(0.04938271604938272,0,0,0.04938271604938272,43.35802469135803,0)" xlink:href="#bO"/><use transform="matrix(0.04938271604938272,0,0,0.04938271604938272,48.296296296296305,0)" xlink:href="#bM"/></g><path fill="#333" d="M230 0l2-204L168 0h-37L68-204 70 0H24v-248h70l56 185 57-185h69V0h-46" id="cc"/><g id="V"><use transform="matrix(0.04938271604938272,0,0,0.04938271604938272,0,0)" xlink:href="#cc"/><use transform="matrix(0.04938271604938272,0,0,0.04938271604938272,14.765432098765434,0)" xlink:href="#bP"/><use transform="matrix(0.04938271604938272,0,0,0.04938271604938272,25.58024691358025,0)" xlink:href="#bK"/><use transform="matrix(0.04938271604938272,0,0,0.04938271604938272,36.39506172839506,0)" xlink:href="#bY"/><use transform="matrix(0.04938271604938272,0,0,0.04938271604938272,47.20987654320988,0)" xlink:href="#bP"/></g><g id="X"><use transform="matrix(0.04938271604938272,0,0,0.04938271604938272,0,0)" xlink:href="#bW"/><use transform="matrix(0.04938271604938272,0,0,0.04938271604938272,12.790123456790125,0)" xlink:href="#bX"/><use transform="matrix(0.04938271604938272,0,0,0.04938271604938272,23.60493827160494,0)" xlink:href="#bV"/><use transform="matrix(0.04938271604938272,0,0,0.04938271604938272,33.48148148148148,0)" xlink:href="#bK"/><use transform="matrix(0.04938271604938272,0,0,0.04938271604938272,44.2962962962963,0)" xlink:href="#bY"/><use transform="matrix(0.04938271604938272,0,0,0.04938271604938272,55.111111111111114,0)" xlink:href="#bM"/></g><g id="Y"><use transform="matrix(0.04938271604938272,0,0,0.04938271604938272,0,0)" xlink:href="#bT"/><use transform="matrix(0.04938271604938272,0,0,0.04938271604938272,11.851851851851853,0)" xlink:href="#bS"/><use transform="matrix(0.04938271604938272,0,0,0.04938271604938272,17.728395061728396,0)" xlink:href="#bU"/><use transform="matrix(0.04938271604938272,0,0,0.04938271604938272,24.641975308641975,0)" xlink:href="#bM"/><use transform="matrix(0.04938271604938272,0,0,0.04938271604938272,34.51851851851852,0)" xlink:href="#bV"/><use transform="matrix(0.04938271604938272,0,0,0.04938271604938272,44.39506172839506,0)" xlink:href="#bR"/></g><g id="Z"><use transform="matrix(0.04938271604938272,0,0,0.04938271604938272,0,0)" xlink:href="#bW"/><use transform="matrix(0.04938271604938272,0,0,0.04938271604938272,12.790123456790125,0)" xlink:href="#bU"/><use transform="matrix(0.04938271604938272,0,0,0.04938271604938272,19.703703703703706,0)" xlink:href="#bM"/><use transform="matrix(0.04938271604938272,0,0,0.04938271604938272,29.58024691358025,0)" xlink:href="#bV"/><use transform="matrix(0.04938271604938272,0,0,0.04938271604938272,39.4567901234568,0)" xlink:href="#bS"/><use transform="matrix(0.04938271604938272,0,0,0.04938271604938272,45.33333333333334,0)" xlink:href="#bM"/></g><path fill="#333" d="M128 0H69L1-190h53L99-40l48-150h52" id="cd"/><g id="aa"><use transform="matrix(0.04938271604938272,0,0,0.04938271604938272,0,0)" xlink:href="#ca"/><use transform="matrix(0.04938271604938272,0,0,0.04938271604938272,11.851851851851853,0)" xlink:href="#cd"/><use transform="matrix(0.04938271604938272,0,0,0.04938271604938272,21.7283950617284,0)" xlink:href="#bM"/><use transform="matrix(0.04938271604938272,0,0,0.04938271604938272,31.60493827160494,0)" xlink:href="#bK"/><use transform="matrix(0.04938271604938272,0,0,0.04938271604938272,42.41975308641976,0)" xlink:href="#bS"/></g><path fill="#333" d="M85 4C-2 5 27-109 22-190h50c7 57-23 150 33 157 60-5 35-97 40-157h50l1 190h-47c-2-12 1-28-3-38-12 25-28 42-61 42" id="ce"/><path fill="#333" d="M190-63c-7 42-38 67-86 67-59 0-84-38-90-98-12-110 154-137 174-36l-49 2c-2-19-15-32-35-32-30 0-35 28-38 64-6 74 65 87 74 30" id="cf"/><g id="ab"><use transform="matrix(0.04938271604938272,0,0,0.04938271604938272,0,0)" xlink:href="#bT"/><use transform="matrix(0.04938271604938272,0,0,0.04938271604938272,11.851851851851853,0)" xlink:href="#bP"/><use transform="matrix(0.04938271604938272,0,0,0.04938271604938272,22.666666666666668,0)" xlink:href="#ce"/><use transform="matrix(0.04938271604938272,0,0,0.04938271604938272,33.48148148148148,0)" xlink:href="#bU"/><use transform="matrix(0.04938271604938272,0,0,0.04938271604938272,40.39506172839506,0)" xlink:href="#cf"/><use transform="matrix(0.04938271604938272,0,0,0.04938271604938272,50.27160493827161,0)" xlink:href="#bM"/></g><path fill="#333" d="M25-224v-37h50v37H25zM25 0v-190h50V0H25" id="cg"/><g id="ac"><use transform="matrix(0.04938271604938272,0,0,0.04938271604938272,0,0)" xlink:href="#cc"/><use transform="matrix(0.04938271604938272,0,0,0.04938271604938272,14.765432098765434,0)" xlink:href="#bV"/><use transform="matrix(0.04938271604938272,0,0,0.04938271604938272,24.641975308641978,0)" xlink:href="#bN"/><use transform="matrix(0.04938271604938272,0,0,0.04938271604938272,35.45679012345679,0)" xlink:href="#bN"/><use transform="matrix(0.04938271604938272,0,0,0.04938271604938272,46.27160493827161,0)" xlink:href="#cg"/><use transform="matrix(0.04938271604938272,0,0,0.04938271604938272,51.20987654320988,0)" xlink:href="#bK"/><use transform="matrix(0.04938271604938272,0,0,0.04938271604938272,62.0246913580247,0)" xlink:href="#bY"/></g><g id="ad"><use transform="matrix(0.04938271604938272,0,0,0.04938271604938272,0,0)" xlink:href="#bP"/><use transform="matrix(0.04938271604938272,0,0,0.04938271604938272,10.814814814814815,0)" xlink:href="#bK"/></g><path fill="#333" d="M62-158H24l-5-90h48" id="ch"/><g id="ae"><use transform="matrix(0.04938271604938272,0,0,0.04938271604938272,0,0)" xlink:href="#ch"/><use transform="matrix(0.04938271604938272,0,0,0.04938271604938272,4.197530864197531,0)" xlink:href="#bL"/><use transform="matrix(0.04938271604938272,0,0,0.04938271604938272,15.012345679012345,0)" xlink:href="#bP"/><use transform="matrix(0.04938271604938272,0,0,0.04938271604938272,25.827160493827158,0)" xlink:href="#cf"/><use transform="matrix(0.04938271604938272,0,0,0.04938271604938272,35.7037037037037,0)" xlink:href="#bL"/><use transform="matrix(0.04938271604938272,0,0,0.04938271604938272,46.51851851851852,0)" xlink:href="#cb"/><use transform="matrix(0.04938271604938272,0,0,0.04938271604938272,57.333333333333336,0)" xlink:href="#ch"/></g><g id="af"><use transform="matrix(0.04938271604938272,0,0,0.04938271604938272,0,0)" xlink:href="#bL"/><use transform="matrix(0.04938271604938272,0,0,0.04938271604938272,10.814814814814815,0)" xlink:href="#bV"/><use transform="matrix(0.04938271604938272,0,0,0.04938271604938272,20.69135802469136,0)" xlink:href="#bS"/><use transform="matrix(0.04938271604938272,0,0,0.04938271604938272,26.567901234567902,0)" xlink:href="#bV"/><use transform="matrix(0.04938271604938272,0,0,0.04938271604938272,36.44444444444445,0)" xlink:href="#cb"/><use transform="matrix(0.04938271604938272,0,0,0.04938271604938272,47.25925925925927,0)" xlink:href="#bV"/><use transform="matrix(0.04938271604938272,0,0,0.04938271604938272,57.135802469135804,0)" xlink:href="#bZ"/><use transform="matrix(0.04938271604938272,0,0,0.04938271604938272,67.01234567901236,0)" xlink:href="#bM"/></g><path fill="#333" d="M168-19C124 19 11 11 16-68c3-43 29-60 59-75-25-44-12-111 53-106 37 3 64 15 64 52 0 43-40 52-69 68 12 22 27 41 43 59 14-19 21-38 28-64l37 13c-8 29-19 52-34 74 12 10 32 16 52 10v35c-28 11-65-2-81-17zm-58-139c19-9 43-14 43-39 0-14-10-22-25-22-34 0-33 41-18 61zM60-68c-3 40 55 47 79 25-18-20-34-42-48-67-18 8-30 20-31 42" id="ci"/><use transform="matrix(0.04938271604938272,0,0,0.04938271604938272,0,0)" xlink:href="#ci" id="ag"/><g id="ah"><use transform="matrix(0.04938271604938272,0,0,0.04938271604938272,0,0)" xlink:href="#ch"/><use transform="matrix(0.04938271604938272,0,0,0.04938271604938272,4.197530864197531,0)" xlink:href="#bN"/><use transform="matrix(0.04938271604938272,0,0,0.04938271604938272,15.012345679012345,0)" xlink:href="#bU"/><use transform="matrix(0.04938271604938272,0,0,0.04938271604938272,21.925925925925924,0)" xlink:href="#bP"/><use transform="matrix(0.04938271604938272,0,0,0.04938271604938272,32.74074074074074,0)" xlink:href="#bL"/><use transform="matrix(0.04938271604938272,0,0,0.04938271604938272,43.55555555555556,0)" xlink:href="#ce"/><use transform="matrix(0.04938271604938272,0,0,0.04938271604938272,54.370370370370374,0)" xlink:href="#cf"/><use transform="matrix(0.04938271604938272,0,0,0.04938271604938272,64.24691358024691,0)" xlink:href="#bS"/><use transform="matrix(0.04938271604938272,0,0,0.04938271604938272,70.12345679012346,0)" xlink:href="#bZ"/><use transform="matrix(0.04938271604938272,0,0,0.04938271604938272,80,0)" xlink:href="#ch"/></g><g id="ai"><use transform="matrix(0.04938271604938272,0,0,0.04938271604938272,0,0)" xlink:href="#cf"/><use transform="matrix(0.04938271604938272,0,0,0.04938271604938272,9.876543209876544,0)" xlink:href="#bP"/><use transform="matrix(0.04938271604938272,0,0,0.04938271604938272,20.69135802469136,0)" xlink:href="#bO"/><use transform="matrix(0.04938271604938272,0,0,0.04938271604938272,25.629629629629633,0)" xlink:href="#bO"/><use transform="matrix(0.04938271604938272,0,0,0.04938271604938272,30.567901234567906,0)" xlink:href="#bM"/><use transform="matrix(0.04938271604938272,0,0,0.04938271604938272,40.44444444444445,0)" xlink:href="#cf"/><use transform="matrix(0.04938271604938272,0,0,0.04938271604938272,50.320987654320994,0)" xlink:href="#bS"/><use transform="matrix(0.04938271604938272,0,0,0.04938271604938272,56.19753086419754,0)" xlink:href="#cg"/><use transform="matrix(0.04938271604938272,0,0,0.04938271604938272,61.13580246913581,0)" xlink:href="#bP"/><use transform="matrix(0.04938271604938272,0,0,0.04938271604938272,71.95061728395062,0)" xlink:href="#bK"/></g><path fill="#333" d="M121-226c-27-7-43 5-38 36h38v33H83V0H34v-157H6v-33h28c-9-59 32-81 87-68v32" id="cj"/><g id="aj"><use transform="matrix(0.04938271604938272,0,0,0.04938271604938272,0,0)" xlink:href="#cj"/><use transform="matrix(0.04938271604938272,0,0,0.04938271604938272,5.8765432098765435,0)" xlink:href="#bP"/><use transform="matrix(0.04938271604938272,0,0,0.04938271604938272,16.691358024691358,0)" xlink:href="#bU"/></g><g id="ak"><use transform="matrix(0.04938271604938272,0,0,0.04938271604938272,0,0)" xlink:href="#bS"/><use transform="matrix(0.04938271604938272,0,0,0.04938271604938272,5.8765432098765435,0)" xlink:href="#bX"/><use transform="matrix(0.04938271604938272,0,0,0.04938271604938272,16.691358024691358,0)" xlink:href="#bM"/></g><g id="al"><use transform="matrix(0.04938271604938272,0,0,0.04938271604938272,0,0)" xlink:href="#bY"/><use transform="matrix(0.04938271604938272,0,0,0.04938271604938272,10.814814814814815,0)" xlink:href="#cg"/><use transform="matrix(0.04938271604938272,0,0,0.04938271604938272,15.753086419753087,0)" xlink:href="#cd"/><use transform="matrix(0.04938271604938272,0,0,0.04938271604938272,25.629629629629633,0)" xlink:href="#bM"/><use transform="matrix(0.04938271604938272,0,0,0.04938271604938272,35.50617283950618,0)" xlink:href="#bK"/></g><path fill="#333" d="M24 0v-248h52v208h133V0H24" id="ck"/><g id="am"><use transform="matrix(0.04938271604938272,0,0,0.04938271604938272,0,0)" xlink:href="#ck"/><use transform="matrix(0.04938271604938272,0,0,0.04938271604938272,10.814814814814815,0)" xlink:href="#bV"/><use transform="matrix(0.04938271604938272,0,0,0.04938271604938272,20.69135802469136,0)" xlink:href="#bR"/><use transform="matrix(0.04938271604938272,0,0,0.04938271604938272,36.49382716049383,0)" xlink:href="#cb"/><use transform="matrix(0.04938271604938272,0,0,0.04938271604938272,47.308641975308646,0)" xlink:href="#bL"/><use transform="matrix(0.04938271604938272,0,0,0.04938271604938272,58.12345679012346,0)" xlink:href="#bV"/></g><linearGradient gradientUnits="userSpaceOnUse" id="an" x1="1850.67" y1="305.11" x2="1970.67" y2="185.11"><stop offset="0%" stop-color="#b0084d"/><stop offset="100%" stop-color="#ff4f8b"/></linearGradient><g id="ao"><use transform="matrix(0.05,0,0,0.05,0,0)" xlink:href="#bz"/><use transform="matrix(0.05,0,0,0.05,12,0)" xlink:href="#bA"/><use transform="matrix(0.05,0,0,0.05,21,0)" xlink:href="#bj"/><use transform="matrix(0.05,0,0,0.05,31,0)" xlink:href="#bf"/><use transform="matrix(0.05,0,0,0.05,41,0)" xlink:href="#bk"/><use transform="matrix(0.05,0,0,0.05,46,0)" xlink:href="#bl"/><use transform="matrix(0.05,0,0,0.05,58,0)" xlink:href="#bp"/><use transform="matrix(0.05,0,0,0.05,63.95,0)" xlink:href="#bv"/><use transform="matrix(0.05,0,0,0.05,67.9,0)" xlink:href="#bs"/><use transform="matrix(0.05,0,0,0.05,77.9,0)" xlink:href="#bB"/><use transform="matrix(0.05,0,0,0.05,87.9,0)" xlink:href="#bj"/></g><g id="ap"><use transform="matrix(0.05,0,0,0.05,0,0)" xlink:href="#bD"/><use transform="matrix(0.05,0,0,0.05,12,0)" xlink:href="#bj"/><use transform="matrix(0.05,0,0,0.05,22,0)" xlink:href="#bh"/><use transform="matrix(0.05,0,0,0.05,31,0)" xlink:href="#bp"/><use transform="matrix(0.05,0,0,0.05,36.95,0)" xlink:href="#bj"/><use transform="matrix(0.05,0,0,0.05,46.95,0)" xlink:href="#bk"/><use transform="matrix(0.05,0,0,0.05,51.95,0)" xlink:href="#bo"/></g><g id="aq"><use transform="matrix(0.05,0,0,0.05,0,0)" xlink:href="#bF"/><use transform="matrix(0.05,0,0,0.05,14.950000000000001,0)" xlink:href="#bc"/><use transform="matrix(0.05,0,0,0.05,24.950000000000003,0)" xlink:href="#bf"/><use transform="matrix(0.05,0,0,0.05,34.95,0)" xlink:href="#bc"/><use transform="matrix(0.05,0,0,0.05,44.95,0)" xlink:href="#bB"/><use transform="matrix(0.05,0,0,0.05,54.95,0)" xlink:href="#bj"/><use transform="matrix(0.05,0,0,0.05,64.95,0)" xlink:href="#bp"/></g><path d="M137 0h-34L2-248h35l83 218 83-218h36" id="cl"/><g id="ar"><use transform="matrix(0.05,0,0,0.05,0,0)" xlink:href="#cl"/><use transform="matrix(0.05,0,0,0.05,12,0)" xlink:href="#bx"/><use transform="matrix(0.05,0,0,0.05,24,0)" xlink:href="#bm"/></g><g id="as"><use transform="matrix(0.05,0,0,0.05,0,0)" xlink:href="#bz"/><use transform="matrix(0.05,0,0,0.05,12,0)" xlink:href="#bf"/><use transform="matrix(0.05,0,0,0.05,22,0)" xlink:href="#bs"/><use transform="matrix(0.05,0,0,0.05,32,0)" xlink:href="#bw"/><use transform="matrix(0.05,0,0,0.05,42,0)" xlink:href="#be"/><use transform="matrix(0.05,0,0,0.05,52,0)" xlink:href="#bv"/><use transform="matrix(0.05,0,0,0.05,55.95,0)" xlink:href="#bf"/><use transform="matrix(0.05,0,0,0.05,65.95,0)" xlink:href="#bk"/></g><g id="at"><use transform="matrix(0.05,0,0,0.05,0,0)" xlink:href="#by"/><use transform="matrix(0.05,0,0,0.05,10,0)" xlink:href="#bc"/><use transform="matrix(0.05,0,0,0.05,20,0)" xlink:href="#bb"/><use transform="matrix(0.05,0,0,0.05,34.95,0)" xlink:href="#bt"/><use transform="matrix(0.05,0,0,0.05,44.95,0)" xlink:href="#bs"/><use transform="matrix(0.05,0,0,0.05,54.95,0)" xlink:href="#bc"/></g><g id="au"><use transform="matrix(0.05,0,0,0.05,0,0)" xlink:href="#bD"/><use transform="matrix(0.05,0,0,0.05,12,0)" xlink:href="#bj"/><use transform="matrix(0.05,0,0,0.05,22,0)" xlink:href="#bp"/><use transform="matrix(0.05,0,0,0.05,27.950000000000003,0)" xlink:href="#bA"/><use transform="matrix(0.05,0,0,0.05,36.95,0)" xlink:href="#bv"/><use transform="matrix(0.05,0,0,0.05,40.900000000000006,0)" xlink:href="#bh"/><use transform="matrix(0.05,0,0,0.05,49.900000000000006,0)" xlink:href="#bj"/></g><g id="av"><use transform="matrix(0.05,0,0,0.05,0,0)" xlink:href="#bz"/><use transform="matrix(0.05,0,0,0.05,12,0)" xlink:href="#bA"/><use transform="matrix(0.05,0,0,0.05,21,0)" xlink:href="#bj"/><use transform="matrix(0.05,0,0,0.05,31,0)" xlink:href="#bf"/><use transform="matrix(0.05,0,0,0.05,41,0)" xlink:href="#bk"/><use transform="matrix(0.05,0,0,0.05,46,0)" xlink:href="#bl"/><use transform="matrix(0.05,0,0,0.05,58,0)" xlink:href="#bp"/><use transform="matrix(0.05,0,0,0.05,63.95,0)" xlink:href="#bv"/><use transform="matrix(0.05,0,0,0.05,67.9,0)" xlink:href="#bs"/><use transform="matrix(0.05,0,0,0.05,77.9,0)" xlink:href="#bB"/><use transform="matrix(0.05,0,0,0.05,87.9,0)" xlink:href="#bj"/></g><g id="aw"><use transform="matrix(0.05,0,0,0.05,0,0)" xlink:href="#bz"/><use transform="matrix(0.05,0,0,0.05,12,0)" xlink:href="#bf"/><use transform="matrix(0.05,0,0,0.05,22,0)" xlink:href="#bs"/><use transform="matrix(0.05,0,0,0.05,32,0)" xlink:href="#bw"/><use transform="matrix(0.05,0,0,0.05,42,0)" xlink:href="#be"/><use transform="matrix(0.05,0,0,0.05,52,0)" xlink:href="#bv"/><use transform="matrix(0.05,0,0,0.05,55.95,0)" xlink:href="#bf"/><use transform="matrix(0.05,0,0,0.05,65.95,0)" xlink:href="#bk"/><use transform="matrix(0.05,0,0,0.05,70.95,0)" xlink:href="#bo"/></g><path fill="#333" d="M76-208v77h127v40H76V0H24v-248h183v40H76" id="cm"/><g id="ax"><use transform="matrix(0.04938271604938272,0,0,0.04938271604938272,0,0)" xlink:href="#cm"/><use transform="matrix(0.04938271604938272,0,0,0.04938271604938272,10.814814814814815,0)" xlink:href="#bM"/><use transform="matrix(0.04938271604938272,0,0,0.04938271604938272,20.69135802469136,0)" xlink:href="#bS"/><use transform="matrix(0.04938271604938272,0,0,0.04938271604938272,26.567901234567902,0)" xlink:href="#cf"/><use transform="matrix(0.04938271604938272,0,0,0.04938271604938272,36.44444444444445,0)" xlink:href="#bX"/></g><path fill="#333" d="M24-248c120-7 223 5 221 122C244-46 201 0 124 0H24v-248zM76-40c74 7 117-18 117-86 0-67-45-88-117-82v168" id="cn"/><path fill="#333" d="M182-130c37 4 62 22 62 59C244 23 116-4 24 0v-248c84 5 203-23 205 63 0 31-19 50-47 55zM76-148c40-3 101 13 101-30 0-44-60-28-101-31v61zm0 110c48-3 116 14 116-37 0-48-69-32-116-35v72" id="co"/><g id="ay"><use transform="matrix(0.04938271604938272,0,0,0.04938271604938272,0,0)" xlink:href="#cn"/><use transform="matrix(0.04938271604938272,0,0,0.04938271604938272,12.790123456790125,0)" xlink:href="#co"/></g><g id="az"><use transform="matrix(0.04938271604938272,0,0,0.04938271604938272,0,0)" xlink:href="#bT"/><use transform="matrix(0.04938271604938272,0,0,0.04938271604938272,11.851851851851853,0)" xlink:href="#bM"/><use transform="matrix(0.04938271604938272,0,0,0.04938271604938272,21.7283950617284,0)" xlink:href="#cf"/><use transform="matrix(0.04938271604938272,0,0,0.04938271604938272,31.60493827160494,0)" xlink:href="#bU"/><use transform="matrix(0.04938271604938272,0,0,0.04938271604938272,38.518518518518526,0)" xlink:href="#bM"/><use transform="matrix(0.04938271604938272,0,0,0.04938271604938272,48.39506172839507,0)" xlink:href="#bS"/></g><path fill="#333" d="M240-174c0 40-23 61-54 70L253 0h-59l-57-94H76V0H24v-248c93 4 217-23 216 74zM76-134c48-2 112 12 112-38 0-48-66-32-112-35v73" id="cp"/><g id="aA"><use transform="matrix(0.04938271604938272,0,0,0.04938271604938272,0,0)" xlink:href="#cp"/><use transform="matrix(0.04938271604938272,0,0,0.04938271604938272,12.790123456790125,0)" xlink:href="#bM"/><use transform="matrix(0.04938271604938272,0,0,0.04938271604938272,22.66666666666667,0)" xlink:href="#bY"/><use transform="matrix(0.04938271604938272,0,0,0.04938271604938272,33.48148148148149,0)" xlink:href="#cg"/><use transform="matrix(0.04938271604938272,0,0,0.04938271604938272,38.41975308641976,0)" xlink:href="#bZ"/><use transform="matrix(0.04938271604938272,0,0,0.04938271604938272,48.296296296296305,0)" xlink:href="#bS"/><use transform="matrix(0.04938271604938272,0,0,0.04938271604938272,54.17283950617284,0)" xlink:href="#bM"/><use transform="matrix(0.04938271604938272,0,0,0.04938271604938272,64.0493827160494,0)" xlink:href="#bU"/></g><g id="aB"><use transform="matrix(0.04938271604938272,0,0,0.04938271604938272,0,0)" xlink:href="#ca"/><use transform="matrix(0.04938271604938272,0,0,0.04938271604938272,11.851851851851853,0)" xlink:href="#cd"/><use transform="matrix(0.04938271604938272,0,0,0.04938271604938272,21.7283950617284,0)" xlink:href="#bM"/><use transform="matrix(0.04938271604938272,0,0,0.04938271604938272,31.60493827160494,0)" xlink:href="#bK"/><use transform="matrix(0.04938271604938272,0,0,0.04938271604938272,42.41975308641976,0)" xlink:href="#bS"/></g><g id="aC"><use transform="matrix(0.04938271604938272,0,0,0.04938271604938272,0,0)" xlink:href="#bS"/><use transform="matrix(0.04938271604938272,0,0,0.04938271604938272,5.8765432098765435,0)" xlink:href="#bP"/></g><g id="aD"><use transform="matrix(0.04938271604938272,0,0,0.04938271604938272,0,0)" xlink:href="#bS"/><use transform="matrix(0.04938271604938272,0,0,0.04938271604938272,5.8765432098765435,0)" xlink:href="#bX"/><use transform="matrix(0.04938271604938272,0,0,0.04938271604938272,16.691358024691358,0)" xlink:href="#bM"/></g><g id="aE"><use transform="matrix(0.04938271604938272,0,0,0.04938271604938272,0,0)" xlink:href="#cb"/><use transform="matrix(0.04938271604938272,0,0,0.04938271604938272,10.814814814814815,0)" xlink:href="#ce"/><use transform="matrix(0.04938271604938272,0,0,0.04938271604938272,21.62962962962963,0)" xlink:href="#bZ"/></g><path fill="#333" d="M24-248c93 1 206-16 204 79-1 75-69 88-152 82V0H24v-248zm52 121c47 0 100 7 100-41 0-47-54-39-100-39v80" id="cq"/><g id="aF"><use transform="matrix(0.04938271604938272,0,0,0.04938271604938272,0,0)" xlink:href="#cq"/><use transform="matrix(0.04938271604938272,0,0,0.04938271604938272,11.851851851851853,0)" xlink:href="#ce"/><use transform="matrix(0.04938271604938272,0,0,0.04938271604938272,22.666666666666668,0)" xlink:href="#cb"/><use transform="matrix(0.04938271604938272,0,0,0.04938271604938272,33.48148148148148,0)" xlink:href="#bO"/><use transform="matrix(0.04938271604938272,0,0,0.04938271604938272,38.41975308641975,0)" xlink:href="#cg"/><use transform="matrix(0.04938271604938272,0,0,0.04938271604938272,43.358024691358025,0)" xlink:href="#bZ"/><use transform="matrix(0.04938271604938272,0,0,0.04938271604938272,53.23456790123457,0)" xlink:href="#bX"/></g><g id="aG"><use transform="matrix(0.04938271604938272,0,0,0.04938271604938272,0,0)" xlink:href="#bO"/><use transform="matrix(0.04938271604938272,0,0,0.04938271604938272,4.938271604938272,0)" xlink:href="#cg"/><use transform="matrix(0.04938271604938272,0,0,0.04938271604938272,9.876543209876544,0)" xlink:href="#bZ"/><use transform="matrix(0.04938271604938272,0,0,0.04938271604938272,19.75308641975309,0)" xlink:href="#bS"/><use transform="matrix(0.04938271604938272,0,0,0.04938271604938272,25.629629629629633,0)" xlink:href="#bK"/><use transform="matrix(0.04938271604938272,0,0,0.04938271604938272,36.44444444444445,0)" xlink:href="#bM"/><use transform="matrix(0.04938271604938272,0,0,0.04938271604938272,46.320987654320994,0)" xlink:href="#bU"/><use transform="matrix(0.04938271604938272,0,0,0.04938271604938272,53.23456790123457,0)" xlink:href="#bZ"/></g><g id="aH"><use transform="matrix(0.05,0,0,0.05,0,0)" xlink:href="#bC"/><use transform="matrix(0.05,0,0,0.05,12.950000000000001,0)" xlink:href="#bi"/><use transform="matrix(0.05,0,0,0.05,22.950000000000003,0)" xlink:href="#bn"/><use transform="matrix(0.05,0,0,0.05,26.900000000000002,0)" xlink:href="#bj"/></g><path fill="#3a414a" d="M30-248c118-7 216 8 213 122C240-48 200 0 122 0H30v-248zM63-27c89 8 146-16 146-99s-60-101-146-95v194" id="cr"/><path fill="#3a414a" d="M100-194c62-1 85 37 85 99 1 63-27 99-86 99S16-35 15-95c0-66 28-99 85-99zM99-20c44 1 53-31 53-75 0-43-8-75-51-75s-53 32-53 75 10 74 51 75" id="cs"/><path fill="#3a414a" d="M206 0h-36l-40-164L89 0H53L-1-190h32L70-26l43-164h34l41 164 42-164h31" id="ct"/><path fill="#3a414a" d="M117-194c89-4 53 116 60 194h-32v-121c0-31-8-49-39-48C34-167 62-67 57 0H25l-1-190h30c1 10-1 24 2 32 11-22 29-35 61-36" id="cu"/><path fill="#3a414a" d="M135-143c-3-34-86-38-87 0 15 53 115 12 119 90S17 21 10-45l28-5c4 36 97 45 98 0-10-56-113-15-118-90-4-57 82-63 122-42 12 7 21 19 24 35" id="cv"/><path fill="#3a414a" d="M59-47c-2 24 18 29 38 22v24C64 9 27 4 27-40v-127H5v-23h24l9-43h21v43h35v23H59v120" id="cw"/><path fill="#3a414a" d="M114-163C36-179 61-72 57 0H25l-1-190h30c1 12-1 29 2 39 6-27 23-49 58-41v29" id="cx"/><path fill="#3a414a" d="M100-194c63 0 86 42 84 106H49c0 40 14 67 53 68 26 1 43-12 49-29l28 8c-11 28-37 45-77 45C44 4 14-33 15-96c1-61 26-98 85-98zm52 81c6-60-76-77-97-28-3 7-6 17-6 28h103" id="cy"/><path fill="#3a414a" d="M141-36C126-15 110 5 73 4 37 3 15-17 15-53c-1-64 63-63 125-63 3-35-9-54-41-54-24 1-41 7-42 31l-33-3c5-37 33-52 76-52 45 0 72 20 72 64v82c-1 20 7 32 28 27v20c-31 9-61-2-59-35zM48-53c0 20 12 33 32 33 41-3 63-29 60-74-43 2-92-5-92 41" id="cz"/><path fill="#3a414a" d="M210-169c-67 3-38 105-44 169h-31v-121c0-29-5-50-35-48C34-165 62-65 56 0H25l-1-190h30c1 10-1 24 2 32 10-44 99-50 107 0 11-21 27-35 58-36 85-2 47 119 55 194h-31v-121c0-29-5-49-35-48" id="cA"/><g id="aI"><use transform="matrix(0.06172839506172839,0,0,0.06172839506172839,0,0)" xlink:href="#cr"/><use transform="matrix(0.06172839506172839,0,0,0.06172839506172839,15.987654320987653,0)" xlink:href="#cs"/><use transform="matrix(0.06172839506172839,0,0,0.06172839506172839,28.333333333333332,0)" xlink:href="#ct"/><use transform="matrix(0.06172839506172839,0,0,0.06172839506172839,44.32098765432099,0)" xlink:href="#cu"/><use transform="matrix(0.06172839506172839,0,0,0.06172839506172839,56.666666666666664,0)" xlink:href="#cv"/><use transform="matrix(0.06172839506172839,0,0,0.06172839506172839,67.77777777777777,0)" xlink:href="#cw"/><use transform="matrix(0.06172839506172839,0,0,0.06172839506172839,73.9506172839506,0)" xlink:href="#cx"/><use transform="matrix(0.06172839506172839,0,0,0.06172839506172839,81.29629629629629,0)" xlink:href="#cy"/><use transform="matrix(0.06172839506172839,0,0,0.06172839506172839,93.64197530864197,0)" xlink:href="#cz"/><use transform="matrix(0.06172839506172839,0,0,0.06172839506172839,105.98765432098766,0)" xlink:href="#cA"/></g><path fill="#3a414a" d="M30-248c87 1 191-15 191 75 0 78-77 80-158 76V0H30v-248zm33 125c57 0 124 11 124-50 0-59-68-47-124-48v98" id="cB"/><path fill="#3a414a" d="M96-169c-40 0-48 33-48 73s9 75 48 75c24 0 41-14 43-38l32 2c-6 37-31 61-74 61-59 0-76-41-82-99-10-93 101-131 147-64 4 7 5 14 7 22l-32 3c-4-21-16-35-41-35" id="cC"/><g id="aJ"><use transform="matrix(0.06172839506172839,0,0,0.06172839506172839,0,0)" xlink:href="#cB"/><use transform="matrix(0.06172839506172839,0,0,0.06172839506172839,14.814814814814813,0)" xlink:href="#cx"/><use transform="matrix(0.06172839506172839,0,0,0.06172839506172839,22.160493827160494,0)" xlink:href="#cs"/><use transform="matrix(0.06172839506172839,0,0,0.06172839506172839,34.50617283950617,0)" xlink:href="#cC"/><use transform="matrix(0.06172839506172839,0,0,0.06172839506172839,45.61728395061728,0)" xlink:href="#cy"/><use transform="matrix(0.06172839506172839,0,0,0.06172839506172839,57.962962962962955,0)" xlink:href="#cv"/><use transform="matrix(0.06172839506172839,0,0,0.06172839506172839,69.07407407407406,0)" xlink:href="#cv"/><use transform="matrix(0.06172839506172839,0,0,0.06172839506172839,80.18518518518518,0)" xlink:href="#cy"/><use transform="matrix(0.06172839506172839,0,0,0.06172839506172839,92.53086419753086,0)" xlink:href="#cv"/></g><path fill="#333" d="M67-125c0 54 23 88 75 88 28 0 53-7 68-21v-34h-60v-39h108v91C232-14 192 4 140 4 58 4 20-42 15-125 8-236 126-280 215-234c19 10 29 26 37 47l-47 15c-11-23-29-39-63-39-53 1-75 33-75 86" id="cD"/><path fill="#333" d="M147 0H94L2-248h55l64 206c17-72 42-137 63-206h54" id="cE"/><g id="aK"><use transform="matrix(0.04938271604938272,0,0,0.04938271604938272,0,0)" xlink:href="#cD"/><use transform="matrix(0.04938271604938272,0,0,0.04938271604938272,13.827160493827162,0)" xlink:href="#bM"/><use transform="matrix(0.04938271604938272,0,0,0.04938271604938272,23.703703703703706,0)" xlink:href="#bS"/><use transform="matrix(0.04938271604938272,0,0,0.04938271604938272,29.58024691358025,0)" xlink:href="#bT"/><use transform="matrix(0.04938271604938272,0,0,0.04938271604938272,41.4320987654321,0)" xlink:href="#bM"/><use transform="matrix(0.04938271604938272,0,0,0.04938271604938272,51.308641975308646,0)" xlink:href="#cf"/><use transform="matrix(0.04938271604938272,0,0,0.04938271604938272,61.18518518518519,0)" xlink:href="#bU"/><use transform="matrix(0.04938271604938272,0,0,0.04938271604938272,68.09876543209877,0)" xlink:href="#bM"/><use transform="matrix(0.04938271604938272,0,0,0.04938271604938272,77.97530864197532,0)" xlink:href="#bS"/><use transform="matrix(0.04938271604938272,0,0,0.04938271604938272,83.85185185185186,0)" xlink:href="#cE"/><use transform="matrix(0.04938271604938272,0,0,0.04938271604938272,94.71604938271605,0)" xlink:href="#bV"/><use transform="matrix(0.04938271604938272,0,0,0.04938271604938272,104.5925925925926,0)" xlink:href="#bO"/><use transform="matrix(0.04938271604938272,0,0,0.04938271604938272,109.53086419753085,0)" xlink:href="#ce"/><use transform="matrix(0.04938271604938272,0,0,0.04938271604938272,120.34567901234567,0)" xlink:href="#bM"/></g><g id="aL"><use transform="matrix(0.04938271604938272,0,0,0.04938271604938272,0,0)" xlink:href="#cj"/><use transform="matrix(0.04938271604938272,0,0,0.04938271604938272,5.8765432098765435,0)" xlink:href="#bP"/><use transform="matrix(0.04938271604938272,0,0,0.04938271604938272,16.691358024691358,0)" xlink:href="#bU"/></g><g id="aM"><use transform="matrix(0.04938271604938272,0,0,0.04938271604938272,0,0)" xlink:href="#cn"/><use transform="matrix(0.04938271604938272,0,0,0.04938271604938272,12.790123456790125,0)" xlink:href="#bP"/><use transform="matrix(0.04938271604938272,0,0,0.04938271604938272,23.60493827160494,0)" xlink:href="#cf"/><use transform="matrix(0.04938271604938272,0,0,0.04938271604938272,33.48148148148148,0)" xlink:href="#cn"/><use transform="matrix(0.04938271604938272,0,0,0.04938271604938272,46.27160493827161,0)" xlink:href="#co"/></g></defs></g></svg>