<svg xmlns="http://www.w3.org/2000/svg" xmlns:xlink="http://www.w3.org/1999/xlink" xmlns:lucid="lucid" width="2167.27" height="820"><g transform="translate(-132.73456790123458 -60)" lucid:page-tab-id="0_0"><path d="M0 0h3456v1360H0z" fill="#fff"/><path d="M180 400h120v120H180V400z" stroke="#000" stroke-opacity="0" fill="url(#a)"/><path d="M260.8 476.76c0 .4-.07.74-.07 1.07v11.23c0 6.77-12.23 12.22-27.16 12.22-12.97 0-26.07-3.55-27.16-10.32h-.12v-60.68c0-7.5 14.05-11.56 27.3-11.56 7.36 0 14.45 1.24 19.45 3.3l-1.42 3.47c-4.5-1.9-11.13-2.98-18.03-2.98-14.6 0-23.5 4.54-23.5 7.76 0 3.22 8.9 7.76 23.5 7.76h1.09l.13 3.7c-.42.1-.82.1-1.23.1-9.05 0-18.5-1.9-23.5-5.53v8.26c0 1 .87 2.15 2.5 3.22 3.78 2.4 10.47 4.05 17.9 4.38l-.14 3.8c-7.77-.34-14.52-2-18.92-4.55-.6.6-1.34 2-1.34 2.74 0 3.3 8.92 7.76 23.5 7.76 1.37 0 2.72 0 4.07-.08l.27 3.7c-1.42.18-2.9.18-4.33.18-9.05 0-18.5-1.9-23.5-5.45v6.85c0 1.07.87 2.23 2.5 3.3 4.25 2.73 12.3 4.46 21 4.46h.6v3.8h-.6c-8.98 0-18.5-1.9-23.5-4.8-.4.42-.28 1.08-.14 1.83.07.4.13.73.13 1.06 0 3.3 8.92 7.76 23.5 7.76 14.54 0 23.52-4.46 23.52-7.76 0-1.07-1.14-2.15-2.1-2.9-.73.5-1.54.92-2.56 1.33l-1.4-3.48c1-.4 1.88-.9 2.55-1.32 2.03-1.4 3.38-3.38 3.38-4.13h3.78c0 1.82-1.2 3.72-2.7 5.2 2.23 2 2.77 3.97 2.77 5.3zm12.5-29.97l-33.78 34.1c-.34.4-.88.57-1.35.57-.34 0-.68-.1-.95-.25-.74-.5-1.08-1.4-.8-2.23l8.57-25.94h-8.72c-.6 0-1.22-.32-1.56-.9-.34-.58-.4-1.24-.13-1.82l9.38-20.9c.34-.65.94-1.06 1.7-1.06h20.66c.6 0 1.22.33 1.56.82.33.5.4 1.16.2 1.74l-4.66 12.63h8.5c.75 0 1.5.4 1.76 1.16.28.66.14 1.48-.4 2.06zm-5.88.57h-6.7c-.66 0-1.2-.33-1.54-.83-.34-.5-.47-1.15-.2-1.73l4.66-12.62h-16.76l-7.63 17.1h8.3c.62 0 1.16.24 1.56.73.35.5.42 1.17.22 1.74l-6.83 20.8zm-10.47 35.58c-5.07 3.55-14.46 5.37-23.38 5.37-9.05 0-18.5-1.9-23.5-5.45v7.1c0 3.14 8.9 7.5 23.5 7.5 14.06 0 23.38-5.02 23.38-8.4zm-44.8-37.73l1.76-3.38c1.23.66 2.78 1.24 4.47 1.8l-1 3.65c-1.97-.6-3.73-1.34-5.2-2.08zm0 45.5l1.76-3.3c1.23.65 2.78 1.23 4.47 1.72l-1 3.64c-1.97-.58-3.73-1.24-5.2-2.07zm5.2-20.73c-1.95-.6-3.7-1.25-5.2-2l1.76-3.38c1.23.66 2.78 1.24 4.47 1.74z" stroke="#000" stroke-opacity="0" fill="#fff"/><use xlink:href="#b" transform="matrix(1,0,0,1,150,529) translate(49.29012345679012 17.77777777777778)"/><use xlink:href="#c" transform="matrix(1,0,0,1,150,529) translate(3.73456790123457 44.44444444444444)"/><use xlink:href="#d" transform="matrix(1,0,0,1,150,529) translate(123.30246913580247 44.44444444444444)"/><path d="M348.53 460.5H300.5v-1h48.03zm172.15 0h-32.15v-1h32.15z" stroke="#3a414a" stroke-width=".05" fill="#3a414a"/><path d="M300.5 460.5h-.5v-1h.5z" fill="#3a414a"/><path d="M300.54 460.52h-.56v-1.04h.56zm-.52-1v.96h.47v-.96z" stroke="#3a414a" stroke-width=".05" fill="#3a414a"/><path d="M535.45 460l-14.27 4.63v-9.26z" fill="#3a414a"/><path d="M537.06 460l-16.38 5.32v-10.64zm-15.38 3.95l12.15-3.95-12.15-3.95z" stroke="#3a414a" stroke-width=".05" fill="#3a414a"/><use xlink:href="#e" transform="matrix(1,0,0,1,348.5318517131193,449.3333333333333) translate(0.0049999999999954525 14.222222222222223)"/><use xlink:href="#f" transform="matrix(1,0,0,1,348.5318517131193,449.3333333333333) translate(65.14080246913579 14.222222222222223)"/><path d="M1020.9 458.83H920.5v-1h100.4zm322.72 0h-84.53v-1h84.52zM920.5 458.83h-.5v-1h.5z" stroke="#3a414a" stroke-width=".05" fill="#3a414a"/><path d="M1358.38 458.33l-14.26 4.64v-9.27z" fill="#3a414a"/><path d="M1360 458.33l-16.38 5.33V453zm-15.38 3.95l12.14-3.95-12.14-3.94z" stroke="#3a414a" stroke-width=".05" fill="#3a414a"/><use xlink:href="#g" transform="matrix(1,0,0,1,1020.9135802469136,426.3333333333335) translate(0.0049999999999954525 14.222222222222223)"/><use xlink:href="#h" transform="matrix(1,0,0,1,1020.9135802469136,426.3333333333335) translate(31.26425925925926 14.222222222222223)"/><use xlink:href="#i" transform="matrix(1,0,0,1,1020.9135802469136,426.3333333333335) translate(86.47413580246915 14.222222222222223)"/><use xlink:href="#j" transform="matrix(1,0,0,1,1020.9135802469136,426.3333333333335) translate(131.80746913580248 14.222222222222223)"/><use xlink:href="#k" transform="matrix(1,0,0,1,1020.9135802469136,426.3333333333335) translate(42.74574074074074 35.55555555555556)"/><use xlink:href="#l" transform="matrix(1,0,0,1,1020.9135802469136,426.3333333333335) translate(111.73339506172839 35.55555555555556)"/><use xlink:href="#m" transform="matrix(1,0,0,1,1020.9135802469136,426.3333333333335) translate(178.74574074074076 35.55555555555556)"/><use xlink:href="#n" transform="matrix(1,0,0,1,1020.9135802469136,426.3333333333335) translate(31.659320987654326 56.88888888888889)"/><use xlink:href="#o" transform="matrix(1,0,0,1,1020.9135802469136,426.3333333333335) translate(82.52351851851853 56.88888888888889)"/><path d="M1360 400h120v120h-120V400z" stroke="#000" stroke-opacity="0" fill="url(#p)"/><path d="M1452.25 473.1c0 3.15-2.23 5.78-5.23 6.36-1.85 4.68-5.46 8.77-9.77 10.9v7.08h-3.77v-5.77c-1.15.22-2.46.44-3.6.5v5.27h-3.78v-5.26c-1.23-.15-2.62-.3-3.93-.66v5.92h-3.77v-7.3c-4.3-2.27-8-6.3-9.76-10.68-2.93-.58-5.16-3.2-5.16-6.36 0-3.14 2.16-5.77 5.16-6.43 2.07-5.62 6.92-11.4 13-13 .7-2.86 3.23-4.97 6.3-4.97 3.08 0 5.7 2.12 6.4 4.97 6.14 1.68 10.76 7.52 12.76 13 2.92.66 5.15 3.3 5.15 6.43zm7.23-14.32c.08 4.24-1.62 8.33-4.54 11.1l-2.54-2.77c2.16-1.96 3.4-5.03 3.3-8.17 0-6.14-4.45-11.04-10.3-11.55-1.07-.07-1.77-.95-1.7-1.97v-.5c0-3.8-3.07-6.87-6.83-6.87-1.77 0-3.47.65-4.77 1.9-.46.44-1.08.58-1.7.44-.6-.08-1.15-.6-1.38-1.18-2.46-6.65-8.85-11.1-15.92-11.1-9.4 0-17 7.66-17 17.16 0 .8-.54 1.54-1.3 1.75-5.1 1.7-8.47 6.45-8.47 11.78 0 6.87 5.54 12.42 12.3 12.42v3.73c-8.84 0-16.07-7.23-16.07-16.15 0-6.5 3.92-12.35 9.85-14.83.7-10.9 9.7-19.6 20.7-19.6 7.77 0 14.92 4.47 18.46 11.34 1.6-.96 3.38-1.47 5.3-1.47 5.47 0 10 4.23 10.54 9.64 7 1.46 12.08 7.6 12.08 14.9zm-33.38 29.6v-26.9c-2-.58-3.54-2.04-4.23-3.94-4.16 1.4-7.62 5.4-9.4 9.5 1.86.73 3.24 2.26 3.78 4.16h4.08c1 0 1.84.8 1.84 1.9v14.55c1.08.36 2.46.58 3.93.73zm7.38-.6V473.1c0-1.1.85-1.9 1.92-1.9h4c.62-1.9 2-3.43 3.77-4.16-1.7-4.1-5-8.04-9.07-9.5-.7 1.9-2.3 3.36-4.23 3.94v26.9c1.23-.07 2.53-.3 3.6-.6zm9.62-8.68c-1.77-.73-3.08-2.27-3.7-4.17h-2.15v11.1c2.46-1.67 4.54-4.16 5.85-6.93zm-24.7 6.65v-10.82h-2.15c-.54 1.9-1.92 3.44-3.7 4.17 1.24 2.55 3.4 4.97 5.86 6.65zm6.77-30.48c0 1.54 1.23 2.78 2.77 2.78s2.85-1.24 2.85-2.78c0-1.53-1.32-2.85-2.86-2.85-1.54 0-2.77 1.32-2.77 2.85zm-15.15 20.6c1.54 0 2.77-1.23 2.77-2.77 0-1.6-1.24-2.85-2.78-2.85-1.54 0-2.85 1.25-2.85 2.85 0 1.54 1.3 2.78 2.85 2.78zm38.46-2.77c0-1.6-1.23-2.85-2.77-2.85-1.53 0-2.84 1.25-2.84 2.85 0 1.54 1.3 2.78 2.85 2.78s2.78-1.24 2.78-2.78z" stroke="#000" stroke-opacity="0" fill="#fff"/><use xlink:href="#q" transform="matrix(1,0,0,1,1330,529) translate(55.25 14.4)"/><use xlink:href="#r" transform="matrix(1,0,0,1,1330,529) translate(85.85 14.4)"/><path d="M537.06 400h120v120h-120V400z" stroke="#000" stroke-opacity="0" fill="url(#s)"/><path d="M618.18 483.1c5.08 0 9.12 4.04 9.12 9.07 0 4.95-4.04 9-9.12 9-5 0-9.1-4.05-9.1-9 0-2.63 1.2-5.03 2.97-6.67l-5.24-8.74-.07.08h-17.5c-.64 0-1.3-.4-1.6-1l-8.72-15c-.4-.57-.4-1.23 0-1.8l8.56-14.76-4.84-8c-.9.33-1.85.5-2.9.5-5 0-9.1-4.04-9.1-9 0-5.02 4.1-9.06 9.1-9.06s9.1 4.04 9.1 9.07c0 2.54-1.12 4.94-2.97 6.58l5.24 8.66h15.63c.65 0 1.3.4 1.62 1l8.7 15c.33.57.33 1.23 0 1.8l-7.57 13.03 5.8 9.73c.97-.33 1.94-.5 2.9-.5zm-12.58-10.05l7.66-13.1-7.66-13.12h-15.24l-7.66 13.1 7.66 13.12zm-29.83 10.55l4.35 6.35h16.05v3.7h-17.02c-.64 0-1.2-.32-1.6-.82l-5.25-7.58c-.65.16-1.3.25-2.02.25-5 0-9.1-4.04-9.1-9.07 0-2.3.88-4.37 2.33-5.94l-5.55-9.65c-.33-.58-.33-1.24 0-1.82l8.95-15.33 3.22 1.8-8.38 14.44 4.83 8.24c1.13-.5 2.42-.74 3.7-.74 5 0 9.13 4.04 9.13 9 0 2.96-1.46 5.5-3.63 7.16zm56.93-33.88l5.4 9.3c.32.6.32 1.25 0 1.83l-7.74 13.35-3.3-1.9 7.25-12.36-5-8.5c-.7.17-1.52.34-2.33.34-5 0-9.1-4.04-9.1-9.07 0-2.38.96-4.6 2.57-6.25l-4.5-6.52h-16.06v-3.7h17c.66 0 1.22.32 1.63.82l5.1 7.33c1.03-.4 2.16-.66 3.37-.66 5 0 9.12 4.04 9.12 9 0 2.88-1.38 5.35-3.4 7zm-62.42 31.98c2.9 0 5.33-2.3 5.33-5.27 0-2.9-2.4-5.28-5.32-5.28-2.9 0-5.32 2.4-5.32 5.28 0 2.97 2.42 5.27 5.32 5.27zm9.44-48.63c2.98 0 5.32-2.4 5.32-5.28 0-2.98-2.34-5.37-5.32-5.37-2.9 0-5.32 2.4-5.32 5.36 0 2.87 2.42 5.26 5.32 5.26zM626.97 448c2.9 0 5.33-2.32 5.33-5.3 0-2.88-2.42-5.27-5.33-5.27-2.9 0-5.32 2.4-5.32 5.28 0 2.98 2.42 5.3 5.32 5.3zm-8.8 49.45c3 0 5.34-2.4 5.34-5.28 0-2.96-2.33-5.36-5.32-5.36-2.9 0-5.32 2.4-5.32 5.37 0 2.9 2.42 5.28 5.32 5.28z" stroke="#000" stroke-opacity="0" fill="#fff"/><use xlink:href="#t" transform="matrix(1,0,0,1,507.0637034262386,529) translate(5.574999999999989 14.4)"/><use xlink:href="#u" transform="matrix(1,0,0,1,507.0637034262386,529) translate(76.52499999999999 14.4)"/><use xlink:href="#v" transform="matrix(1,0,0,1,507.0637034262386,529) translate(72.025 36)"/><path d="M820 400h120v120H820V400z" stroke="#000" stroke-opacity="0" fill="url(#w)"/><path d="M864.97 437.43h3.8v3.8h-3.8v18.63c0-.42.25-.9.58-1.24l5.62-5.6 2.64 2.63-4.28 4.3 4.3 4.28-2.65 2.63-5.62-5.6c-.33-.33-.58-.82-.58-1.32v18.7h3.8v3.8h-3.8v16.82c0 .66-.33 1.24-.9 1.65-.25.18-.58.26-1 .26-.24 0-.5-.08-.82-.17l-22.46-11.3c-.67-.33-1.08-.9-1.08-1.65v-54.33c0-.66.33-1.32.9-1.65l22.55-13.1c.58-.33 1.32-.33 1.9 0 .57.33.9 1 .9 1.65zm56.3-3.7v54.32c0 .74-.4 1.32-1.06 1.65L897.76 501c-.33.08-.58.16-.83.16-.4 0-.74-.08-1-.25-.56-.4-.9-.98-.9-1.64v-16.8h-3.8v-3.8h3.8v-18.72c0 .5-.24 1-.57 1.32l-5.62 5.6-2.64-2.63 4.28-4.3-4.3-4.28 2.65-2.63 5.62 5.6c.33.33.58.82.58 1.24v-18.63h-3.8v-3.8h3.8v-16.8c0-.67.33-1.33.9-1.66.58-.33 1.33-.33 1.9 0l22.54 13.1c.58.33.9 1 .9 1.65zm-60-9.9l-18.84 10.97v52.1l18.83 9.3zm56.3 10.97l-18.83-10.97v72.38l18.83-9.3zm-32.04 16.4l-7.5 20.6-3.56-1.23 7.5-20.6zm-13.04-9.97v-3.8h5.6v3.8zm9.4 0v-3.8h5.6v3.8zm-9.4 41.22v-3.8h5.6v3.8zm9.4 0v-3.8h5.6v3.8z" stroke="#000" stroke-opacity="0" fill="#fff"/><use xlink:href="#t" transform="matrix(1,0,0,1,790,529) translate(2.049999999999997 14.4)"/><use xlink:href="#x" transform="matrix(1,0,0,1,790,529) translate(73 14.4)"/><use xlink:href="#y" transform="matrix(1,0,0,1,790,529) translate(107 14.4)"/><path d="M657.56 460h146.06" stroke="#3a414a" fill="none"/><path d="M657.58 460.5h-.52v-1h.52z" stroke="#3a414a" stroke-width=".05" fill="#3a414a"/><path d="M818.38 460l-14.26 4.63v-9.26z" stroke="#3a414a" fill="#3a414a"/><path d="M1485.55 460.5h-5.05v-1h5.05zm15.14 0h-10.1v-1h10.1zm15.14 0h-10.1v-1h10.1zm15.15 0h-10.1v-1h10.1zm15.13 0h-10.1v-1h10.1zm15.15 0h-10.1v-1h10.1zm9.14 0h-4.1v-1h4.1zm157.46 0h-10.1v-1h10.1zm15.15 0h-10.1v-1h10.1zm15.14 0h-10.1v-1h10.1zm15.15 0h-10.1v-1h10.1zm15.14 0h-10.1v-1h10.1zm15.15 0h-10.1v-1h10.1zm15.16 0h-10.1v-1h10.1zm15.14 0h-10.1v-1h10.1zm16.6-6.48l-.08 1-.24 1-.4.93-.52.87-.66.78-.78.66-.87.53-.94.38-.98.24-1 .08h-5.07v-1h5.03l.88-.07.84-.2.8-.33.73-.45.66-.56.55-.67.45-.73.33-.8.2-.84.07-.88v-5.03h1zm-137.76 6.48h-1.38v-1h1.38zm137.76-16.6h-1v-10.1h1zm0-15.16h-1v-10.1h1zm0-15.16h-1v-10.1h1zm0-15.16h-1v-10.1h1zm0-15.16h-1v-10.1h1zm0-15.15h-1V358h1zm0-15.15h-1v-10.1h1zm0-15.16h-1v-10.12h1zm0-15.17h-1v-10.1h1zm0-15.16h-1v-10.1h1zm0-15.15h-1v-10.1h1zm0-15.16h-1v-10.1h1zm0-15.16h-1v-10.1h1zm0-15.16h-1v-10.1h1zm0-15.16h-1v-10.1h1zm0-15.15h-1v-10.1h1zm0-15.16h-1v-10.1h1zm0-15.16h-1v-10.1h1zm10.65-25.7h-5.13l-.88.07-.84.2-.8.33-.73.45-.66.56-.55.67-.45.73-.33.8-.2.84-.07.88v5.03h-1v-5.07l.08-1 .24-1 .4-.93.52-.87.66-.78.78-.66.87-.53.94-.38.98-.24 1-.08h5.17zm15.44 0h-10.3v-1h10.3zm15.44 0h-10.3v-1h10.3zm15.44 0h-10.3v-1h10.3zm15.45 0h-10.3v-1h10.3zm15.44 0h-10.3v-1h10.3zm15.45 0h-10.3v-1h10.3zm15.44 0h-10.3v-1h10.3zm15.45 0h-10.3v-1h10.3zm15.45 0h-10.3v-1h10.3zm15.45 0h-10.3v-1h10.3zm15.44 0h-10.3v-1h10.3zm15.44 0h-10.3v-1h10.3zm15.45 0h-10.3v-1h10.3zm15.45 0h-10.3v-1h10.3zm15.44 0h-10.3v-1h10.3zm10.3 0h-5.15v-1h5.15z" stroke="#3a414a" stroke-width=".05" fill="#3a414a"/><path d="M1480.5 460.5h-.5v-1h.5z" fill="#3a414a"/><path d="M1480.54 460.52h-.57v-1.04h.57zm-.5-1v.96h.45v-.96z" stroke="#3a414a" stroke-width=".05" fill="#3a414a"/><path d="M2117.88 160l-14.26 4.63v-9.26z" fill="#3a414a"/><path d="M2119.5 160l-16.38 5.32v-10.64zm-15.38 3.95l12.14-3.95-12.14-3.95zM1485.44 460.5h-4.94v-1h4.94zm14.83 0h-9.9v-1h9.9zm14.82 0h-9.9v-1h9.9zm14.8 0h-9.87v-1h9.88zm14.84 0h-9.88v-1h9.88zm14.82 0h-9.88v-1h9.88zm10.86 0h-5.92v-1h5.92zm152.2 0h-9.87v-1h9.88zm14.83 0h-9.88v-1h9.88zm14.83 0h-9.9v-1h9.9zm14.82 0h-9.88v-1h9.88zm14.83 0h-9.9v-1h9.9zm14.82 0h-9.88v-1h9.88zm14.82 0h-9.88v-1h9.87zm14.83 0h-9.88v-1h9.88zm14.82 0h-9.88v-1h9.88zm14.83 0h-9.9v-1h9.9zm14.82 0H1861v-1h9.87zm14.83 0h-9.9v-1h9.9zm14.82 0h-9.88v-1h9.88zm14.82 0h-9.88v-1h9.88zm14.83 0h-9.9v-1h9.9zm14.82 0h-9.9v-1h9.9zm14.82 0h-9.9v-1h9.9zm14.82 0h-9.88v-1h9.88zm14.82 0h-9.88v-1h9.88zm14.83 0h-9.9v-1h9.9zm14.8 0h-9.87v-1h9.88zm14.84 0h-9.9v-1h9.9zm14.82 0h-9.88v-1h9.88zm14.82 0h-9.88v-1h9.9zm14.83 0h-9.87v-1h9.88zm14.83 0h-9.88v-1h9.88zm9.9 0h-4.95v-1h4.94z" stroke="#3a414a" stroke-width=".05" fill="#3a414a"/><path d="M1480.5 460.5h-.5v-1h.5z" fill="#3a414a"/><path d="M1480.54 460.52h-.57v-1.04h.57zm-.5-1v.96h.45v-.96z" stroke="#3a414a" stroke-width=".05" fill="#3a414a"/><path d="M2117.88 460l-14.26 4.63v-9.26z" fill="#3a414a"/><path d="M2119.5 460l-16.38 5.32v-10.64zm-15.38 3.95l12.14-3.95-12.14-3.95zM1850.5 773.98l.07.88.2.84.33.8.45.73.56.66.67.55.73.45.8.33.84.2.88.07h5.13v1h-5.17l-1-.08-1-.24-.93-.4-.87-.52-.78-.66-.66-.78-.53-.87-.38-.94-.24-.98-.08-1v-4.9h1zm26.1 6.52h-10.3v-1h10.3zm15.44 0h-10.3v-1h10.3zm15.44 0h-10.3v-1h10.3zm15.45 0h-10.3v-1h10.3zm15.44 0h-10.3v-1h10.3zm15.45 0h-10.3v-1h10.3zm15.44 0h-10.3v-1h10.3zm15.45 0h-10.3v-1h10.3zm15.45 0h-10.3v-1h10.3zm15.45 0h-10.3v-1h10.3zm15.44 0h-10.3v-1h10.3zm15.44 0h-10.3v-1h10.3zm15.45 0h-10.3v-1h10.3zm15.45 0h-10.3v-1h10.3zm15.44 0h-10.3v-1h10.3zm10.3 0h-5.15v-1h5.15zm-252.62-16.28h-1v-9.78h1zm0-14.66h-1v-9.78h1zm0-14.67h-1v-9.8h1zm0-14.68h-1v-9.78h1zm0-14.66h-1v-9.78h1zm0-14.67h-1v-9.8h1zm0-14.68h-1v-9.78h1zm0-14.66h-1v-9.78h1zm0-14.67h-1v-9.8h1zm0-14.68h-1v-9.78h1zm0-14.66h-1v-9.78h1zm0-14.67h-1v-9.8h1zm0-14.68h-1v-9.78h1zm0-14.66h-1v-9.78h1zm0-14.67h-1v-9.8h1zm0-14.68h-1v-9.78h1zm0-14.66h-1v-9.78h1zm0-14.67h-1v-9.8h1zm0-14.68h-1v-9.78h1zm0-14.66h-1v-9.78h1zm-5.48-25.98l1 .24.93.4.87.52.78.66.66.78.53.87.38.94.24.98.08 1v4.9h-1v-4.86l-.07-.88-.2-.84-.33-.8-.45-.73-.56-.66-.67-.55-.73-.45-.8-.33-.84-.2-.88-.07h-5.03v-1h5.07zm-359.47.92h-5.05v-1h5.05zm15.14 0h-10.1v-1h10.1zm15.14 0h-10.1v-1h10.1zm15.15 0h-10.1v-1h10.1zm15.13 0h-10.1v-1h10.1zm15.15 0h-10.1v-1h10.1zm9.14 0h-4.1v-1h4.1zm157.46 0h-10.1v-1h10.1zm15.15 0h-10.1v-1h10.1zm15.14 0h-10.1v-1h10.1zm15.15 0h-10.1v-1h10.1zm15.14 0h-10.1v-1h10.1zm15.15 0h-10.1v-1h10.1zm15.16 0h-10.1v-1h10.1zm15.14 0h-10.1v-1h10.1zm-121.16 0h-1.38v-1h1.38z" stroke="#3a414a" stroke-width=".05" fill="#3a414a"/><path d="M1480.5 460.5h-.5v-1h.5z" fill="#3a414a"/><path d="M1480.54 460.52h-.57v-1.04h.57zm-.5-1v.96h.45v-.96z" stroke="#3a414a" stroke-width=".05" fill="#3a414a"/><path d="M2117.88 780l-14.26 4.63v-9.26z" fill="#3a414a"/><path d="M2119.5 780l-16.38 5.32v-10.64zm-15.38 3.95l12.14-3.95-12.14-3.95z" stroke="#3a414a" stroke-width=".05" fill="#3a414a"/><g><use xlink:href="#z" transform="matrix(1,0,0,1,1570.4197530864192,449.3333333333333) translate(0 14.222222222222223)"/><use xlink:href="#A" transform="matrix(1,0,0,1,1570.4197530864192,449.3333333333333) translate(68.98765432098764 14.222222222222223)"/></g><path d="M2120 86a6 6 0 0 1 6-6h148a6 6 0 0 1 6 6v148a6 6 0 0 1-6 6h-148a6 6 0 0 1-6-6z" stroke="#3a414a" fill="#fff"/><g><use xlink:href="#B" transform="matrix(1,0,0,1,2125,85) translate(12.746913580246904 78.71527777777777)"/><use xlink:href="#C" transform="matrix(1,0,0,1,2125,85) translate(124.90740740740742 78.71527777777777)"/></g><path d="M2120 706a6 6 0 0 1 6-6h148a6 6 0 0 1 6 6v148a6 6 0 0 1-6 6h-148a6 6 0 0 1-6-6z" stroke="#3a414a" fill="#fff"/><g><use xlink:href="#B" transform="matrix(1,0,0,1,2125,705) translate(12.746913580246904 78.71527777777777)"/><use xlink:href="#D" transform="matrix(1,0,0,1,2125,705) translate(124.90740740740742 78.71527777777777)"/></g><path d="M2120 386a6 6 0 0 1 6-6h148a6 6 0 0 1 6 6v148a6 6 0 0 1-6 6h-148a6 6 0 0 1-6-6z" stroke="#3a414a" fill="#fff"/><g><use xlink:href="#B" transform="matrix(1,0,0,1,2125,385) translate(12.746913580246904 50.59027777777778)"/><use xlink:href="#E" transform="matrix(1,0,0,1,2125,385) translate(124.90740740740742 50.59027777777778)"/><use xlink:href="#F" transform="matrix(1,0,0,1,2125,385) translate(22.006172839506164 77.25694444444446)"/><use xlink:href="#G" transform="matrix(1,0,0,1,2125,385) translate(115.64814814814815 77.25694444444446)"/><use xlink:href="#H" transform="matrix(1,0,0,1,2125,385) translate(23.858024691358025 103.92361111111111)"/><use xlink:href="#I" transform="matrix(1,0,0,1,2125,385) translate(81.75925925925927 103.92361111111111)"/></g><defs><linearGradient gradientUnits="userSpaceOnUse" id="a" x1="180" y1="520" x2="300" y2="400"><stop offset="0%" stop-color="#2e27ad"/><stop offset="100%" stop-color="#527fff"/></linearGradient><path fill="#3a414a" d="M205 0l-28-72H64L36 0H1l101-248h38L239 0h-34zm-38-99l-47-123c-12 45-31 82-46 123h93" id="J"/><path fill="#3a414a" d="M210-169c-67 3-38 105-44 169h-31v-121c0-29-5-50-35-48C34-165 62-65 56 0H25l-1-190h30c1 10-1 24 2 32 10-44 99-50 107 0 11-21 27-35 58-36 85-2 47 119 55 194h-31v-121c0-29-5-49-35-48" id="K"/><path fill="#3a414a" d="M141-36C126-15 110 5 73 4 37 3 15-17 15-53c-1-64 63-63 125-63 3-35-9-54-41-54-24 1-41 7-42 31l-33-3c5-37 33-52 76-52 45 0 72 20 72 64v82c-1 20 7 32 28 27v20c-31 9-61-2-59-35zM48-53c0 20 12 33 32 33 41-3 63-29 60-74-43 2-92-5-92 41" id="L"/><path fill="#3a414a" d="M9 0v-24l116-142H16v-24h144v24L44-24h123V0H9" id="M"/><path fill="#3a414a" d="M100-194c62-1 85 37 85 99 1 63-27 99-86 99S16-35 15-95c0-66 28-99 85-99zM99-20c44 1 53-31 53-75 0-43-8-75-51-75s-53 32-53 75 10 74 51 75" id="N"/><path fill="#3a414a" d="M117-194c89-4 53 116 60 194h-32v-121c0-31-8-49-39-48C34-167 62-67 57 0H25l-1-190h30c1 10-1 24 2 32 11-22 29-35 61-36" id="O"/><g id="b"><use transform="matrix(0.06172839506172839,0,0,0.06172839506172839,0,0)" xlink:href="#J"/><use transform="matrix(0.06172839506172839,0,0,0.06172839506172839,14.814814814814813,0)" xlink:href="#K"/><use transform="matrix(0.06172839506172839,0,0,0.06172839506172839,33.2716049382716,0)" xlink:href="#L"/><use transform="matrix(0.06172839506172839,0,0,0.06172839506172839,45.61728395061728,0)" xlink:href="#M"/><use transform="matrix(0.06172839506172839,0,0,0.06172839506172839,56.72839506172839,0)" xlink:href="#N"/><use transform="matrix(0.06172839506172839,0,0,0.06172839506172839,69.07407407407408,0)" xlink:href="#O"/></g><path fill="#3a414a" d="M30-248c118-7 216 8 213 122C240-48 200 0 122 0H30v-248zM63-27c89 8 146-16 146-99s-60-101-146-95v194" id="P"/><path fill="#3a414a" d="M179-190L93 31C79 59 56 82 12 73V49c39 6 53-20 64-50L1-190h34L92-34l54-156h33" id="Q"/><path fill="#3a414a" d="M160-131c35 5 61 23 61 61C221 17 115-2 30 0v-248c76 3 177-17 177 60 0 33-19 50-47 57zm-97-11c50-1 110 9 110-42 0-47-63-36-110-37v79zm0 115c55-2 124 14 124-45 0-56-70-42-124-44v89" id="R"/><g id="c"><use transform="matrix(0.06172839506172839,0,0,0.06172839506172839,0,0)" xlink:href="#P"/><use transform="matrix(0.06172839506172839,0,0,0.06172839506172839,15.987654320987653,0)" xlink:href="#Q"/><use transform="matrix(0.06172839506172839,0,0,0.06172839506172839,27.098765432098766,0)" xlink:href="#O"/><use transform="matrix(0.06172839506172839,0,0,0.06172839506172839,39.44444444444444,0)" xlink:href="#L"/><use transform="matrix(0.06172839506172839,0,0,0.06172839506172839,51.79012345679012,0)" xlink:href="#K"/><use transform="matrix(0.06172839506172839,0,0,0.06172839506172839,70.24691358024691,0)" xlink:href="#N"/><use transform="matrix(0.06172839506172839,0,0,0.06172839506172839,82.5925925925926,0)" xlink:href="#P"/><use transform="matrix(0.06172839506172839,0,0,0.06172839506172839,98.58024691358025,0)" xlink:href="#R"/></g><path fill="#3a414a" d="M127-220V0H93v-220H8v-28h204v28h-85" id="S"/><path fill="#3a414a" d="M115-194c53 0 69 39 70 98 0 66-23 100-70 100C84 3 66-7 56-30L54 0H23l1-261h32v101c10-23 28-34 59-34zm-8 174c40 0 45-34 45-75 0-40-5-75-45-74-42 0-51 32-51 76 0 43 10 73 51 73" id="T"/><path fill="#3a414a" d="M24 0v-261h32V0H24" id="U"/><path fill="#3a414a" d="M100-194c63 0 86 42 84 106H49c0 40 14 67 53 68 26 1 43-12 49-29l28 8c-11 28-37 45-77 45C44 4 14-33 15-96c1-61 26-98 85-98zm52 81c6-60-76-77-97-28-3 7-6 17-6 28h103" id="V"/><g id="d"><use transform="matrix(0.06172839506172839,0,0,0.06172839506172839,0,0)" xlink:href="#S"/><use transform="matrix(0.06172839506172839,0,0,0.06172839506172839,11.049382716049381,0)" xlink:href="#L"/><use transform="matrix(0.06172839506172839,0,0,0.06172839506172839,23.39506172839506,0)" xlink:href="#T"/><use transform="matrix(0.06172839506172839,0,0,0.06172839506172839,35.74074074074074,0)" xlink:href="#U"/><use transform="matrix(0.06172839506172839,0,0,0.06172839506172839,40.617283950617285,0)" xlink:href="#V"/></g><path fill="#333" d="M169-182c-1-43-94-46-97-3 18 66 151 10 154 114 3 95-165 93-204 36-6-8-10-19-12-30l50-8c3 46 112 56 116 5-17-69-150-10-154-114-4-87 153-88 188-35 5 8 8 18 10 28" id="W"/><path fill="#333" d="M115-3C79 11 28 4 28-45v-112H4v-33h27l15-45h31v45h36v33H77v99c-1 23 16 31 38 25v30" id="X"/><path fill="#333" d="M135-150c-39-12-60 13-60 57V0H25l-1-190h47c2 13-1 29 3 40 6-28 27-53 61-41v41" id="Y"/><path fill="#333" d="M185-48c-13 30-37 53-82 52C43 2 14-33 14-96s30-98 90-98c62 0 83 45 84 108H66c0 31 8 55 39 56 18 0 30-7 34-22zm-45-69c5-46-57-63-70-21-2 6-4 13-4 21h74" id="Z"/><path fill="#333" d="M133-34C117-15 103 5 69 4 32 3 11-16 11-54c-1-60 55-63 116-61 1-26-3-47-28-47-18 1-26 9-28 27l-52-2c7-38 36-58 82-57s74 22 75 68l1 82c-1 14 12 18 25 15v27c-30 8-71 5-69-32zm-48 3c29 0 43-24 42-57-32 0-66-3-65 30 0 17 8 27 23 27" id="aa"/><path fill="#333" d="M220-157c-53 9-28 100-34 157h-49v-107c1-27-5-49-29-50C55-147 81-57 75 0H25l-1-190h47c2 12-1 28 3 38 10-53 101-56 108 0 13-22 24-43 59-42 82 1 51 116 57 194h-49v-107c-1-25-5-48-29-50" id="ab"/><g id="e"><use transform="matrix(0.04938271604938272,0,0,0.04938271604938272,0,0)" xlink:href="#W"/><use transform="matrix(0.04938271604938272,0,0,0.04938271604938272,11.851851851851853,0)" xlink:href="#X"/><use transform="matrix(0.04938271604938272,0,0,0.04938271604938272,17.728395061728396,0)" xlink:href="#Y"/><use transform="matrix(0.04938271604938272,0,0,0.04938271604938272,24.641975308641975,0)" xlink:href="#Z"/><use transform="matrix(0.04938271604938272,0,0,0.04938271604938272,34.51851851851852,0)" xlink:href="#aa"/><use transform="matrix(0.04938271604938272,0,0,0.04938271604938272,44.39506172839506,0)" xlink:href="#ab"/></g><path fill="#333" d="M67-125c0 53 21 87 73 88 37 1 54-22 65-47l45 17C233-25 199 4 140 4 58 4 20-42 15-125 8-235 124-281 211-232c18 10 29 29 36 50l-46 12c-8-25-30-41-62-41-52 0-71 34-72 86" id="ac"/><path fill="#333" d="M114-157C55-157 80-60 75 0H25v-261h50l-1 109c12-26 28-41 61-42 86-1 58 113 63 194h-50c-7-57 23-157-34-157" id="ad"/><path fill="#333" d="M135-194c87-1 58 113 63 194h-50c-7-57 23-157-34-157-59 0-34 97-39 157H25l-1-190h47c2 12-1 28 3 38 12-26 28-41 61-42" id="ae"/><path fill="#333" d="M195-6C206 82 75 100 31 46c-4-6-6-13-8-21l49-6c3 16 16 24 34 25 40 0 42-37 40-79-11 22-30 35-61 35-53 0-70-43-70-97 0-56 18-96 73-97 30 0 46 14 59 34l2-30h47zm-90-29c32 0 41-27 41-63 0-35-9-62-40-62-32 0-39 29-40 63 0 36 9 62 39 62" id="af"/><path fill="#333" d="M137-138c1-29-70-34-71-4 15 46 118 7 119 86 1 83-164 76-172 9l43-7c4 19 20 25 44 25 33 8 57-30 24-41C81-84 22-81 20-136c-2-80 154-74 161-7" id="ag"/><g id="f"><use transform="matrix(0.04938271604938272,0,0,0.04938271604938272,0,0)" xlink:href="#ac"/><use transform="matrix(0.04938271604938272,0,0,0.04938271604938272,12.790123456790125,0)" xlink:href="#ad"/><use transform="matrix(0.04938271604938272,0,0,0.04938271604938272,23.60493827160494,0)" xlink:href="#aa"/><use transform="matrix(0.04938271604938272,0,0,0.04938271604938272,33.48148148148148,0)" xlink:href="#ae"/><use transform="matrix(0.04938271604938272,0,0,0.04938271604938272,44.2962962962963,0)" xlink:href="#af"/><use transform="matrix(0.04938271604938272,0,0,0.04938271604938272,55.111111111111114,0)" xlink:href="#Z"/><use transform="matrix(0.04938271604938272,0,0,0.04938271604938272,64.98765432098766,0)" xlink:href="#ag"/></g><path fill="#333" d="M147 0H94L2-248h55l64 206c17-72 42-137 63-206h54" id="ah"/><path fill="#333" d="M25-224v-37h50v37H25zM25 0v-190h50V0H25" id="ai"/><g id="g"><use transform="matrix(0.04938271604938272,0,0,0.04938271604938272,0,0)" xlink:href="#ah"/><use transform="matrix(0.04938271604938272,0,0,0.04938271604938272,11.506172839506174,0)" xlink:href="#ai"/><use transform="matrix(0.04938271604938272,0,0,0.04938271604938272,16.444444444444446,0)" xlink:href="#aa"/></g><path fill="#333" d="M24-248c120-7 223 5 221 122C244-46 201 0 124 0H24v-248zM76-40c74 7 117-18 117-86 0-67-45-88-117-82v168" id="aj"/><path fill="#333" d="M190-63c-7 42-38 67-86 67-59 0-84-38-90-98-12-110 154-137 174-36l-49 2c-2-19-15-32-35-32-30 0-35 28-38 64-6 74 65 87 74 30" id="ak"/><g id="h"><use transform="matrix(0.04938271604938272,0,0,0.04938271604938272,0,0)" xlink:href="#aj"/><use transform="matrix(0.04938271604938272,0,0,0.04938271604938272,12.790123456790125,0)" xlink:href="#ai"/><use transform="matrix(0.04938271604938272,0,0,0.04938271604938272,17.7283950617284,0)" xlink:href="#Y"/><use transform="matrix(0.04938271604938272,0,0,0.04938271604938272,24.64197530864198,0)" xlink:href="#Z"/><use transform="matrix(0.04938271604938272,0,0,0.04938271604938272,34.518518518518526,0)" xlink:href="#ak"/><use transform="matrix(0.04938271604938272,0,0,0.04938271604938272,44.39506172839507,0)" xlink:href="#X"/></g><path fill="#333" d="M199 0l-22-63H83L61 0H9l90-248h61L250 0h-51zm-33-102l-36-108c-10 38-24 72-36 108h72" id="al"/><path fill="#333" d="M275 0h-61l-44-196L126 0H64L0-248h53L97-49l45-199h58l43 199 44-199h52" id="am"/><g id="i"><use transform="matrix(0.04938271604938272,0,0,0.04938271604938272,0,0)" xlink:href="#al"/><use transform="matrix(0.04938271604938272,0,0,0.04938271604938272,11.80246913580247,0)" xlink:href="#am"/><use transform="matrix(0.04938271604938272,0,0,0.04938271604938272,28.543209876543205,0)" xlink:href="#W"/></g><path fill="#333" d="M24 0v-248h52V0H24" id="an"/><path fill="#333" d="M110-194c64 0 96 36 96 99 0 64-35 99-97 99-61 0-95-36-95-99 0-62 34-99 96-99zm-1 164c35 0 45-28 45-65 0-40-10-65-43-65-34 0-45 26-45 65 0 36 10 65 43 65" id="ao"/><path fill="#333" d="M76-54c-1 42 2 86-19 110H24C36 42 46 24 48 0H25v-54h51" id="ap"/><g id="j"><use transform="matrix(0.04938271604938272,0,0,0.04938271604938272,0,0)" xlink:href="#an"/><use transform="matrix(0.04938271604938272,0,0,0.04938271604938272,4.938271604938272,0)" xlink:href="#ae"/><use transform="matrix(0.04938271604938272,0,0,0.04938271604938272,15.753086419753087,0)" xlink:href="#X"/><use transform="matrix(0.04938271604938272,0,0,0.04938271604938272,21.62962962962963,0)" xlink:href="#Z"/><use transform="matrix(0.04938271604938272,0,0,0.04938271604938272,31.506172839506174,0)" xlink:href="#af"/><use transform="matrix(0.04938271604938272,0,0,0.04938271604938272,42.32098765432099,0)" xlink:href="#Z"/><use transform="matrix(0.04938271604938272,0,0,0.04938271604938272,52.19753086419754,0)" xlink:href="#Y"/><use transform="matrix(0.04938271604938272,0,0,0.04938271604938272,59.111111111111114,0)" xlink:href="#aa"/><use transform="matrix(0.04938271604938272,0,0,0.04938271604938272,68.98765432098766,0)" xlink:href="#X"/><use transform="matrix(0.04938271604938272,0,0,0.04938271604938272,74.8641975308642,0)" xlink:href="#ai"/><use transform="matrix(0.04938271604938272,0,0,0.04938271604938272,79.80246913580248,0)" xlink:href="#ao"/><use transform="matrix(0.04938271604938272,0,0,0.04938271604938272,90.61728395061729,0)" xlink:href="#ae"/><use transform="matrix(0.04938271604938272,0,0,0.04938271604938272,101.4320987654321,0)" xlink:href="#ap"/></g><path fill="#333" d="M24-248c93 1 206-16 204 79-1 75-69 88-152 82V0H24v-248zm52 121c47 0 100 7 100-41 0-47-54-39-100-39v80" id="aq"/><path fill="#333" d="M85 4C-2 5 27-109 22-190h50c7 57-23 150 33 157 60-5 35-97 40-157h50l1 190h-47c-2-12 1-28-3-38-12 25-28 42-61 42" id="ar"/><path fill="#333" d="M135-194c52 0 70 43 70 98 0 56-19 99-73 100-30 1-46-15-58-35L72 0H24l1-261h50v104c11-23 29-37 60-37zM114-30c31 0 40-27 40-66 0-37-7-63-39-63s-41 28-41 65c0 36 8 64 40 64" id="as"/><path fill="#333" d="M25 0v-261h50V0H25" id="at"/><g id="k"><use transform="matrix(0.04938271604938272,0,0,0.04938271604938272,0,0)" xlink:href="#aq"/><use transform="matrix(0.04938271604938272,0,0,0.04938271604938272,11.851851851851853,0)" xlink:href="#ar"/><use transform="matrix(0.04938271604938272,0,0,0.04938271604938272,22.666666666666668,0)" xlink:href="#as"/><use transform="matrix(0.04938271604938272,0,0,0.04938271604938272,33.48148148148148,0)" xlink:href="#at"/><use transform="matrix(0.04938271604938272,0,0,0.04938271604938272,38.41975308641975,0)" xlink:href="#ai"/><use transform="matrix(0.04938271604938272,0,0,0.04938271604938272,43.358024691358025,0)" xlink:href="#ag"/><use transform="matrix(0.04938271604938272,0,0,0.04938271604938272,53.23456790123457,0)" xlink:href="#ad"/></g><g id="l"><use transform="matrix(0.04938271604938272,0,0,0.04938271604938272,0,0)" xlink:href="#ak"/><use transform="matrix(0.04938271604938272,0,0,0.04938271604938272,9.876543209876544,0)" xlink:href="#ad"/><use transform="matrix(0.04938271604938272,0,0,0.04938271604938272,20.69135802469136,0)" xlink:href="#aa"/><use transform="matrix(0.04938271604938272,0,0,0.04938271604938272,30.567901234567906,0)" xlink:href="#ae"/><use transform="matrix(0.04938271604938272,0,0,0.04938271604938272,41.38271604938272,0)" xlink:href="#af"/><use transform="matrix(0.04938271604938272,0,0,0.04938271604938272,52.19753086419754,0)" xlink:href="#Z"/></g><g id="m"><use transform="matrix(0.04938271604938272,0,0,0.04938271604938272,0,0)" xlink:href="#X"/><use transform="matrix(0.04938271604938272,0,0,0.04938271604938272,5.8765432098765435,0)" xlink:href="#ao"/></g><path fill="#333" d="M136-208V0H84v-208H4v-40h212v40h-80" id="au"/><path fill="#333" d="M135-194c53 0 70 44 70 98 0 56-19 98-73 100-31 1-45-17-59-34 3 33 2 69 2 105H25l-1-265h48c2 10 0 23 3 31 11-24 29-35 60-35zM114-30c33 0 39-31 40-66 0-38-9-64-40-64-56 0-55 130 0 130" id="av"/><g id="n"><use transform="matrix(0.04938271604938272,0,0,0.04938271604938272,0,0)" xlink:href="#au"/><use transform="matrix(0.04938271604938272,0,0,0.04938271604938272,9.481481481481481,0)" xlink:href="#ao"/><use transform="matrix(0.04938271604938272,0,0,0.04938271604938272,20.296296296296298,0)" xlink:href="#av"/><use transform="matrix(0.04938271604938272,0,0,0.04938271604938272,31.111111111111114,0)" xlink:href="#ai"/><use transform="matrix(0.04938271604938272,0,0,0.04938271604938272,36.04938271604939,0)" xlink:href="#ak"/></g><path fill="#333" d="M142-158h-39l-4-90h48zm-75 0H28l-4-90h48" id="aw"/><path fill="#333" d="M14-72v-43h91v43H14" id="ax"/><g id="o"><use transform="matrix(0.04938271604938272,0,0,0.04938271604938272,0,0)" xlink:href="#aw"/><use transform="matrix(0.04938271604938272,0,0,0.04938271604938272,8.395061728395062,0)" xlink:href="#ai"/><use transform="matrix(0.04938271604938272,0,0,0.04938271604938272,13.333333333333334,0)" xlink:href="#ao"/><use transform="matrix(0.04938271604938272,0,0,0.04938271604938272,24.14814814814815,0)" xlink:href="#X"/><use transform="matrix(0.04938271604938272,0,0,0.04938271604938272,30.024691358024693,0)" xlink:href="#ax"/><use transform="matrix(0.04938271604938272,0,0,0.04938271604938272,35.901234567901234,0)" xlink:href="#X"/><use transform="matrix(0.04938271604938272,0,0,0.04938271604938272,41.77777777777778,0)" xlink:href="#Z"/><use transform="matrix(0.04938271604938272,0,0,0.04938271604938272,51.65432098765432,0)" xlink:href="#ag"/><use transform="matrix(0.04938271604938272,0,0,0.04938271604938272,61.53086419753087,0)" xlink:href="#X"/><use transform="matrix(0.04938271604938272,0,0,0.04938271604938272,67.4074074074074,0)" xlink:href="#ax"/><use transform="matrix(0.04938271604938272,0,0,0.04938271604938272,73.28395061728395,0)" xlink:href="#X"/><use transform="matrix(0.04938271604938272,0,0,0.04938271604938272,79.1604938271605,0)" xlink:href="#ao"/><use transform="matrix(0.04938271604938272,0,0,0.04938271604938272,89.9753086419753,0)" xlink:href="#av"/><use transform="matrix(0.04938271604938272,0,0,0.04938271604938272,100.79012345679011,0)" xlink:href="#ai"/><use transform="matrix(0.04938271604938272,0,0,0.04938271604938272,105.72839506172838,0)" xlink:href="#ak"/><use transform="matrix(0.04938271604938272,0,0,0.04938271604938272,115.60493827160492,0)" xlink:href="#aw"/></g><linearGradient gradientUnits="userSpaceOnUse" id="p" x1="1360" y1="520" x2="1480" y2="400"><stop offset="0%" stop-color="#1b660f"/><stop offset="100%" stop-color="#6cae3e"/></linearGradient><path d="M33 0v-248h34V0H33" id="ay"/><path d="M100-194c62-1 85 37 85 99 1 63-27 99-86 99S16-35 15-95c0-66 28-99 85-99zM99-20c44 1 53-31 53-75 0-43-8-75-51-75s-53 32-53 75 10 74 51 75" id="az"/><path d="M127-220V0H93v-220H8v-28h204v28h-85" id="aA"/><g id="q"><use transform="matrix(0.05,0,0,0.05,0,0)" xlink:href="#ay"/><use transform="matrix(0.05,0,0,0.05,5,0)" xlink:href="#az"/><use transform="matrix(0.05,0,0,0.05,15,0)" xlink:href="#aA"/></g><path d="M212-179c-10-28-35-45-73-45-59 0-87 40-87 99 0 60 29 101 89 101 43 0 62-24 78-52l27 14C228-24 195 4 139 4 59 4 22-46 18-125c-6-104 99-153 187-111 19 9 31 26 39 46" id="aB"/><path d="M114-163C36-179 61-72 57 0H25l-1-190h30c1 12-1 29 2 39 6-27 23-49 58-41v29" id="aC"/><path d="M100-194c63 0 86 42 84 106H49c0 40 14 67 53 68 26 1 43-12 49-29l28 8c-11 28-37 45-77 45C44 4 14-33 15-96c1-61 26-98 85-98zm52 81c6-60-76-77-97-28-3 7-6 17-6 28h103" id="aD"/><g id="r"><use transform="matrix(0.05,0,0,0.05,0,0)" xlink:href="#aB"/><use transform="matrix(0.05,0,0,0.05,12.950000000000001,0)" xlink:href="#az"/><use transform="matrix(0.05,0,0,0.05,22.950000000000003,0)" xlink:href="#aC"/><use transform="matrix(0.05,0,0,0.05,28.900000000000002,0)" xlink:href="#aD"/></g><linearGradient gradientUnits="userSpaceOnUse" id="s" x1="537.06" y1="520" x2="657.06" y2="400"><stop offset="0%" stop-color="#b0084d"/><stop offset="100%" stop-color="#ff4f8b"/></linearGradient><path d="M205 0l-28-72H64L36 0H1l101-248h38L239 0h-34zm-38-99l-47-123c-12 45-31 82-46 123h93" id="aE"/><path d="M210-169c-67 3-38 105-44 169h-31v-121c0-29-5-50-35-48C34-165 62-65 56 0H25l-1-190h30c1 10-1 24 2 32 10-44 99-50 107 0 11-21 27-35 58-36 85-2 47 119 55 194h-31v-121c0-29-5-49-35-48" id="aF"/><path d="M141-36C126-15 110 5 73 4 37 3 15-17 15-53c-1-64 63-63 125-63 3-35-9-54-41-54-24 1-41 7-42 31l-33-3c5-37 33-52 76-52 45 0 72 20 72 64v82c-1 20 7 32 28 27v20c-31 9-61-2-59-35zM48-53c0 20 12 33 32 33 41-3 63-29 60-74-43 2-92-5-92 41" id="aG"/><path d="M9 0v-24l116-142H16v-24h144v24L44-24h123V0H9" id="aH"/><path d="M117-194c89-4 53 116 60 194h-32v-121c0-31-8-49-39-48C34-167 62-67 57 0H25l-1-190h30c1 10-1 24 2 32 11-22 29-35 61-36" id="aI"/><g id="t"><use transform="matrix(0.05,0,0,0.05,0,0)" xlink:href="#aE"/><use transform="matrix(0.05,0,0,0.05,12,0)" xlink:href="#aF"/><use transform="matrix(0.05,0,0,0.05,26.950000000000003,0)" xlink:href="#aG"/><use transform="matrix(0.05,0,0,0.05,36.95,0)" xlink:href="#aH"/><use transform="matrix(0.05,0,0,0.05,45.95,0)" xlink:href="#az"/><use transform="matrix(0.05,0,0,0.05,55.95,0)" xlink:href="#aI"/></g><path d="M30 0v-248h187v28H63v79h144v27H63v87h162V0H30" id="aJ"/><path d="M108 0H70L1-190h34L89-25l56-165h34" id="aK"/><path d="M59-47c-2 24 18 29 38 22v24C64 9 27 4 27-40v-127H5v-23h24l9-43h21v43h35v23H59v120" id="aL"/><path d="M160-131c35 5 61 23 61 61C221 17 115-2 30 0v-248c76 3 177-17 177 60 0 33-19 50-47 57zm-97-11c50-1 110 9 110-42 0-47-63-36-110-37v79zm0 115c55-2 124 14 124-45 0-56-70-42-124-44v89" id="aM"/><path d="M24-231v-30h32v30H24zM24 0v-190h32V0H24" id="aN"/><path d="M85-194c31 0 48 13 60 33l-1-100h32l1 261h-30c-2-10 0-23-3-31C134-8 116 4 85 4 32 4 16-35 15-94c0-66 23-100 70-100zm9 24c-40 0-46 34-46 75 0 40 6 74 45 74 42 0 51-32 51-76 0-42-9-74-50-73" id="aO"/><path d="M177-190C167-65 218 103 67 71c-23-6-38-20-44-43l32-5c15 47 100 32 89-28v-30C133-14 115 1 83 1 29 1 15-40 15-95c0-56 16-97 71-98 29-1 48 16 59 35 1-10 0-23 2-32h30zM94-22c36 0 50-32 50-73 0-42-14-75-50-75-39 0-46 34-46 75s6 73 46 73" id="aP"/><g id="u"><use transform="matrix(0.05,0,0,0.05,0,0)" xlink:href="#aJ"/><use transform="matrix(0.05,0,0,0.05,12,0)" xlink:href="#aK"/><use transform="matrix(0.05,0,0,0.05,21,0)" xlink:href="#aD"/><use transform="matrix(0.05,0,0,0.05,31,0)" xlink:href="#aI"/><use transform="matrix(0.05,0,0,0.05,41,0)" xlink:href="#aL"/><use transform="matrix(0.05,0,0,0.05,46,0)" xlink:href="#aM"/><use transform="matrix(0.05,0,0,0.05,58,0)" xlink:href="#aC"/><use transform="matrix(0.05,0,0,0.05,63.95,0)" xlink:href="#aN"/><use transform="matrix(0.05,0,0,0.05,67.9,0)" xlink:href="#aO"/><use transform="matrix(0.05,0,0,0.05,77.9,0)" xlink:href="#aP"/><use transform="matrix(0.05,0,0,0.05,87.9,0)" xlink:href="#aD"/></g><path d="M30-248c87 1 191-15 191 75 0 78-77 80-158 76V0H30v-248zm33 125c57 0 124 11 124-50 0-59-68-47-124-48v98" id="aQ"/><path d="M115-194c55 1 70 41 70 98S169 2 115 4C84 4 66-9 55-30l1 105H24l-1-265h31l2 30c10-21 28-34 59-34zm-8 174c40 0 45-34 45-75s-6-73-45-74c-42 0-51 32-51 76 0 43 10 73 51 73" id="aR"/><g id="v"><use transform="matrix(0.05,0,0,0.05,0,0)" xlink:href="#aQ"/><use transform="matrix(0.05,0,0,0.05,12,0)" xlink:href="#aN"/><use transform="matrix(0.05,0,0,0.05,15.949999999999998,0)" xlink:href="#aR"/><use transform="matrix(0.05,0,0,0.05,25.950000000000003,0)" xlink:href="#aD"/></g><linearGradient gradientUnits="userSpaceOnUse" id="w" x1="820" y1="520" x2="940" y2="400"><stop offset="0%" stop-color="#b0084d"/><stop offset="100%" stop-color="#ff4f8b"/></linearGradient><g id="x"><use transform="matrix(0.05,0,0,0.05,0,0)" xlink:href="#aE"/><use transform="matrix(0.05,0,0,0.05,12,0)" xlink:href="#aQ"/><use transform="matrix(0.05,0,0,0.05,24,0)" xlink:href="#ay"/></g><path d="M143 4C61 4 22-44 18-125c-5-107 100-154 193-111 17 8 29 25 37 43l-32 9c-13-25-37-40-76-40-61 0-88 39-88 99 0 61 29 100 91 101 35 0 62-11 79-27v-45h-74v-28h105v86C228-13 192 4 143 4" id="aS"/><path d="M206 0h-36l-40-164L89 0H53L-1-190h32L70-26l43-164h34l41 164 42-164h31" id="aT"/><path d="M179-190L93 31C79 59 56 82 12 73V49c39 6 53-20 64-50L1-190h34L92-34l54-156h33" id="aU"/><g id="y"><use transform="matrix(0.05,0,0,0.05,0,0)" xlink:href="#aS"/><use transform="matrix(0.05,0,0,0.05,14,0)" xlink:href="#aG"/><use transform="matrix(0.05,0,0,0.05,24,0)" xlink:href="#aL"/><use transform="matrix(0.05,0,0,0.05,29,0)" xlink:href="#aD"/><use transform="matrix(0.05,0,0,0.05,39,0)" xlink:href="#aT"/><use transform="matrix(0.05,0,0,0.05,51.95,0)" xlink:href="#aG"/><use transform="matrix(0.05,0,0,0.05,61.95,0)" xlink:href="#aU"/></g><g id="z"><use transform="matrix(0.04938271604938272,0,0,0.04938271604938272,0,0)" xlink:href="#aq"/><use transform="matrix(0.04938271604938272,0,0,0.04938271604938272,11.851851851851853,0)" xlink:href="#ar"/><use transform="matrix(0.04938271604938272,0,0,0.04938271604938272,22.666666666666668,0)" xlink:href="#as"/><use transform="matrix(0.04938271604938272,0,0,0.04938271604938272,33.48148148148148,0)" xlink:href="#at"/><use transform="matrix(0.04938271604938272,0,0,0.04938271604938272,38.41975308641975,0)" xlink:href="#ai"/><use transform="matrix(0.04938271604938272,0,0,0.04938271604938272,43.358024691358025,0)" xlink:href="#ag"/><use transform="matrix(0.04938271604938272,0,0,0.04938271604938272,53.23456790123457,0)" xlink:href="#ad"/></g><g id="A"><use transform="matrix(0.04938271604938272,0,0,0.04938271604938272,0,0)" xlink:href="#ak"/><use transform="matrix(0.04938271604938272,0,0,0.04938271604938272,9.876543209876544,0)" xlink:href="#ad"/><use transform="matrix(0.04938271604938272,0,0,0.04938271604938272,20.69135802469136,0)" xlink:href="#aa"/><use transform="matrix(0.04938271604938272,0,0,0.04938271604938272,30.567901234567906,0)" xlink:href="#ae"/><use transform="matrix(0.04938271604938272,0,0,0.04938271604938272,41.38271604938272,0)" xlink:href="#af"/><use transform="matrix(0.04938271604938272,0,0,0.04938271604938272,52.19753086419754,0)" xlink:href="#Z"/><use transform="matrix(0.04938271604938272,0,0,0.04938271604938272,62.074074074074076,0)" xlink:href="#ag"/></g><path fill="#3a414a" d="M185-189c-5-48-123-54-124 2 14 75 158 14 163 119 3 78-121 87-175 55-17-10-28-26-33-46l33-7c5 56 141 63 141-1 0-78-155-14-162-118-5-82 145-84 179-34 5 7 8 16 11 25" id="aV"/><path fill="#3a414a" d="M84 4C-5 8 30-112 23-190h32v120c0 31 7 50 39 49 72-2 45-101 50-169h31l1 190h-30c-1-10 1-25-2-33-11 22-28 36-60 37" id="aW"/><path fill="#3a414a" d="M135-143c-3-34-86-38-87 0 15 53 115 12 119 90S17 21 10-45l28-5c4 36 97 45 98 0-10-56-113-15-118-90-4-57 82-63 122-42 12 7 21 19 24 35" id="aX"/><path fill="#3a414a" d="M96-169c-40 0-48 33-48 73s9 75 48 75c24 0 41-14 43-38l32 2c-6 37-31 61-74 61-59 0-76-41-82-99-10-93 101-131 147-64 4 7 5 14 7 22l-32 3c-4-21-16-35-41-35" id="aY"/><path fill="#3a414a" d="M114-163C36-179 61-72 57 0H25l-1-190h30c1 12-1 29 2 39 6-27 23-49 58-41v29" id="aZ"/><path fill="#3a414a" d="M24-231v-30h32v30H24zM24 0v-190h32V0H24" id="ba"/><g id="B"><use transform="matrix(0.06172839506172839,0,0,0.06172839506172839,0,0)" xlink:href="#aV"/><use transform="matrix(0.06172839506172839,0,0,0.06172839506172839,14.814814814814813,0)" xlink:href="#aW"/><use transform="matrix(0.06172839506172839,0,0,0.06172839506172839,27.160493827160494,0)" xlink:href="#T"/><use transform="matrix(0.06172839506172839,0,0,0.06172839506172839,39.50617283950617,0)" xlink:href="#aX"/><use transform="matrix(0.06172839506172839,0,0,0.06172839506172839,50.61728395061728,0)" xlink:href="#aY"/><use transform="matrix(0.06172839506172839,0,0,0.06172839506172839,61.72839506172839,0)" xlink:href="#aZ"/><use transform="matrix(0.06172839506172839,0,0,0.06172839506172839,69.07407407407408,0)" xlink:href="#ba"/><use transform="matrix(0.06172839506172839,0,0,0.06172839506172839,73.95061728395062,0)" xlink:href="#T"/><use transform="matrix(0.06172839506172839,0,0,0.06172839506172839,86.2962962962963,0)" xlink:href="#V"/><use transform="matrix(0.06172839506172839,0,0,0.06172839506172839,98.64197530864199,0)" xlink:href="#aZ"/></g><path fill="#3a414a" d="M27 0v-27h64v-190l-56 39v-29l58-41h29v221h61V0H27" id="bb"/><use transform="matrix(0.06172839506172839,0,0,0.06172839506172839,0,0)" xlink:href="#bb" id="C"/><use transform="matrix(0.06172839506172839,0,0,0.06172839506172839,0,0)" xlink:href="#O" id="D"/><path fill="#3a414a" d="M101-251c82-7 93 87 43 132L82-64C71-53 59-42 53-27h129V0H18c2-99 128-94 128-182 0-28-16-43-45-43s-46 15-49 41l-32-3c6-41 34-60 81-64" id="bc"/><use transform="matrix(0.06172839506172839,0,0,0.06172839506172839,0,0)" xlink:href="#bc" id="E"/><path fill="#3a414a" d="M87 75C49 33 22-17 22-94c0-76 28-126 65-167h31c-38 41-64 92-64 168S80 34 118 75H87" id="bd"/><path fill="#3a414a" d="M115-194c55 1 70 41 70 98S169 2 115 4C84 4 66-9 55-30l1 105H24l-1-265h31l2 30c10-21 28-34 59-34zm-8 174c40 0 45-34 45-75s-6-73-45-74c-42 0-51 32-51 76 0 43 10 73 51 73" id="be"/><g id="F"><use transform="matrix(0.06172839506172839,0,0,0.06172839506172839,0,0)" xlink:href="#bd"/><use transform="matrix(0.06172839506172839,0,0,0.06172839506172839,7.345679012345679,0)" xlink:href="#be"/><use transform="matrix(0.06172839506172839,0,0,0.06172839506172839,19.691358024691358,0)" xlink:href="#N"/><use transform="matrix(0.06172839506172839,0,0,0.06172839506172839,32.03703703703704,0)" xlink:href="#aX"/><use transform="matrix(0.06172839506172839,0,0,0.06172839506172839,43.14814814814815,0)" xlink:href="#aX"/><use transform="matrix(0.06172839506172839,0,0,0.06172839506172839,54.25925925925927,0)" xlink:href="#ba"/><use transform="matrix(0.06172839506172839,0,0,0.06172839506172839,59.13580246913581,0)" xlink:href="#T"/><use transform="matrix(0.06172839506172839,0,0,0.06172839506172839,71.4814814814815,0)" xlink:href="#U"/><use transform="matrix(0.06172839506172839,0,0,0.06172839506172839,76.35802469135804,0)" xlink:href="#Q"/></g><use transform="matrix(0.06172839506172839,0,0,0.06172839506172839,0,0)" xlink:href="#L" id="G"/><path fill="#3a414a" d="M59-47c-2 24 18 29 38 22v24C64 9 27 4 27-40v-127H5v-23h24l9-43h21v43h35v23H59v120" id="bf"/><g id="H"><use transform="matrix(0.06172839506172839,0,0,0.06172839506172839,0,0)" xlink:href="#aY"/><use transform="matrix(0.06172839506172839,0,0,0.06172839506172839,11.11111111111111,0)" xlink:href="#U"/><use transform="matrix(0.06172839506172839,0,0,0.06172839506172839,15.987654320987653,0)" xlink:href="#ba"/><use transform="matrix(0.06172839506172839,0,0,0.06172839506172839,20.864197530864196,0)" xlink:href="#V"/><use transform="matrix(0.06172839506172839,0,0,0.06172839506172839,33.20987654320987,0)" xlink:href="#O"/><use transform="matrix(0.06172839506172839,0,0,0.06172839506172839,45.55555555555555,0)" xlink:href="#bf"/></g><path fill="#3a414a" d="M33-261c38 41 65 92 65 168S71 34 33 75H2C39 34 66-17 66-93S39-220 2-261h31" id="bg"/><g id="I"><use transform="matrix(0.06172839506172839,0,0,0.06172839506172839,0,0)" xlink:href="#L"/><use transform="matrix(0.06172839506172839,0,0,0.06172839506172839,12.345679012345679,0)" xlink:href="#be"/><use transform="matrix(0.06172839506172839,0,0,0.06172839506172839,24.691358024691358,0)" xlink:href="#be"/><use transform="matrix(0.06172839506172839,0,0,0.06172839506172839,37.03703703703704,0)" xlink:href="#bg"/></g></defs></g></svg>