<svg xmlns="http://www.w3.org/2000/svg" xmlns:xlink="http://www.w3.org/1999/xlink" xmlns:lucid="lucid" width="863.61" height="611"><g transform="translate(-119.49999999671485 1850.5000000023094)" lucid:page-tab-id="0_0"><path d="M0-3776.5h1870.87v2581.66H0z" fill="#fff"/><path d="M215.54-1754a6 6 0 0 1 6-6H879.2a6 6 0 0 1 6 6v448a6 6 0 0 1-6 6H221.53a6 6 0 0 1-6-6z" stroke="#635dff" fill="#fff" fill-opacity="0"/><path d="M215.54-1760h56v56h-56v-56z" stroke="#fff" stroke-opacity="0" fill="#635dff"/><path d="M247.3-1731.7h-1.18v-1.1c-.12-1.73-1.47-3.07-3.2-3.2-1.9-.13-3.54 1.3-3.67 3.2v1.07h-1.18c-.44 0-.8.36-.8.8v6.13c0 .44.36.8.8.8h9.23c.44 0 .8-.36.8-.8v-6.1c0-.43-.36-.8-.8-.8zm-6.4-1.06c.1-1.03 1-1.77 2-1.67.9.08 1.58.77 1.67 1.67v1.06h-3.72zm5.65 7.08h-7.68v-4.42h7.63z" stroke="#fff" stroke-opacity="0" fill="#fff"/><path d="M257.8-1734.26c-.07-2.44-1.57-4.47-3.86-5.3-1.58-.46-3.16-.13-4.4.9-.68-1.44-1.47-2.6-2.6-3.75-3.24-3.36-7.94-4.3-12.18-2.4-4.04 1.9-6.4 5.63-6.53 10.05v.7c-3.42.97-5.66 4.08-5.5 7.65v.63c.38 4.28 3.9 7.52 8.2 7.47h26s7.4-.63 7.4-8.1c.05-3.9-2.65-7.2-6.52-7.86zm-.95 14.4h-25.92c-3.45.05-6.28-2.53-6.58-5.97v-.52c-.16-3.05 1.92-5.7 4.9-6.3.4-.12.64-.48.6-.9-.04-.4-.04-.73 0-1.14.08-3.78 2.12-6.94 5.53-8.6 1.25-.57 2.4-.8 3.83-.84 2.63.08 4.88 1.04 6.7 2.94 1.26 1.3 2.05 2.6 2.63 4.3.04.15.13.28.25.37.38.27.87.2 1.12-.17.84-1.18 2.25-1.67 3.62-1.3 1.8.72 2.87 2.4 2.83 4.32-.08.4.2.83.63.9 3.58.36 6.2 3.55 5.82 7.12-.3 3.13-2.7 5.52-5.82 5.85z" stroke="#fff" stroke-opacity="0" fill="#fff"/><use xlink:href="#a" transform="matrix(1,0,0,1,286.54126973960473,-1740) translate(0 14.4)"/><use xlink:href="#b" transform="matrix(1,0,0,1,286.54126973960473,-1740) translate(55.5 14.4)"/><use xlink:href="#c" transform="matrix(1,0,0,1,286.54126973960473,-1740) translate(116.4 14.4)"/><path d="M285.54-1654a6 6 0 0 1 6-6h515.03a6 6 0 0 1 6 6v288a6 6 0 0 1-6 6H291.54a6 6 0 0 1-6-6z" fill="#248814" fill-opacity=".13"/><path d="M285.54-1660h56v56h-56v-56z" stroke="#fff" stroke-opacity="0" fill="#248814"/><path d="M328.92-1637.82c-.15-.17-.34-.25-.56-.25h-5.15v-5.58c-.02-2.54-.95-4.7-2.83-6.4-1.9-1.84-4.14-2.75-6.77-2.75-2.65 0-4.9.83-6.8 2.62-1.9 1.7-2.87 3.87-2.9 6.4v5.66h-5.15c-.25 0-.43.1-.6.25-.15.17-.2.34-.2.6v25.28c0 .43.33.8.8.8h29.58c.47 0 .8-.37.8-.8v-25.28c0-.2-.05-.38-.2-.54zm-23.46-5.9c.03-2.13.8-3.88 2.37-5.3 1.62-1.5 3.53-2.2 5.74-2.2 2.22 0 4.12.75 5.7 2.25 1.54 1.4 2.32 3.2 2.32 5.32v5.58h-16.17zm22.1 30.94h-28.03v-23.7h28.02z" stroke="#fff" stroke-opacity="0" fill="#fff"/><path d="M312.74-1622.7v6.25h1.6v-6.23c2.13-.4 3.62-2.2 3.63-4.35 0-2.43-1.97-4.4-4.4-4.43-2.2-.03-4.06 1.5-4.44 3.68-.4 2.4 1.2 4.68 3.6 5.1zm.82-7.15c.78 0 1.44.27 2 .82.54.56.82 1.22.8 2 .03 1.55-1.2 2.8-2.74 2.82h-.06c-1.56.1-2.92-1.06-3.04-2.62-.1-1.56 1.05-2.93 2.6-3.03.16-.02.3-.02.44 0z" stroke="#fff" stroke-opacity="0" fill="#fff"/><use xlink:href="#d" transform="matrix(1,0,0,1,356.54126973960473,-1640) translate(0 14.4)"/><use xlink:href="#e" transform="matrix(1,0,0,1,356.54126973960473,-1640) translate(53.900000000000006 14.4)"/><path d="M120-1844a6 6 0 0 1 6-6h850.6a6 6 0 0 1 6 6v598a6 6 0 0 1-6 6H126a6 6 0 0 1-6-6z" stroke="#232f3e" fill="#fff" fill-opacity="0"/><path d="M120-1850h56v56h-56v-56z" stroke="#fff" stroke-opacity="0" fill="#232f3e"/><path d="M138.22-1824.13c-.04.48.04.87.17 1.34.1.4.28.7.48 1.08.04.1.08.2.08.33 0 .2-.12.36-.28.46l-.95.62c-.12.1-.24.13-.37.13-.16 0-.33-.06-.45-.2-.2-.2-.36-.43-.52-.7-.17-.25-.3-.53-.45-.86-1.1 1.37-2.63 2.1-4.4 2.06-1.15.06-2.13-.3-2.96-1.08-.78-.8-1.14-1.76-1.1-2.85-.05-1.23.4-2.28 1.35-3.08 1.07-.86 2.3-1.23 3.66-1.16.57 0 1.02.02 1.6.1.57.1 1.1.2 1.72.33v-1.1c.08-.88-.16-1.67-.7-2.37-.74-.56-1.56-.8-2.46-.7-.53 0-1.03.07-1.6.2-.58.13-1.03.3-1.6.5l-.5.2h-.24c-.2 0-.33-.16-.33-.45v-.75c0-.18.04-.34.12-.5.12-.16.24-.26.4-.33.66-.3 1.2-.5 1.9-.67.77-.2 1.47-.3 2.3-.28 1.47-.13 2.78.26 3.9 1.2.94 1.05 1.35 2.28 1.22 3.67zm-6.07 2.28c.57 0 1.06-.1 1.6-.28.57-.2 1.03-.5 1.44-.96.23-.27.4-.57.48-.93.12-.45.16-.84.16-1.3v-.67c-.53-.1-.94-.17-1.44-.2H133c-.8-.08-1.55.12-2.2.58-.54.45-.8 1.04-.75 1.73-.04.62.13 1.16.54 1.6.44.38.97.52 1.55.45zm12 1.6c-.22.02-.42-.03-.6-.15-.15-.17-.23-.36-.32-.6l-3.5-11.5-.1-.62c0-.24.1-.37.36-.37h1.47c.2 0 .37.04.57.15.17.18.25.37.3.6l2.5 9.96 2.38-9.93c0-.24.08-.44.28-.6.17-.12.37-.16.58-.14h1.2c.24-.02.4.02.6.13.17.2.25.37.3.6l2.33 9.95 2.56-10c.04-.2.16-.4.33-.58.15-.1.36-.17.56-.14h1.4c.16 0 .33.12.37.3v.31s0 .2-.12.35l-3.6 11.53c-.05.22-.13.42-.3.6-.2.1-.36.14-.57.13h-1.27c-.25.04-.46-.02-.62-.15-.16-.16-.25-.36-.3-.6l-2.3-9.6-2.28 9.6c-.05.24-.13.43-.3.6-.2.13-.4.2-.6.16zm19.2.38c-.82 0-1.5-.07-2.3-.25-.65-.13-1.15-.3-1.72-.6-.2-.1-.37-.23-.45-.4v-.02c-.08-.14-.12-.28-.12-.43v-.75c0-.3.12-.46.32-.46h.3l.36.15c.58.24 1.03.4 1.6.5.62.15 1.15.2 1.8.2.8.06 1.5-.1 2.2-.48.48-.32.77-.83.72-1.42.05-.4-.12-.76-.37-1.04-.46-.4-.95-.65-1.52-.8l-2.18-.67c-.94-.26-1.72-.74-2.38-1.5-.5-.66-.74-1.36-.74-2.2 0-.58.12-1.07.4-1.6.3-.5.63-.88 1.08-1.2.5-.4.98-.62 1.6-.8.66-.17 1.2-.25 1.9-.24.32-.03.6-.03.97 0l1 .16.8.23.67.25c.16.1.28.22.45.38.08.15.12.3.12.5v.7c0 .32-.12.47-.37.47-.2-.03-.37-.1-.57-.18-.95-.43-1.8-.6-2.88-.58-.7-.04-1.3.1-1.97.4-.5.3-.74.8-.7 1.36 0 .4.13.76.46 1.05.5.4.98.65 1.6.82l2.1.67c.94.24 1.68.7 2.3 1.44.48.64.7 1.3.7 2.1 0 .63-.13 1.17-.38 1.73-.3.55-.62.95-1.1 1.32-.5.4-1 .66-1.6.84-.75.23-1.4.33-2.15.34zM166.1-1812.52c-5.6 3.82-11.36 5.58-18.15 5.56-8.54.05-15.82-2.74-22.16-8.45-.5-.42 0-1 .48-.68 7.07 4.05 14.03 5.9 22.2 5.9 6.1-.04 11.3-1.1 16.93-3.47.83-.35 1.52.55.7 1.13z" stroke="#fff" stroke-opacity="0" fill="#fff"/><path d="M168.16-1814.8c-.64-.82-4.16-.38-5.75-.2-.46 0-.53-.36-.1-.66 2.8-1.98 7.42-1.4 8-.74.6.67-.14 5.28-2.78 7.5-.4.33-.78.13-.6-.3.54-1.52 1.86-4.83 1.24-5.6z" stroke="#fff" stroke-opacity="0" fill="#fff"/><use xlink:href="#f" transform="matrix(1,0,0,1,191,-1830) translate(0 14.4)"/><use xlink:href="#g" transform="matrix(1,0,0,1,191,-1830) translate(45.3 14.4)"/><path d="M435.54-1570c33.12 0 60 26.88 60 60 0 33.12-26.88 60-60 60-33.12 0-60-26.88-60-60 0-33.12 26.88-60 60-60zm0 114.6c30.12 0 54.6-24.48 54.6-54.6s-24.48-54.6-54.6-54.6-54.6 24.48-54.6 54.6 24.48 54.6 54.6 54.6zm35.76-40.68c1.56 0 2.76 1.32 2.76 2.76v16.68c0 1.56-1.2 2.76-2.76 2.76h-19.32c-1.08 0-2.04-.6-2.4-1.56l-27.12-58.08h-10.8c-.72 0-1.44-.24-1.92-.84-.48-.48-.84-1.2-.84-1.92l.12-16.68c0-1.56 1.2-2.76 2.64-2.76h24.24c.96 0 1.92.6 2.4 1.68l26.88 57.96zm-2.64 16.8v-11.28h-5.16c-1.08 0-2.04-.6-2.52-1.56l-26.88-58.08h-19.68v11.28h9.84c1.08 0 2.04.6 2.4 1.56l27.12 58.08zm-46.44-43.8l10.32 21.36c.36.84.36 1.68 0 2.4l-11.28 23.88c-.48.96-1.44 1.56-2.4 1.56H398.1c-.84 0-1.8-.48-2.28-1.2-.48-.84-.48-1.8-.12-2.64l21.6-45.36c.48-.96 1.44-1.56 2.4-1.56 1.08 0 2.04.6 2.52 1.56zm-5.16 43.8l10.08-21.24-7.32-15-17.4 36.24z" stroke="#000" stroke-opacity="0" fill="#d45b07"/><use xlink:href="#h" transform="matrix(1,0,0,1,345.54126973960473,-1441) translate(20.57499999999999 14.4)"/><use xlink:href="#i" transform="matrix(1,0,0,1,345.54126973960473,-1441) translate(90.52499999999999 14.4)"/><path d="M750.54-1511.86c.96 1.03.96 2.7 0 3.72l-17.52 19.06-3.96-3.77 13.2-14.4h-62.64c-1.32 12.2-11.64 21.75-24.12 21.75-13.32 0-24.24-10.98-24.24-24.5s10.92-24.5 24.24-24.5c12.48 0 22.8 9.56 24.12 21.76h62.64l-13.2-14.4 3.96-3.78zM655.5-1491c10.44 0 18.84-8.5 18.84-19s-8.4-19-18.84-19c-10.32 0-18.84 8.5-18.84 19s8.52 19 18.84 19zm89.04-18.66l.24-.34-.24-.34z" stroke="#000" stroke-opacity="0" fill="#d45b07"/><g><use xlink:href="#j" transform="matrix(1,0,0,1,601.255744324201,-1476.5) translate(17.25 14.4)"/><use xlink:href="#k" transform="matrix(1,0,0,1,601.255744324201,-1476.5) translate(75.15 14.4)"/><use xlink:href="#l" transform="matrix(1,0,0,1,601.255744324201,-1476.5) translate(96.80000000000001 14.4)"/></g><path d="M630.76-1510H511.93" stroke="#3a414a" fill="none"/><path d="M631.26-1510l.03.5h-.56v-1h.57z" stroke="#3a414a" stroke-width=".05" fill="#3a414a"/><path d="M497.16-1510l14.26-4.63v9.27z" stroke="#3a414a" fill="#3a414a"/><defs><path fill="#248814" d="M137 0h-34L2-248h35l83 218 83-218h36" id="m"/><path fill="#248814" d="M24-231v-30h32v30H24zM24 0v-190h32V0H24" id="n"/><path fill="#248814" d="M114-163C36-179 61-72 57 0H25l-1-190h30c1 12-1 29 2 39 6-27 23-49 58-41v29" id="o"/><path fill="#248814" d="M59-47c-2 24 18 29 38 22v24C64 9 27 4 27-40v-127H5v-23h24l9-43h21v43h35v23H59v120" id="p"/><path fill="#248814" d="M84 4C-5 8 30-112 23-190h32v120c0 31 7 50 39 49 72-2 45-101 50-169h31l1 190h-30c-1-10 1-25-2-33-11 22-28 36-60 37" id="q"/><path fill="#248814" d="M141-36C126-15 110 5 73 4 37 3 15-17 15-53c-1-64 63-63 125-63 3-35-9-54-41-54-24 1-41 7-42 31l-33-3c5-37 33-52 76-52 45 0 72 20 72 64v82c-1 20 7 32 28 27v20c-31 9-61-2-59-35zM48-53c0 20 12 33 32 33 41-3 63-29 60-74-43 2-92-5-92 41" id="r"/><path fill="#248814" d="M24 0v-261h32V0H24" id="s"/><g id="a"><use transform="matrix(0.05,0,0,0.05,0,0)" xlink:href="#m"/><use transform="matrix(0.05,0,0,0.05,11.65,0)" xlink:href="#n"/><use transform="matrix(0.05,0,0,0.05,15.600000000000001,0)" xlink:href="#o"/><use transform="matrix(0.05,0,0,0.05,21.55,0)" xlink:href="#p"/><use transform="matrix(0.05,0,0,0.05,26.55,0)" xlink:href="#q"/><use transform="matrix(0.05,0,0,0.05,36.55,0)" xlink:href="#r"/><use transform="matrix(0.05,0,0,0.05,46.55,0)" xlink:href="#s"/></g><path fill="#248814" d="M30-248c87 1 191-15 191 75 0 78-77 80-158 76V0H30v-248zm33 125c57 0 124 11 124-50 0-59-68-47-124-48v98" id="t"/><path fill="#248814" d="M108 0H70L1-190h34L89-25l56-165h34" id="u"/><path fill="#248814" d="M100-194c63 0 86 42 84 106H49c0 40 14 67 53 68 26 1 43-12 49-29l28 8c-11 28-37 45-77 45C44 4 14-33 15-96c1-61 26-98 85-98zm52 81c6-60-76-77-97-28-3 7-6 17-6 28h103" id="v"/><g id="b"><use transform="matrix(0.05,0,0,0.05,0,0)" xlink:href="#t"/><use transform="matrix(0.05,0,0,0.05,12,0)" xlink:href="#o"/><use transform="matrix(0.05,0,0,0.05,17.95,0)" xlink:href="#n"/><use transform="matrix(0.05,0,0,0.05,21.9,0)" xlink:href="#u"/><use transform="matrix(0.05,0,0,0.05,30.899999999999995,0)" xlink:href="#r"/><use transform="matrix(0.05,0,0,0.05,40.9,0)" xlink:href="#p"/><use transform="matrix(0.05,0,0,0.05,45.9,0)" xlink:href="#v"/></g><path fill="#248814" d="M212-179c-10-28-35-45-73-45-59 0-87 40-87 99 0 60 29 101 89 101 43 0 62-24 78-52l27 14C228-24 195 4 139 4 59 4 22-46 18-125c-6-104 99-153 187-111 19 9 31 26 39 46" id="w"/><path fill="#248814" d="M100-194c62-1 85 37 85 99 1 63-27 99-86 99S16-35 15-95c0-66 28-99 85-99zM99-20c44 1 53-31 53-75 0-43-8-75-51-75s-53 32-53 75 10 74 51 75" id="x"/><path fill="#248814" d="M85-194c31 0 48 13 60 33l-1-100h32l1 261h-30c-2-10 0-23-3-31C134-8 116 4 85 4 32 4 16-35 15-94c0-66 23-100 70-100zm9 24c-40 0-46 34-46 75 0 40 6 74 45 74 42 0 51-32 51-76 0-42-9-74-50-73" id="y"/><g id="c"><use transform="matrix(0.05,0,0,0.05,0,0)" xlink:href="#w"/><use transform="matrix(0.05,0,0,0.05,12.950000000000001,0)" xlink:href="#s"/><use transform="matrix(0.05,0,0,0.05,16.900000000000002,0)" xlink:href="#x"/><use transform="matrix(0.05,0,0,0.05,26.900000000000002,0)" xlink:href="#q"/><use transform="matrix(0.05,0,0,0.05,36.900000000000006,0)" xlink:href="#y"/></g><path fill="#248814" d="M115-194c53 0 69 39 70 98 0 66-23 100-70 100C84 3 66-7 56-30L54 0H23l1-261h32v101c10-23 28-34 59-34zm-8 174c40 0 45-34 45-75 0-40-5-75-45-74-42 0-51 32-51 76 0 43 10 73 51 73" id="z"/><path fill="#248814" d="M96-169c-40 0-48 33-48 73s9 75 48 75c24 0 41-14 43-38l32 2c-6 37-31 61-74 61-59 0-76-41-82-99-10-93 101-131 147-64 4 7 5 14 7 22l-32 3c-4-21-16-35-41-35" id="A"/><g id="d"><use transform="matrix(0.05,0,0,0.05,0,0)" xlink:href="#t"/><use transform="matrix(0.05,0,0,0.05,12,0)" xlink:href="#q"/><use transform="matrix(0.05,0,0,0.05,22,0)" xlink:href="#z"/><use transform="matrix(0.05,0,0,0.05,32,0)" xlink:href="#s"/><use transform="matrix(0.05,0,0,0.05,35.95,0)" xlink:href="#n"/><use transform="matrix(0.05,0,0,0.05,39.900000000000006,0)" xlink:href="#A"/></g><path fill="#248814" d="M185-189c-5-48-123-54-124 2 14 75 158 14 163 119 3 78-121 87-175 55-17-10-28-26-33-46l33-7c5 56 141 63 141-1 0-78-155-14-162-118-5-82 145-84 179-34 5 7 8 16 11 25" id="B"/><path fill="#248814" d="M117-194c89-4 53 116 60 194h-32v-121c0-31-8-49-39-48C34-167 62-67 57 0H25l-1-190h30c1 10-1 24 2 32 11-22 29-35 61-36" id="C"/><g id="e"><use transform="matrix(0.05,0,0,0.05,0,0)" xlink:href="#B"/><use transform="matrix(0.05,0,0,0.05,12,0)" xlink:href="#q"/><use transform="matrix(0.05,0,0,0.05,22,0)" xlink:href="#z"/><use transform="matrix(0.05,0,0,0.05,32,0)" xlink:href="#C"/><use transform="matrix(0.05,0,0,0.05,42,0)" xlink:href="#v"/><use transform="matrix(0.05,0,0,0.05,52,0)" xlink:href="#p"/></g><path fill="#232f3e" d="M205 0l-28-72H64L36 0H1l101-248h38L239 0h-34zm-38-99l-47-123c-12 45-31 82-46 123h93" id="D"/><path fill="#232f3e" d="M266 0h-40l-56-210L115 0H75L2-248h35L96-30l15-64 43-154h32l59 218 59-218h35" id="E"/><path fill="#232f3e" d="M185-189c-5-48-123-54-124 2 14 75 158 14 163 119 3 78-121 87-175 55-17-10-28-26-33-46l33-7c5 56 141 63 141-1 0-78-155-14-162-118-5-82 145-84 179-34 5 7 8 16 11 25" id="F"/><g id="f"><use transform="matrix(0.05,0,0,0.05,0,0)" xlink:href="#D"/><use transform="matrix(0.05,0,0,0.05,11.35,0)" xlink:href="#E"/><use transform="matrix(0.05,0,0,0.05,28.299999999999997,0)" xlink:href="#F"/></g><path fill="#232f3e" d="M212-179c-10-28-35-45-73-45-59 0-87 40-87 99 0 60 29 101 89 101 43 0 62-24 78-52l27 14C228-24 195 4 139 4 59 4 22-46 18-125c-6-104 99-153 187-111 19 9 31 26 39 46" id="G"/><path fill="#232f3e" d="M24 0v-261h32V0H24" id="H"/><path fill="#232f3e" d="M100-194c62-1 85 37 85 99 1 63-27 99-86 99S16-35 15-95c0-66 28-99 85-99zM99-20c44 1 53-31 53-75 0-43-8-75-51-75s-53 32-53 75 10 74 51 75" id="I"/><path fill="#232f3e" d="M84 4C-5 8 30-112 23-190h32v120c0 31 7 50 39 49 72-2 45-101 50-169h31l1 190h-30c-1-10 1-25-2-33-11 22-28 36-60 37" id="J"/><path fill="#232f3e" d="M85-194c31 0 48 13 60 33l-1-100h32l1 261h-30c-2-10 0-23-3-31C134-8 116 4 85 4 32 4 16-35 15-94c0-66 23-100 70-100zm9 24c-40 0-46 34-46 75 0 40 6 74 45 74 42 0 51-32 51-76 0-42-9-74-50-73" id="K"/><g id="g"><use transform="matrix(0.05,0,0,0.05,0,0)" xlink:href="#G"/><use transform="matrix(0.05,0,0,0.05,12.950000000000001,0)" xlink:href="#H"/><use transform="matrix(0.05,0,0,0.05,16.900000000000002,0)" xlink:href="#I"/><use transform="matrix(0.05,0,0,0.05,26.900000000000002,0)" xlink:href="#J"/><use transform="matrix(0.05,0,0,0.05,36.900000000000006,0)" xlink:href="#K"/></g><path d="M30 0v-248h33v221h125V0H30" id="L"/><path d="M141-36C126-15 110 5 73 4 37 3 15-17 15-53c-1-64 63-63 125-63 3-35-9-54-41-54-24 1-41 7-42 31l-33-3c5-37 33-52 76-52 45 0 72 20 72 64v82c-1 20 7 32 28 27v20c-31 9-61-2-59-35zM48-53c0 20 12 33 32 33 41-3 63-29 60-74-43 2-92-5-92 41" id="M"/><path d="M210-169c-67 3-38 105-44 169h-31v-121c0-29-5-50-35-48C34-165 62-65 56 0H25l-1-190h30c1 10-1 24 2 32 10-44 99-50 107 0 11-21 27-35 58-36 85-2 47 119 55 194h-31v-121c0-29-5-49-35-48" id="N"/><path d="M115-194c53 0 69 39 70 98 0 66-23 100-70 100C84 3 66-7 56-30L54 0H23l1-261h32v101c10-23 28-34 59-34zm-8 174c40 0 45-34 45-75 0-40-5-75-45-74-42 0-51 32-51 76 0 43 10 73 51 73" id="O"/><path d="M85-194c31 0 48 13 60 33l-1-100h32l1 261h-30c-2-10 0-23-3-31C134-8 116 4 85 4 32 4 16-35 15-94c0-66 23-100 70-100zm9 24c-40 0-46 34-46 75 0 40 6 74 45 74 42 0 51-32 51-76 0-42-9-74-50-73" id="P"/><g id="h"><use transform="matrix(0.05,0,0,0.05,0,0)" xlink:href="#L"/><use transform="matrix(0.05,0,0,0.05,10,0)" xlink:href="#M"/><use transform="matrix(0.05,0,0,0.05,20,0)" xlink:href="#N"/><use transform="matrix(0.05,0,0,0.05,34.95,0)" xlink:href="#O"/><use transform="matrix(0.05,0,0,0.05,44.95,0)" xlink:href="#P"/><use transform="matrix(0.05,0,0,0.05,54.95,0)" xlink:href="#M"/></g><path d="M63-220v92h138v28H63V0H30v-248h175v28H63" id="Q"/><path d="M84 4C-5 8 30-112 23-190h32v120c0 31 7 50 39 49 72-2 45-101 50-169h31l1 190h-30c-1-10 1-25-2-33-11 22-28 36-60 37" id="R"/><path d="M117-194c89-4 53 116 60 194h-32v-121c0-31-8-49-39-48C34-167 62-67 57 0H25l-1-190h30c1 10-1 24 2 32 11-22 29-35 61-36" id="S"/><path d="M96-169c-40 0-48 33-48 73s9 75 48 75c24 0 41-14 43-38l32 2c-6 37-31 61-74 61-59 0-76-41-82-99-10-93 101-131 147-64 4 7 5 14 7 22l-32 3c-4-21-16-35-41-35" id="T"/><path d="M59-47c-2 24 18 29 38 22v24C64 9 27 4 27-40v-127H5v-23h24l9-43h21v43h35v23H59v120" id="U"/><path d="M24-231v-30h32v30H24zM24 0v-190h32V0H24" id="V"/><path d="M100-194c62-1 85 37 85 99 1 63-27 99-86 99S16-35 15-95c0-66 28-99 85-99zM99-20c44 1 53-31 53-75 0-43-8-75-51-75s-53 32-53 75 10 74 51 75" id="W"/><g id="i"><use transform="matrix(0.05,0,0,0.05,0,0)" xlink:href="#Q"/><use transform="matrix(0.05,0,0,0.05,10.950000000000001,0)" xlink:href="#R"/><use transform="matrix(0.05,0,0,0.05,20.950000000000003,0)" xlink:href="#S"/><use transform="matrix(0.05,0,0,0.05,30.950000000000003,0)" xlink:href="#T"/><use transform="matrix(0.05,0,0,0.05,39.95,0)" xlink:href="#U"/><use transform="matrix(0.05,0,0,0.05,44.95,0)" xlink:href="#V"/><use transform="matrix(0.05,0,0,0.05,48.900000000000006,0)" xlink:href="#W"/><use transform="matrix(0.05,0,0,0.05,58.900000000000006,0)" xlink:href="#S"/></g><path d="M30 0v-248h187v28H63v79h144v27H63v87h162V0H30" id="X"/><path d="M24 0v-261h32V0H24" id="Y"/><path d="M135-143c-3-34-86-38-87 0 15 53 115 12 119 90S17 21 10-45l28-5c4 36 97 45 98 0-10-56-113-15-118-90-4-57 82-63 122-42 12 7 21 19 24 35" id="Z"/><g id="j"><use transform="matrix(0.05,0,0,0.05,0,0)" xlink:href="#X"/><use transform="matrix(0.05,0,0,0.05,12,0)" xlink:href="#Y"/><use transform="matrix(0.05,0,0,0.05,15.949999999999998,0)" xlink:href="#M"/><use transform="matrix(0.05,0,0,0.05,25.950000000000003,0)" xlink:href="#Z"/><use transform="matrix(0.05,0,0,0.05,34.95,0)" xlink:href="#U"/><use transform="matrix(0.05,0,0,0.05,39.95,0)" xlink:href="#V"/><use transform="matrix(0.05,0,0,0.05,43.900000000000006,0)" xlink:href="#T"/></g><path d="M33 0v-248h34V0H33" id="aa"/><path d="M30-248c87 1 191-15 191 75 0 78-77 80-158 76V0H30v-248zm33 125c57 0 124 11 124-50 0-59-68-47-124-48v98" id="ab"/><g id="k"><use transform="matrix(0.05,0,0,0.05,0,0)" xlink:href="#aa"/><use transform="matrix(0.05,0,0,0.05,5,0)" xlink:href="#ab"/></g><path d="M205 0l-28-72H64L36 0H1l101-248h38L239 0h-34zm-38-99l-47-123c-12 45-31 82-46 123h93" id="ac"/><path d="M114-163C36-179 61-72 57 0H25l-1-190h30c1 12-1 29 2 39 6-27 23-49 58-41v29" id="ad"/><path d="M100-194c63 0 86 42 84 106H49c0 40 14 67 53 68 26 1 43-12 49-29l28 8c-11 28-37 45-77 45C44 4 14-33 15-96c1-61 26-98 85-98zm52 81c6-60-76-77-97-28-3 7-6 17-6 28h103" id="ae"/><g id="l"><use transform="matrix(0.05,0,0,0.05,0,0)" xlink:href="#ac"/><use transform="matrix(0.05,0,0,0.05,12,0)" xlink:href="#P"/><use transform="matrix(0.05,0,0,0.05,22,0)" xlink:href="#P"/><use transform="matrix(0.05,0,0,0.05,32,0)" xlink:href="#ad"/><use transform="matrix(0.05,0,0,0.05,37.95,0)" xlink:href="#ae"/><use transform="matrix(0.05,0,0,0.05,47.95,0)" xlink:href="#Z"/><use transform="matrix(0.05,0,0,0.05,56.95,0)" xlink:href="#Z"/></g></defs></g></svg>