<svg xmlns="http://www.w3.org/2000/svg" xmlns:xlink="http://www.w3.org/1999/xlink" xmlns:lucid="lucid" width="1571.29" height="611"><g transform="translate(-119.49999999671485 1850.5000000014154)" lucid:page-tab-id="0_0"><path d="M0-3776.5h1870.87v2581.66H0z" fill="#fff"/><path d="M215.54-1754a6 6 0 0 1 6-6h1186.88a6 6 0 0 1 6 6v448a6 6 0 0 1-6 6H221.54a6 6 0 0 1-6-6z" stroke="#635dff" fill="#fff" fill-opacity="0"/><path d="M215.54-1760h56v56h-56v-56z" stroke="#fff" stroke-opacity="0" fill="#635dff"/><path d="M247.3-1731.7h-1.18v-1.1c-.12-1.73-1.47-3.07-3.2-3.2-1.9-.13-3.54 1.3-3.67 3.2v1.07h-1.18c-.44 0-.8.36-.8.8v6.13c0 .44.36.8.8.8h9.23c.44 0 .8-.36.8-.8v-6.1c0-.43-.36-.8-.8-.8zm-6.4-1.06c.1-1.03 1-1.77 2-1.67.9.08 1.58.77 1.67 1.67v1.06h-3.72zm5.65 7.08h-7.68v-4.42h7.63z" stroke="#fff" stroke-opacity="0" fill="#fff"/><path d="M257.8-1734.26c-.07-2.44-1.57-4.47-3.86-5.3-1.58-.46-3.16-.13-4.4.9-.68-1.44-1.47-2.6-2.6-3.75-3.24-3.36-7.94-4.3-12.18-2.4-4.04 1.9-6.4 5.63-6.53 10.05v.7c-3.42.97-5.66 4.08-5.5 7.65v.63c.38 4.28 3.9 7.52 8.2 7.47h26s7.4-.63 7.4-8.1c.05-3.9-2.65-7.2-6.52-7.86zm-.95 14.4h-25.92c-3.45.05-6.28-2.53-6.58-5.97v-.52c-.16-3.05 1.92-5.7 4.9-6.3.4-.12.64-.48.6-.9-.04-.4-.04-.73 0-1.14.08-3.78 2.12-6.94 5.53-8.6 1.25-.57 2.4-.8 3.83-.84 2.63.08 4.88 1.04 6.7 2.94 1.26 1.3 2.05 2.6 2.63 4.3.04.15.13.28.25.37.38.27.87.2 1.12-.17.84-1.18 2.25-1.67 3.62-1.3 1.8.72 2.87 2.4 2.83 4.32-.08.4.2.83.63.9 3.58.36 6.2 3.55 5.82 7.12-.3 3.13-2.7 5.52-5.82 5.85z" stroke="#fff" stroke-opacity="0" fill="#fff"/><use xlink:href="#a" transform="matrix(1,0,0,1,286.54126973960473,-1740) translate(0 14.4)"/><use xlink:href="#b" transform="matrix(1,0,0,1,286.54126973960473,-1740) translate(55.5 14.4)"/><use xlink:href="#c" transform="matrix(1,0,0,1,286.54126973960473,-1740) translate(116.4 14.4)"/><path d="M786.33-1654a6 6 0 0 1 6-6h515.03a6 6 0 0 1 6 6v288a6 6 0 0 1-6 6H792.33a6 6 0 0 1-6-6z" fill="#248814" fill-opacity=".13"/><path d="M786.33-1660h56v56h-56v-56z" stroke="#fff" stroke-opacity="0" fill="#248814"/><path d="M829.7-1637.82c-.14-.17-.33-.25-.55-.25H824v-5.58c-.02-2.54-.96-4.7-2.83-6.4-1.9-1.84-4.15-2.75-6.77-2.75-2.66 0-4.9.83-6.8 2.62-1.9 1.7-2.88 3.87-2.9 6.4v5.66h-5.16c-.25 0-.43.1-.6.25-.14.17-.2.34-.2.6v25.28c0 .43.34.8.8.8h29.58c.47 0 .8-.37.8-.8v-25.28c0-.2-.05-.38-.2-.54zm-23.45-5.9c.03-2.13.8-3.88 2.37-5.3 1.63-1.5 3.53-2.2 5.75-2.2 2.2 0 4.1.75 5.7 2.25 1.53 1.4 2.3 3.2 2.3 5.32v5.58h-16.15zm22.1 30.94h-28.02v-23.7h28z" stroke="#fff" stroke-opacity="0" fill="#fff"/><path d="M813.53-1622.7v6.25h1.6v-6.23c2.13-.4 3.63-2.2 3.63-4.35 0-2.43-1.97-4.4-4.4-4.43-2.2-.03-4.06 1.5-4.44 3.68-.4 2.4 1.2 4.68 3.6 5.1zm.82-7.15c.78 0 1.44.27 2 .82.55.56.82 1.22.8 2 .03 1.55-1.2 2.8-2.74 2.82h-.05c-1.56.1-2.92-1.06-3.04-2.62-.1-1.56 1.06-2.93 2.62-3.03.15-.02.28-.02.43 0z" stroke="#fff" stroke-opacity="0" fill="#fff"/><use xlink:href="#d" transform="matrix(1,0,0,1,857.3333964207086,-1640) translate(0 14.4)"/><use xlink:href="#e" transform="matrix(1,0,0,1,857.3333964207086,-1640) translate(53.900000000000006 14.4)"/><path d="M120-1844a6 6 0 0 1 6-6h1388a6 6 0 0 1 6 6v598a6 6 0 0 1-6 6H126a6 6 0 0 1-6-6z" stroke="#232f3e" fill="#fff" fill-opacity="0"/><path d="M120-1850h56v56h-56v-56z" stroke="#fff" stroke-opacity="0" fill="#232f3e"/><path d="M138.22-1824.13c-.04.48.04.87.17 1.34.1.4.28.7.48 1.08.04.1.08.2.08.33 0 .2-.12.36-.28.46l-.95.62c-.12.1-.24.13-.37.13-.16 0-.33-.06-.45-.2-.2-.2-.36-.43-.52-.7-.17-.25-.3-.53-.45-.86-1.1 1.37-2.63 2.1-4.4 2.06-1.15.06-2.13-.3-2.96-1.08-.78-.8-1.14-1.76-1.1-2.85-.05-1.23.4-2.28 1.35-3.08 1.07-.86 2.3-1.23 3.66-1.16.57 0 1.02.02 1.6.1.57.1 1.1.2 1.72.33v-1.1c.08-.88-.16-1.67-.7-2.37-.74-.56-1.56-.8-2.46-.7-.53 0-1.03.07-1.6.2-.58.13-1.03.3-1.6.5l-.5.2h-.24c-.2 0-.33-.16-.33-.45v-.75c0-.18.04-.34.12-.5.12-.16.24-.26.4-.33.66-.3 1.2-.5 1.9-.67.77-.2 1.47-.3 2.3-.28 1.47-.13 2.78.26 3.9 1.2.94 1.05 1.35 2.28 1.22 3.67zm-6.07 2.28c.57 0 1.06-.1 1.6-.28.57-.2 1.03-.5 1.44-.96.23-.27.4-.57.48-.93.12-.45.16-.84.16-1.3v-.67c-.53-.1-.94-.17-1.44-.2H133c-.8-.08-1.55.12-2.2.58-.54.45-.8 1.04-.75 1.73-.04.62.13 1.16.54 1.6.44.38.97.52 1.55.45zm12 1.6c-.22.02-.42-.03-.6-.15-.15-.17-.23-.36-.32-.6l-3.5-11.5-.1-.62c0-.24.1-.37.36-.37h1.47c.2 0 .37.04.57.15.17.18.25.37.3.6l2.5 9.96 2.38-9.93c0-.24.08-.44.28-.6.17-.12.37-.16.58-.14h1.2c.24-.02.4.02.6.13.17.2.25.37.3.6l2.33 9.95 2.56-10c.04-.2.16-.4.33-.58.15-.1.36-.17.56-.14h1.4c.16 0 .33.12.37.3v.31s0 .2-.12.35l-3.6 11.53c-.05.22-.13.42-.3.6-.2.1-.36.14-.57.13h-1.27c-.25.04-.46-.02-.62-.15-.16-.16-.25-.36-.3-.6l-2.3-9.6-2.28 9.6c-.05.24-.13.43-.3.6-.2.13-.4.2-.6.16zm19.2.38c-.82 0-1.5-.07-2.3-.25-.65-.13-1.15-.3-1.72-.6-.2-.1-.37-.23-.45-.4v-.02c-.08-.14-.12-.28-.12-.43v-.75c0-.3.12-.46.32-.46h.3l.36.15c.58.24 1.03.4 1.6.5.62.15 1.15.2 1.8.2.8.06 1.5-.1 2.2-.48.48-.32.77-.83.72-1.42.05-.4-.12-.76-.37-1.04-.46-.4-.95-.65-1.52-.8l-2.18-.67c-.94-.26-1.72-.74-2.38-1.5-.5-.66-.74-1.36-.74-2.2 0-.58.12-1.07.4-1.6.3-.5.63-.88 1.08-1.2.5-.4.98-.62 1.6-.8.66-.17 1.2-.25 1.9-.24.32-.03.6-.03.97 0l1 .16.8.23.67.25c.16.1.28.22.45.38.08.15.12.3.12.5v.7c0 .32-.12.47-.37.47-.2-.03-.37-.1-.57-.18-.95-.43-1.8-.6-2.88-.58-.7-.04-1.3.1-1.97.4-.5.3-.74.8-.7 1.36 0 .4.13.76.46 1.05.5.4.98.65 1.6.82l2.1.67c.94.24 1.68.7 2.3 1.44.48.64.7 1.3.7 2.1 0 .63-.13 1.17-.38 1.73-.3.55-.62.95-1.1 1.32-.5.4-1 .66-1.6.84-.75.23-1.4.33-2.15.34zM166.1-1812.52c-5.6 3.82-11.36 5.58-18.15 5.56-8.54.05-15.82-2.74-22.16-8.45-.5-.42 0-1 .48-.68 7.07 4.05 14.03 5.9 22.2 5.9 6.1-.04 11.3-1.1 16.93-3.47.83-.35 1.52.55.7 1.13z" stroke="#fff" stroke-opacity="0" fill="#fff"/><path d="M168.16-1814.8c-.64-.82-4.16-.38-5.75-.2-.46 0-.53-.36-.1-.66 2.8-1.98 7.42-1.4 8-.74.6.67-.14 5.28-2.78 7.5-.4.33-.78.13-.6-.3.54-1.52 1.86-4.83 1.24-5.6z" stroke="#fff" stroke-opacity="0" fill="#fff"/><use xlink:href="#f" transform="matrix(1,0,0,1,191,-1830) translate(0 14.4)"/><use xlink:href="#g" transform="matrix(1,0,0,1,191,-1830) translate(45.3 14.4)"/><path d="M260-1654a6 6 0 0 1 6-6h408a6 6 0 0 1 6 6v288a6 6 0 0 1-6 6H266a6 6 0 0 1-6-6z" fill="#147eba" fill-opacity=".13"/><path d="M260-1660h56v56h-56v-56z" stroke="#fff" stroke-opacity="0" fill="#147eba"/><path d="M303.38-1637.82c-.15-.17-.34-.25-.56-.25h-5.15v-5.58c-.03-2.54-.97-4.7-2.84-6.4-1.9-1.84-4.15-2.75-6.77-2.75-2.65 0-4.9.83-6.8 2.62-1.9 1.7-2.87 3.87-2.9 6.4v5.66h-5.15c-.24 0-.43.1-.58.25-.16.17-.22.34-.22.6v25.28c0 .43.34.8.8.8h29.6c.46 0 .8-.37.8-.8v-25.28c0-.2-.06-.38-.22-.54zm-23.46-5.9c.03-2.13.8-3.88 2.37-5.3 1.6-1.5 3.52-2.2 5.73-2.2 2.22 0 4.12.75 5.7 2.25 1.54 1.4 2.32 3.2 2.32 5.32v5.58H279.9zm22.1 30.94h-28.03v-23.7h28z" stroke="#fff" stroke-opacity="0" fill="#fff"/><path d="M287.2-1622.7v6.25h1.6v-6.23c2.13-.4 3.62-2.2 3.63-4.35 0-2.43-1.97-4.4-4.4-4.43-2.2-.03-4.06 1.5-4.44 3.68-.42 2.4 1.2 4.68 3.6 5.1zm.82-7.15c.78 0 1.44.27 2 .82.54.56.82 1.22.8 2 .03 1.55-1.2 2.8-2.74 2.82h-.06c-1.56.1-2.92-1.06-3.04-2.62-.12-1.56 1.05-2.93 2.6-3.03.16-.02.3-.02.44 0z" stroke="#fff" stroke-opacity="0" fill="#fff"/><use xlink:href="#h" transform="matrix(1,0,0,1,331,-1640) translate(0 14.4)"/><use xlink:href="#i" transform="matrix(1,0,0,1,331,-1640) translate(60.9 14.4)"/><path d="M1211.25-1597.36c.96 1.03.96 2.7 0 3.72l-17.52 19.06-3.96-3.77 13.2-14.4h-62.64c-1.32 12.2-11.64 21.75-24.12 21.75-13.3 0-24.23-10.98-24.23-24.5s10.92-24.5 24.24-24.5c12.5 0 22.8 9.56 24.13 21.76h62.64l-13.2-14.4 3.96-3.78zm-95.04 20.87c10.45 0 18.85-8.5 18.85-19s-8.4-19-18.84-19c-10.3 0-18.83 8.5-18.83 19s8.52 19 18.84 19zm89.05-18.66l.24-.34-.25-.34z" stroke="#000" stroke-opacity="0" fill="#d45b07"/><use xlink:href="#j" transform="matrix(1,0,0,1,1061.9684323883953,-1562) translate(17.25 14.4)"/><use xlink:href="#k" transform="matrix(1,0,0,1,1061.9684323883953,-1562) translate(75.15 14.4)"/><use xlink:href="#l" transform="matrix(1,0,0,1,1061.9684323883953,-1562) translate(96.80000000000001 14.4)"/><path d="M995.7-1510h558.8" stroke="#3a414a" fill="none"/><path d="M995.7-1509.5h-.53l.02-.5v-.5h.5z" stroke="#3a414a" stroke-width=".05" fill="#3a414a"/><path d="M1569.27-1510l-14.26 4.63v-9.27z" stroke="#3a414a" fill="#3a414a"/><path d="M1619.75-1491.7h-21.24c-10.55 0-19.07-8.6-19.07-19.4 0-10.8 8.04-19.4 19.08-19.4 1.93 0 4.1.5 6.5.7l4.07 1.2 1.2-4.1c3.84-12.4 15.72-20.1 29.4-20.1 16.44 0 29.16 12.7 29.16 29.3 0 2.6-.48 5.2-1.2 7.9l-1.68 6 6.48-.8h1.2c4.68 0 8.52 4.1 8.52 8.7 0 4.5-3.36 7.9-7.32 8.6h-21.36c-.72-6-3.84-11.3-7.8-15.3-5.28-5.3-12.48-8.4-19.92-8.4-5.28 0-10.44 1.4-14.52 4l4.56 7.2c3.23-1.9 6.6-2.6 10.43-2.6 5.28 0 10.56 1.9 13.92 6 3.84 3.8 5.88 8.6 5.88 13.9 0 5.3-1.8 10.6-5.88 13.9-3.84 4.1-8.64 6-13.92 6-3.84 0-7.44-1.2-10.44-3.4l-4.57 7.2c4.56 2.7 9.72 4.6 14.52 4.6 7.44 0 14.64-2.6 19.92-8.2 4.44-4.5 7.08-10.5 7.8-16.7h22.34c8.5-.8 15-8.2 15-17.3 0-7.2-6.73-13.9-14.65-15.4.48-1.4.48-2.1.48-4.5 0-21.1-14.76-37.9-38.4-37.9-15.12 0-28.44 8.6-33.96 22.5-1.92 0-3.36-.7-5.52-.7-15.48-.2-27.96 11.8-27.96 27.1 0 15.1 12.47 27.1 27.23 27.1h23.4l-1.68-7.7z" stroke="#000" stroke-opacity="0" fill="#59b4d9"/><path d="M1638.68-1488.54c0 7.42-6 13.43-13.4 13.43-7.38 0-13.37-6.02-13.37-13.44 0-7.4 6-13.43 13.4-13.43 7.38 0 13.38 6.02 13.38 13.43z" stroke="#000" stroke-opacity="0" fill="#68217a"/><path d="M1615.7-1471.7l4.2-6.7-7.62-7.08-21.4-1.4-16.64-12.37-1.48-17.2 12.76-17.5 21.06-.2 12.53-17.58 20.28-4.84 18.45 5.03 11.4 10.05 4.2 15.64-.57 12.93 13.78 4.84-3.42 14.8-13.1 5.22-18.9.83-6.5 12.57-9.33 9.86-13.44 1.3z" stroke="#000" stroke-opacity="0" stroke-width="0" fill-opacity="0"/><use xlink:href="#m" transform="matrix(1,0,0,1,1540.7917028601616,-1451) translate(36.55 14.4)"/><use xlink:href="#n" transform="matrix(1,0,0,1,1540.7917028601616,-1451) translate(67.5 14.4)"/><use xlink:href="#o" transform="matrix(1,0,0,1,1540.7917028601616,-1451) translate(114.45 14.4)"/><path d="M453.28-1575c33.12 0 60 26.88 60 60 0 33.12-26.88 60-60 60-33.12 0-60-26.88-60-60 0-33.12 26.88-60 60-60zm0 114.6c30.12 0 54.6-24.48 54.6-54.6s-24.48-54.6-54.6-54.6-54.6 24.48-54.6 54.6 24.48 54.6 54.6 54.6zm35.76-40.68c1.56 0 2.76 1.32 2.76 2.76v16.68c0 1.56-1.2 2.76-2.76 2.76h-19.32c-1.08 0-2.04-.6-2.4-1.56l-27.12-58.08h-10.8c-.72 0-1.44-.24-1.92-.84-.48-.48-.84-1.2-.84-1.92l.12-16.68c0-1.56 1.2-2.76 2.64-2.76h24.24c.96 0 1.92.6 2.4 1.68l26.88 57.96zm-2.64 16.8v-11.28h-5.16c-1.08 0-2.04-.6-2.52-1.56l-26.88-58.08h-19.68v11.28H442c1.08 0 2.04.6 2.4 1.56l27.12 58.08zm-46.44-43.8l10.32 21.36c.36.84.36 1.68 0 2.4L439-1480.44c-.48.96-1.44 1.56-2.4 1.56h-20.76c-.84 0-1.8-.48-2.28-1.2-.48-.84-.48-1.8-.12-2.64l21.6-45.36c.48-.96 1.44-1.56 2.4-1.56 1.08 0 2.04.6 2.52 1.56zm-5.16 43.8l10.08-21.24-7.32-15-17.4 36.24z" stroke="#000" stroke-opacity="0" fill="#d45b07"/><use xlink:href="#p" transform="matrix(1,0,0,1,363.28227423488283,-1446) translate(20.57499999999999 14.4)"/><use xlink:href="#q" transform="matrix(1,0,0,1,363.28227423488283,-1446) translate(90.52499999999999 14.4)"/><path d="M940.2-1455c-30.37 0-55-24.64-55-55s24.63-55 55-55c30.35 0 55 24.64 55 55s-24.65 55-55 55zm0-105.27c-27.84 0-50.28 22.44-50.28 50.27 0 27.83 22.44 50.27 50.27 50.27 27.82 0 50.26-22.44 50.26-50.27 0-27.83-22.44-50.27-50.27-50.27z" stroke="#fff" stroke-opacity="0" fill="#693cc5"/><path d="M946.78-1479.13h-19.3v-4.7h16.96v-47.94H927.5v-4.7h19.28c1.3 0 2.33 1.03 2.33 2.35v52.64c0 1.32-1.03 2.35-2.32 2.35z" stroke="#fff" stroke-opacity="0" fill="#693cc5"/><path d="M927.02-1510.14h41.68v4.68h-41.68v-4.68zM911.66-1523c-.36 0-.68-.08-1-.26-.83-.38-1.34-1.18-1.34-2.1v-17.54c0-.93.5-1.7 1.33-2.1.84-.4 1.76-.32 2.5.26l10.94 8.78c.57.47.88 1.1.88 1.83s-.3 1.38-.9 1.82l-10.94 8.78c-.43.35-.92.5-1.48.5zm2.35-15.05v7.83l4.9-3.9zM911.66-1496.68c-.36 0-.68-.07-1-.25-.83-.38-1.34-1.18-1.34-2.1v-17.54c0-.93.5-1.7 1.33-2.1.84-.4 1.76-.32 2.5.26l10.94 8.77c.57.47.88 1.1.88 1.83s-.3 1.38-.9 1.82l-10.94 8.8c-.43.34-.92.5-1.48.5zm2.35-15.04v7.83l4.9-3.9z" stroke="#fff" stroke-opacity="0" fill="#693cc5"/><path d="M970.9-1494.5c-.32 0-.6-.06-.88-.17-.9-.37-1.46-1.2-1.46-2.18v-21.94c0-1.27 1.03-2.33 2.33-2.33.63 0 1.2.24 1.67.7l10.98 10.96c.9.93.9 2.4 0 3.3l-10.98 11c-.47.45-1.02.66-1.68.66zm2.34-18.72v10.65l5.34-5.33zM911.67-1472.55c-.38 0-.7-.07-1.02-.25-.82-.38-1.33-1.18-1.33-2.1v-17.54c0-1.3 1.04-2.36 2.33-2.36.57 0 1.05.18 1.5.54l10.94 8.76c1 .8 1.16 2.3.35 3.3-.1.13-.22.24-.36.35l-10.96 8.78c-.44.36-.92.52-1.47.52zm2.33-15.04v7.84l4.9-3.9z" stroke="#fff" stroke-opacity="0" fill="#693cc5"/><g><use xlink:href="#r" transform="matrix(1,0,0,1,855.1941989470242,-1446) translate(19.475308641975317 17.77777777777778)"/><use xlink:href="#s" transform="matrix(1,0,0,1,855.1941989470242,-1446) translate(67.87037037037038 17.77777777777778)"/></g><path d="M1091.47-1595.5H946.2a6 6 0 0 0-6 6v8.12" stroke="#3a414a" fill="none"/><path d="M1091.97-1595.5l.03.5h-.54v-1h.56z" stroke="#3a414a" stroke-width=".05" fill="#3a414a"/><path d="M940.2-1566.62l-4.64-14.26h9.27z" stroke="#3a414a" fill="#3a414a"/><path d="M513.78-1515h355.26" stroke="#3a414a" fill="none"/><path d="M513.8-1514.5h-.54l.02-.5v-.5h.5z" stroke="#3a414a" stroke-width=".05" fill="#3a414a"/><path d="M883.8-1515l-14.26 4.63v-9.27z" stroke="#3a414a" fill="#3a414a"/><defs><path fill="#635dff" d="M137 0h-34L2-248h35l83 218 83-218h36" id="t"/><path fill="#635dff" d="M24-231v-30h32v30H24zM24 0v-190h32V0H24" id="u"/><path fill="#635dff" d="M114-163C36-179 61-72 57 0H25l-1-190h30c1 12-1 29 2 39 6-27 23-49 58-41v29" id="v"/><path fill="#635dff" d="M59-47c-2 24 18 29 38 22v24C64 9 27 4 27-40v-127H5v-23h24l9-43h21v43h35v23H59v120" id="w"/><path fill="#635dff" d="M84 4C-5 8 30-112 23-190h32v120c0 31 7 50 39 49 72-2 45-101 50-169h31l1 190h-30c-1-10 1-25-2-33-11 22-28 36-60 37" id="x"/><path fill="#635dff" d="M141-36C126-15 110 5 73 4 37 3 15-17 15-53c-1-64 63-63 125-63 3-35-9-54-41-54-24 1-41 7-42 31l-33-3c5-37 33-52 76-52 45 0 72 20 72 64v82c-1 20 7 32 28 27v20c-31 9-61-2-59-35zM48-53c0 20 12 33 32 33 41-3 63-29 60-74-43 2-92-5-92 41" id="y"/><path fill="#635dff" d="M24 0v-261h32V0H24" id="z"/><g id="a"><use transform="matrix(0.05,0,0,0.05,0,0)" xlink:href="#t"/><use transform="matrix(0.05,0,0,0.05,11.65,0)" xlink:href="#u"/><use transform="matrix(0.05,0,0,0.05,15.600000000000001,0)" xlink:href="#v"/><use transform="matrix(0.05,0,0,0.05,21.55,0)" xlink:href="#w"/><use transform="matrix(0.05,0,0,0.05,26.55,0)" xlink:href="#x"/><use transform="matrix(0.05,0,0,0.05,36.55,0)" xlink:href="#y"/><use transform="matrix(0.05,0,0,0.05,46.55,0)" xlink:href="#z"/></g><path fill="#635dff" d="M30-248c87 1 191-15 191 75 0 78-77 80-158 76V0H30v-248zm33 125c57 0 124 11 124-50 0-59-68-47-124-48v98" id="A"/><path fill="#635dff" d="M108 0H70L1-190h34L89-25l56-165h34" id="B"/><path fill="#635dff" d="M100-194c63 0 86 42 84 106H49c0 40 14 67 53 68 26 1 43-12 49-29l28 8c-11 28-37 45-77 45C44 4 14-33 15-96c1-61 26-98 85-98zm52 81c6-60-76-77-97-28-3 7-6 17-6 28h103" id="C"/><g id="b"><use transform="matrix(0.05,0,0,0.05,0,0)" xlink:href="#A"/><use transform="matrix(0.05,0,0,0.05,12,0)" xlink:href="#v"/><use transform="matrix(0.05,0,0,0.05,17.95,0)" xlink:href="#u"/><use transform="matrix(0.05,0,0,0.05,21.9,0)" xlink:href="#B"/><use transform="matrix(0.05,0,0,0.05,30.899999999999995,0)" xlink:href="#y"/><use transform="matrix(0.05,0,0,0.05,40.9,0)" xlink:href="#w"/><use transform="matrix(0.05,0,0,0.05,45.9,0)" xlink:href="#C"/></g><path fill="#635dff" d="M212-179c-10-28-35-45-73-45-59 0-87 40-87 99 0 60 29 101 89 101 43 0 62-24 78-52l27 14C228-24 195 4 139 4 59 4 22-46 18-125c-6-104 99-153 187-111 19 9 31 26 39 46" id="D"/><path fill="#635dff" d="M100-194c62-1 85 37 85 99 1 63-27 99-86 99S16-35 15-95c0-66 28-99 85-99zM99-20c44 1 53-31 53-75 0-43-8-75-51-75s-53 32-53 75 10 74 51 75" id="E"/><path fill="#635dff" d="M85-194c31 0 48 13 60 33l-1-100h32l1 261h-30c-2-10 0-23-3-31C134-8 116 4 85 4 32 4 16-35 15-94c0-66 23-100 70-100zm9 24c-40 0-46 34-46 75 0 40 6 74 45 74 42 0 51-32 51-76 0-42-9-74-50-73" id="F"/><g id="c"><use transform="matrix(0.05,0,0,0.05,0,0)" xlink:href="#D"/><use transform="matrix(0.05,0,0,0.05,12.950000000000001,0)" xlink:href="#z"/><use transform="matrix(0.05,0,0,0.05,16.900000000000002,0)" xlink:href="#E"/><use transform="matrix(0.05,0,0,0.05,26.900000000000002,0)" xlink:href="#x"/><use transform="matrix(0.05,0,0,0.05,36.900000000000006,0)" xlink:href="#F"/></g><path fill="#248814" d="M30-248c87 1 191-15 191 75 0 78-77 80-158 76V0H30v-248zm33 125c57 0 124 11 124-50 0-59-68-47-124-48v98" id="G"/><path fill="#248814" d="M84 4C-5 8 30-112 23-190h32v120c0 31 7 50 39 49 72-2 45-101 50-169h31l1 190h-30c-1-10 1-25-2-33-11 22-28 36-60 37" id="H"/><path fill="#248814" d="M115-194c53 0 69 39 70 98 0 66-23 100-70 100C84 3 66-7 56-30L54 0H23l1-261h32v101c10-23 28-34 59-34zm-8 174c40 0 45-34 45-75 0-40-5-75-45-74-42 0-51 32-51 76 0 43 10 73 51 73" id="I"/><path fill="#248814" d="M24 0v-261h32V0H24" id="J"/><path fill="#248814" d="M24-231v-30h32v30H24zM24 0v-190h32V0H24" id="K"/><path fill="#248814" d="M96-169c-40 0-48 33-48 73s9 75 48 75c24 0 41-14 43-38l32 2c-6 37-31 61-74 61-59 0-76-41-82-99-10-93 101-131 147-64 4 7 5 14 7 22l-32 3c-4-21-16-35-41-35" id="L"/><g id="d"><use transform="matrix(0.05,0,0,0.05,0,0)" xlink:href="#G"/><use transform="matrix(0.05,0,0,0.05,12,0)" xlink:href="#H"/><use transform="matrix(0.05,0,0,0.05,22,0)" xlink:href="#I"/><use transform="matrix(0.05,0,0,0.05,32,0)" xlink:href="#J"/><use transform="matrix(0.05,0,0,0.05,35.95,0)" xlink:href="#K"/><use transform="matrix(0.05,0,0,0.05,39.900000000000006,0)" xlink:href="#L"/></g><path fill="#248814" d="M185-189c-5-48-123-54-124 2 14 75 158 14 163 119 3 78-121 87-175 55-17-10-28-26-33-46l33-7c5 56 141 63 141-1 0-78-155-14-162-118-5-82 145-84 179-34 5 7 8 16 11 25" id="M"/><path fill="#248814" d="M117-194c89-4 53 116 60 194h-32v-121c0-31-8-49-39-48C34-167 62-67 57 0H25l-1-190h30c1 10-1 24 2 32 11-22 29-35 61-36" id="N"/><path fill="#248814" d="M100-194c63 0 86 42 84 106H49c0 40 14 67 53 68 26 1 43-12 49-29l28 8c-11 28-37 45-77 45C44 4 14-33 15-96c1-61 26-98 85-98zm52 81c6-60-76-77-97-28-3 7-6 17-6 28h103" id="O"/><path fill="#248814" d="M59-47c-2 24 18 29 38 22v24C64 9 27 4 27-40v-127H5v-23h24l9-43h21v43h35v23H59v120" id="P"/><g id="e"><use transform="matrix(0.05,0,0,0.05,0,0)" xlink:href="#M"/><use transform="matrix(0.05,0,0,0.05,12,0)" xlink:href="#H"/><use transform="matrix(0.05,0,0,0.05,22,0)" xlink:href="#I"/><use transform="matrix(0.05,0,0,0.05,32,0)" xlink:href="#N"/><use transform="matrix(0.05,0,0,0.05,42,0)" xlink:href="#O"/><use transform="matrix(0.05,0,0,0.05,52,0)" xlink:href="#P"/></g><path fill="#232f3e" d="M205 0l-28-72H64L36 0H1l101-248h38L239 0h-34zm-38-99l-47-123c-12 45-31 82-46 123h93" id="Q"/><path fill="#232f3e" d="M266 0h-40l-56-210L115 0H75L2-248h35L96-30l15-64 43-154h32l59 218 59-218h35" id="R"/><path fill="#232f3e" d="M185-189c-5-48-123-54-124 2 14 75 158 14 163 119 3 78-121 87-175 55-17-10-28-26-33-46l33-7c5 56 141 63 141-1 0-78-155-14-162-118-5-82 145-84 179-34 5 7 8 16 11 25" id="S"/><g id="f"><use transform="matrix(0.05,0,0,0.05,0,0)" xlink:href="#Q"/><use transform="matrix(0.05,0,0,0.05,11.35,0)" xlink:href="#R"/><use transform="matrix(0.05,0,0,0.05,28.299999999999997,0)" xlink:href="#S"/></g><path fill="#232f3e" d="M212-179c-10-28-35-45-73-45-59 0-87 40-87 99 0 60 29 101 89 101 43 0 62-24 78-52l27 14C228-24 195 4 139 4 59 4 22-46 18-125c-6-104 99-153 187-111 19 9 31 26 39 46" id="T"/><path fill="#232f3e" d="M24 0v-261h32V0H24" id="U"/><path fill="#232f3e" d="M100-194c62-1 85 37 85 99 1 63-27 99-86 99S16-35 15-95c0-66 28-99 85-99zM99-20c44 1 53-31 53-75 0-43-8-75-51-75s-53 32-53 75 10 74 51 75" id="V"/><path fill="#232f3e" d="M84 4C-5 8 30-112 23-190h32v120c0 31 7 50 39 49 72-2 45-101 50-169h31l1 190h-30c-1-10 1-25-2-33-11 22-28 36-60 37" id="W"/><path fill="#232f3e" d="M85-194c31 0 48 13 60 33l-1-100h32l1 261h-30c-2-10 0-23-3-31C134-8 116 4 85 4 32 4 16-35 15-94c0-66 23-100 70-100zm9 24c-40 0-46 34-46 75 0 40 6 74 45 74 42 0 51-32 51-76 0-42-9-74-50-73" id="X"/><g id="g"><use transform="matrix(0.05,0,0,0.05,0,0)" xlink:href="#T"/><use transform="matrix(0.05,0,0,0.05,12.950000000000001,0)" xlink:href="#U"/><use transform="matrix(0.05,0,0,0.05,16.900000000000002,0)" xlink:href="#V"/><use transform="matrix(0.05,0,0,0.05,26.900000000000002,0)" xlink:href="#W"/><use transform="matrix(0.05,0,0,0.05,36.900000000000006,0)" xlink:href="#X"/></g><path fill="#147eba" d="M30-248c87 1 191-15 191 75 0 78-77 80-158 76V0H30v-248zm33 125c57 0 124 11 124-50 0-59-68-47-124-48v98" id="Y"/><path fill="#147eba" d="M114-163C36-179 61-72 57 0H25l-1-190h30c1 12-1 29 2 39 6-27 23-49 58-41v29" id="Z"/><path fill="#147eba" d="M24-231v-30h32v30H24zM24 0v-190h32V0H24" id="aa"/><path fill="#147eba" d="M108 0H70L1-190h34L89-25l56-165h34" id="ab"/><path fill="#147eba" d="M141-36C126-15 110 5 73 4 37 3 15-17 15-53c-1-64 63-63 125-63 3-35-9-54-41-54-24 1-41 7-42 31l-33-3c5-37 33-52 76-52 45 0 72 20 72 64v82c-1 20 7 32 28 27v20c-31 9-61-2-59-35zM48-53c0 20 12 33 32 33 41-3 63-29 60-74-43 2-92-5-92 41" id="ac"/><path fill="#147eba" d="M59-47c-2 24 18 29 38 22v24C64 9 27 4 27-40v-127H5v-23h24l9-43h21v43h35v23H59v120" id="ad"/><path fill="#147eba" d="M100-194c63 0 86 42 84 106H49c0 40 14 67 53 68 26 1 43-12 49-29l28 8c-11 28-37 45-77 45C44 4 14-33 15-96c1-61 26-98 85-98zm52 81c6-60-76-77-97-28-3 7-6 17-6 28h103" id="ae"/><g id="h"><use transform="matrix(0.05,0,0,0.05,0,0)" xlink:href="#Y"/><use transform="matrix(0.05,0,0,0.05,12,0)" xlink:href="#Z"/><use transform="matrix(0.05,0,0,0.05,17.95,0)" xlink:href="#aa"/><use transform="matrix(0.05,0,0,0.05,21.9,0)" xlink:href="#ab"/><use transform="matrix(0.05,0,0,0.05,30.899999999999995,0)" xlink:href="#ac"/><use transform="matrix(0.05,0,0,0.05,40.9,0)" xlink:href="#ad"/><use transform="matrix(0.05,0,0,0.05,45.9,0)" xlink:href="#ae"/></g><path fill="#147eba" d="M185-189c-5-48-123-54-124 2 14 75 158 14 163 119 3 78-121 87-175 55-17-10-28-26-33-46l33-7c5 56 141 63 141-1 0-78-155-14-162-118-5-82 145-84 179-34 5 7 8 16 11 25" id="af"/><path fill="#147eba" d="M84 4C-5 8 30-112 23-190h32v120c0 31 7 50 39 49 72-2 45-101 50-169h31l1 190h-30c-1-10 1-25-2-33-11 22-28 36-60 37" id="ag"/><path fill="#147eba" d="M115-194c53 0 69 39 70 98 0 66-23 100-70 100C84 3 66-7 56-30L54 0H23l1-261h32v101c10-23 28-34 59-34zm-8 174c40 0 45-34 45-75 0-40-5-75-45-74-42 0-51 32-51 76 0 43 10 73 51 73" id="ah"/><path fill="#147eba" d="M117-194c89-4 53 116 60 194h-32v-121c0-31-8-49-39-48C34-167 62-67 57 0H25l-1-190h30c1 10-1 24 2 32 11-22 29-35 61-36" id="ai"/><g id="i"><use transform="matrix(0.05,0,0,0.05,0,0)" xlink:href="#af"/><use transform="matrix(0.05,0,0,0.05,12,0)" xlink:href="#ag"/><use transform="matrix(0.05,0,0,0.05,22,0)" xlink:href="#ah"/><use transform="matrix(0.05,0,0,0.05,32,0)" xlink:href="#ai"/><use transform="matrix(0.05,0,0,0.05,42,0)" xlink:href="#ae"/><use transform="matrix(0.05,0,0,0.05,52,0)" xlink:href="#ad"/></g><path d="M30 0v-248h187v28H63v79h144v27H63v87h162V0H30" id="aj"/><path d="M24 0v-261h32V0H24" id="ak"/><path d="M141-36C126-15 110 5 73 4 37 3 15-17 15-53c-1-64 63-63 125-63 3-35-9-54-41-54-24 1-41 7-42 31l-33-3c5-37 33-52 76-52 45 0 72 20 72 64v82c-1 20 7 32 28 27v20c-31 9-61-2-59-35zM48-53c0 20 12 33 32 33 41-3 63-29 60-74-43 2-92-5-92 41" id="al"/><path d="M135-143c-3-34-86-38-87 0 15 53 115 12 119 90S17 21 10-45l28-5c4 36 97 45 98 0-10-56-113-15-118-90-4-57 82-63 122-42 12 7 21 19 24 35" id="am"/><path d="M59-47c-2 24 18 29 38 22v24C64 9 27 4 27-40v-127H5v-23h24l9-43h21v43h35v23H59v120" id="an"/><path d="M24-231v-30h32v30H24zM24 0v-190h32V0H24" id="ao"/><path d="M96-169c-40 0-48 33-48 73s9 75 48 75c24 0 41-14 43-38l32 2c-6 37-31 61-74 61-59 0-76-41-82-99-10-93 101-131 147-64 4 7 5 14 7 22l-32 3c-4-21-16-35-41-35" id="ap"/><g id="j"><use transform="matrix(0.05,0,0,0.05,0,0)" xlink:href="#aj"/><use transform="matrix(0.05,0,0,0.05,12,0)" xlink:href="#ak"/><use transform="matrix(0.05,0,0,0.05,15.949999999999998,0)" xlink:href="#al"/><use transform="matrix(0.05,0,0,0.05,25.950000000000003,0)" xlink:href="#am"/><use transform="matrix(0.05,0,0,0.05,34.95,0)" xlink:href="#an"/><use transform="matrix(0.05,0,0,0.05,39.95,0)" xlink:href="#ao"/><use transform="matrix(0.05,0,0,0.05,43.900000000000006,0)" xlink:href="#ap"/></g><path d="M33 0v-248h34V0H33" id="aq"/><path d="M30-248c87 1 191-15 191 75 0 78-77 80-158 76V0H30v-248zm33 125c57 0 124 11 124-50 0-59-68-47-124-48v98" id="ar"/><g id="k"><use transform="matrix(0.05,0,0,0.05,0,0)" xlink:href="#aq"/><use transform="matrix(0.05,0,0,0.05,5,0)" xlink:href="#ar"/></g><path d="M205 0l-28-72H64L36 0H1l101-248h38L239 0h-34zm-38-99l-47-123c-12 45-31 82-46 123h93" id="as"/><path d="M85-194c31 0 48 13 60 33l-1-100h32l1 261h-30c-2-10 0-23-3-31C134-8 116 4 85 4 32 4 16-35 15-94c0-66 23-100 70-100zm9 24c-40 0-46 34-46 75 0 40 6 74 45 74 42 0 51-32 51-76 0-42-9-74-50-73" id="at"/><path d="M114-163C36-179 61-72 57 0H25l-1-190h30c1 12-1 29 2 39 6-27 23-49 58-41v29" id="au"/><path d="M100-194c63 0 86 42 84 106H49c0 40 14 67 53 68 26 1 43-12 49-29l28 8c-11 28-37 45-77 45C44 4 14-33 15-96c1-61 26-98 85-98zm52 81c6-60-76-77-97-28-3 7-6 17-6 28h103" id="av"/><g id="l"><use transform="matrix(0.05,0,0,0.05,0,0)" xlink:href="#as"/><use transform="matrix(0.05,0,0,0.05,12,0)" xlink:href="#at"/><use transform="matrix(0.05,0,0,0.05,22,0)" xlink:href="#at"/><use transform="matrix(0.05,0,0,0.05,32,0)" xlink:href="#au"/><use transform="matrix(0.05,0,0,0.05,37.95,0)" xlink:href="#av"/><use transform="matrix(0.05,0,0,0.05,47.95,0)" xlink:href="#am"/><use transform="matrix(0.05,0,0,0.05,56.95,0)" xlink:href="#am"/></g><path d="M126-127c33 6 58 20 58 59 0 88-139 92-164 29-3-8-5-16-6-25l32-3c6 27 21 44 54 44 32 0 52-15 52-46 0-38-36-46-79-43v-28c39 1 72-4 72-42 0-27-17-43-46-43-28 0-47 15-49 41l-32-3c6-42 35-63 81-64 48-1 79 21 79 65 0 36-21 52-52 59" id="aw"/><g id="m"><use transform="matrix(0.05,0,0,0.05,0,0)" xlink:href="#aw"/><use transform="matrix(0.05,0,0,0.05,10,0)" xlink:href="#au"/><use transform="matrix(0.05,0,0,0.05,15.949999999999998,0)" xlink:href="#at"/></g><path d="M179-190L93 31C79 59 56 82 12 73V49c39 6 53-20 64-50L1-190h34L92-34l54-156h33" id="ax"/><g id="n"><use transform="matrix(0.05,0,0,0.05,0,0)" xlink:href="#ar"/><use transform="matrix(0.05,0,0,0.05,12,0)" xlink:href="#al"/><use transform="matrix(0.05,0,0,0.05,22,0)" xlink:href="#au"/><use transform="matrix(0.05,0,0,0.05,27.950000000000003,0)" xlink:href="#an"/><use transform="matrix(0.05,0,0,0.05,32.95,0)" xlink:href="#ax"/></g><g id="o"><use transform="matrix(0.05,0,0,0.05,0,0)" xlink:href="#as"/><use transform="matrix(0.05,0,0,0.05,12,0)" xlink:href="#ar"/><use transform="matrix(0.05,0,0,0.05,24,0)" xlink:href="#aq"/></g><path d="M30 0v-248h33v221h125V0H30" id="ay"/><path d="M210-169c-67 3-38 105-44 169h-31v-121c0-29-5-50-35-48C34-165 62-65 56 0H25l-1-190h30c1 10-1 24 2 32 10-44 99-50 107 0 11-21 27-35 58-36 85-2 47 119 55 194h-31v-121c0-29-5-49-35-48" id="az"/><path d="M115-194c53 0 69 39 70 98 0 66-23 100-70 100C84 3 66-7 56-30L54 0H23l1-261h32v101c10-23 28-34 59-34zm-8 174c40 0 45-34 45-75 0-40-5-75-45-74-42 0-51 32-51 76 0 43 10 73 51 73" id="aA"/><g id="p"><use transform="matrix(0.05,0,0,0.05,0,0)" xlink:href="#ay"/><use transform="matrix(0.05,0,0,0.05,10,0)" xlink:href="#al"/><use transform="matrix(0.05,0,0,0.05,20,0)" xlink:href="#az"/><use transform="matrix(0.05,0,0,0.05,34.95,0)" xlink:href="#aA"/><use transform="matrix(0.05,0,0,0.05,44.95,0)" xlink:href="#at"/><use transform="matrix(0.05,0,0,0.05,54.95,0)" xlink:href="#al"/></g><path d="M63-220v92h138v28H63V0H30v-248h175v28H63" id="aB"/><path d="M84 4C-5 8 30-112 23-190h32v120c0 31 7 50 39 49 72-2 45-101 50-169h31l1 190h-30c-1-10 1-25-2-33-11 22-28 36-60 37" id="aC"/><path d="M117-194c89-4 53 116 60 194h-32v-121c0-31-8-49-39-48C34-167 62-67 57 0H25l-1-190h30c1 10-1 24 2 32 11-22 29-35 61-36" id="aD"/><path d="M100-194c62-1 85 37 85 99 1 63-27 99-86 99S16-35 15-95c0-66 28-99 85-99zM99-20c44 1 53-31 53-75 0-43-8-75-51-75s-53 32-53 75 10 74 51 75" id="aE"/><g id="q"><use transform="matrix(0.05,0,0,0.05,0,0)" xlink:href="#aB"/><use transform="matrix(0.05,0,0,0.05,10.950000000000001,0)" xlink:href="#aC"/><use transform="matrix(0.05,0,0,0.05,20.950000000000003,0)" xlink:href="#aD"/><use transform="matrix(0.05,0,0,0.05,30.950000000000003,0)" xlink:href="#ap"/><use transform="matrix(0.05,0,0,0.05,39.95,0)" xlink:href="#an"/><use transform="matrix(0.05,0,0,0.05,44.95,0)" xlink:href="#ao"/><use transform="matrix(0.05,0,0,0.05,48.900000000000006,0)" xlink:href="#aE"/><use transform="matrix(0.05,0,0,0.05,58.900000000000006,0)" xlink:href="#aD"/></g><path fill="#3a414a" d="M190 0L58-211 59 0H30v-248h39L202-35l-2-213h31V0h-41" id="aF"/><path fill="#3a414a" d="M205 0l-28-72H64L36 0H1l101-248h38L239 0h-34zm-38-99l-47-123c-12 45-31 82-46 123h93" id="aG"/><path fill="#3a414a" d="M127-220V0H93v-220H8v-28h204v28h-85" id="aH"/><g id="r"><use transform="matrix(0.06172839506172839,0,0,0.06172839506172839,0,0)" xlink:href="#aF"/><use transform="matrix(0.06172839506172839,0,0,0.06172839506172839,15.987654320987653,0)" xlink:href="#aG"/><use transform="matrix(0.06172839506172839,0,0,0.06172839506172839,29.1358024691358,0)" xlink:href="#aH"/></g><path fill="#3a414a" d="M177-190C167-65 218 103 67 71c-23-6-38-20-44-43l32-5c15 47 100 32 89-28v-30C133-14 115 1 83 1 29 1 15-40 15-95c0-56 16-97 71-98 29-1 48 16 59 35 1-10 0-23 2-32h30zM94-22c36 0 50-32 50-73 0-42-14-75-50-75-39 0-46 34-46 75s6 73 46 73" id="aI"/><path fill="#3a414a" d="M141-36C126-15 110 5 73 4 37 3 15-17 15-53c-1-64 63-63 125-63 3-35-9-54-41-54-24 1-41 7-42 31l-33-3c5-37 33-52 76-52 45 0 72 20 72 64v82c-1 20 7 32 28 27v20c-31 9-61-2-59-35zM48-53c0 20 12 33 32 33 41-3 63-29 60-74-43 2-92-5-92 41" id="aJ"/><path fill="#3a414a" d="M59-47c-2 24 18 29 38 22v24C64 9 27 4 27-40v-127H5v-23h24l9-43h21v43h35v23H59v120" id="aK"/><path fill="#3a414a" d="M100-194c63 0 86 42 84 106H49c0 40 14 67 53 68 26 1 43-12 49-29l28 8c-11 28-37 45-77 45C44 4 14-33 15-96c1-61 26-98 85-98zm52 81c6-60-76-77-97-28-3 7-6 17-6 28h103" id="aL"/><path fill="#3a414a" d="M206 0h-36l-40-164L89 0H53L-1-190h32L70-26l43-164h34l41 164 42-164h31" id="aM"/><path fill="#3a414a" d="M179-190L93 31C79 59 56 82 12 73V49c39 6 53-20 64-50L1-190h34L92-34l54-156h33" id="aN"/><g id="s"><use transform="matrix(0.06172839506172839,0,0,0.06172839506172839,0,0)" xlink:href="#aI"/><use transform="matrix(0.06172839506172839,0,0,0.06172839506172839,12.345679012345679,0)" xlink:href="#aJ"/><use transform="matrix(0.06172839506172839,0,0,0.06172839506172839,24.691358024691358,0)" xlink:href="#aK"/><use transform="matrix(0.06172839506172839,0,0,0.06172839506172839,30.864197530864196,0)" xlink:href="#aL"/><use transform="matrix(0.06172839506172839,0,0,0.06172839506172839,43.20987654320987,0)" xlink:href="#aM"/><use transform="matrix(0.06172839506172839,0,0,0.06172839506172839,59.197530864197525,0)" xlink:href="#aJ"/><use transform="matrix(0.06172839506172839,0,0,0.06172839506172839,71.5432098765432,0)" xlink:href="#aN"/></g></defs></g></svg>